<?xml version="1.0" encoding="UTF-8"?>
<svg id="Layer_1" data-name="Layer 1" xmlns="http://www.w3.org/2000/svg" viewBox="0 0 1711.06 325.09">
  <defs>
    <style>
      .cls-1 {
        fill: #fff;
      }

      .cls-2 {
        fill: #f43b3b;
      }
    </style>
  </defs>
  <g>
    <g>
      <path class="cls-1" d="M372.37,261.43v9.89c-2.03,4.51-4.23,8.92-6.59,13.23-4.69,8.58-10.02,16.78-15.98,24.55H44.13c-5.95-7.77-11.29-15.96-15.98-24.55-2.36-4.31-4.56-8.73-6.59-13.23v-9.89l2.77-3.6,79.44-103.5h186.39l79.44,103.5,2.77,3.6Z"/>
      <path class="cls-1" d="M196.97,29.5h0c51.44,0,93.2,41.76,93.2,93.2v87.47H103.77v-87.47c0-51.44,41.76-93.2,93.2-93.2Z"/>
      <g>
        <path d="M232.3,184.89h-70.67l-28.77-28.77v-48.82c0-22.45,18.2-40.65,40.65-40.65h46.91c22.45,0,40.65,18.2,40.65,40.65v48.82c-11.24,11.24-17.54,17.54-28.77,28.77Z"/>
        <path class="cls-1" d="M220.43,66.42h-46.92c-22.53,0-40.87,18.34-40.87,40.87v48.9l27.28,27.28,1.03,1.03.59.59h70.86l.59-.59,1.03-1.05,27.28-27.27v-48.9c0-22.53-18.34-40.87-40.87-40.87ZM260.86,156.02l-28.65,28.65h-70.5l-1.59-1.58h-.01s-27.04-27.07-27.04-27.07v-48.72c0-22.3,18.14-40.43,40.43-40.43h46.92c22.29,0,40.43,18.14,40.43,40.43v48.72Z"/>
      </g>
      <path class="cls-1" d="M149.81,105.89c5.71-4.57,12.61-7.85,19.94-8.66,5.96-.74,11.5.27,16.09,4.36,1.45,1.22,2.63,2.71,3.59,4.31l-.25.25c-2.77-1.52-5.3-2.97-8.22-3.97-3.56-1.19-7.23-2.21-11.03-2.16-3.45.08-6.91.74-10.22,1.81-3.36,1.05-6.62,2.52-9.69,4.34,0,0-.21-.28-.21-.28h0Z"/>
      <path class="cls-1" d="M243.91,106.17c-6.06-3.53-12.89-5.94-19.91-6.14-3.8-.05-7.47.97-11.03,2.16-2.92,1-5.46,2.45-8.22,3.97,0,0-.25-.25-.25-.25.96-1.59,2.14-3.08,3.59-4.31,2.87-2.53,6.57-4.21,10.4-4.49,5.63-.4,11.26.78,16.36,3.09,3.31,1.53,6.46,3.37,9.27,5.69,0,0-.21.28-.21.28h0Z"/>
      <path class="cls-1" d="M169.61,120.58c-3.36,0-6.39-1.86-7.92-4.86l1.56-.79c1.22,2.41,3.66,3.9,6.36,3.9s5.14-1.5,6.36-3.9l1.56.79c-1.52,3-4.55,4.86-7.92,4.86Z"/>
      <path class="cls-1" d="M224.32,120.58c-3.37,0-6.4-1.86-7.92-4.86l1.56-.79c1.22,2.41,3.65,3.9,6.36,3.9s5.14-1.5,6.36-3.9l1.56.79c-1.52,3-4.55,4.86-7.92,4.86Z"/>
      <rect class="cls-1" x="156.49" y="83.39" width="32.82" height="5.92"/>
      <rect class="cls-1" x="204.63" y="83.39" width="32.82" height="5.92"/>
      <g>
        <polygon points="161.63 184.89 177.22 156.11 216.71 156.11 232.3 184.89 161.63 184.89"/>
        <polygon class="cls-1" points="230.38 185.93 215.41 158.3 178.53 158.3 163.55 185.93 159.71 183.85 175.92 153.93 218.01 153.93 234.22 183.85 230.38 185.93"/>
      </g>
      <path class="cls-1" d="M176.83,155.46h40.28s.08.04.08.08h0c0,6.56-5.33,11.89-11.89,11.89h-16.65c-6.56,0-11.89-5.33-11.89-11.89h0s.04-.08.08-.08Z"/>
      <polygon class="cls-1" points="197.15 144 190.67 138.81 190.67 108.19 192.31 108.19 192.31 138.02 197.11 141.86 201.91 137.75 202.98 139 197.15 144"/>
      <rect class="cls-1" x="201.62" y="108.19" width="1.65" height="30.19"/>
      <ellipse class="cls-1" cx="189.65" cy="138.42" rx="2.66" ry="4.69"/>
      <ellipse class="cls-1" cx="204.28" cy="138.38" rx="2.66" ry="4.69"/>
      <path d="M275.11,130.74c0,12.45-5.31,22.55-11.85,22.55v-45.1c6.54,0,11.85,10.09,11.85,22.55Z"/>
      <path d="M130.67,108.19v45.1c-6.54,0-11.84-10.1-11.84-22.55s5.3-22.55,11.84-22.55Z"/>
      <circle cx="127.71" cy="157.3" r="2.96"/>
      <circle cx="266.22" cy="157.3" r="2.96"/>
      <path d="M365.78,284.55c-4.68,8.59-10.02,16.78-15.97,24.55-4.26,5.55-8.82,10.88-13.71,15.99H57.84c-4.89-5.11-9.46-10.44-13.71-15.99-5.95-7.77-11.29-15.96-15.98-24.55,1.44-2.7,2.96-5.36,4.53-7.96,17.83-29.45,44.45-52.84,76.15-66.43,8.27-3.54,16.87-6.42,25.76-8.57.28-.07.57-.14.84-.2,7.13-1.67,14.41-2.89,21.86-3.6.1-.01.18-.01.28-.02l.1.27,4.4,12.12,34.9,96.22,34.9-96.22,4.34-11.99v-.03l.15-.36c.07.01.16.01.23.02,7.44.7,14.73,1.91,21.85,3.58h.01c.29.06.55.13.84.2,8.91,2.14,17.53,5.02,25.81,8.58,31.71,13.59,58.33,36.99,76.15,66.43,1.58,2.6,3.09,5.26,4.52,7.96Z"/>
      <polygon class="cls-1" points="130.65 273.36 135.02 193.75 139.39 273.36 130.65 273.36 130.65 273.36"/>
      <polygon class="cls-1" points="153.11 290.84 157.48 193.75 161.85 290.84 153.11 290.84 153.11 290.84"/>
      <polygon class="cls-1" points="254.49 273.36 258.86 193.75 263.23 273.36 254.49 273.36 254.49 273.36"/>
      <polygon class="cls-1" points="232.04 290.84 236.41 193.75 240.78 290.84 232.04 290.84 232.04 290.84"/>
      <g>
        <path class="cls-1" d="M162.64,309.1c1.09,5.39,2.44,10.73,4.04,15.99h-4.57c-1.56-5.27-2.87-10.6-3.94-15.99-1.19-6.03-2.07-12.12-2.64-18.26-.09-.97-.16-1.93-.23-2.89l4.35-.33c.09,1.08.17,2.16.28,3.22.58,6.15,1.47,12.24,2.7,18.26Z"/>
        <path class="cls-1" d="M238.59,287.97c-.09.95-.17,1.92-.27,2.87-.62,6.15-1.55,12.24-2.77,18.26-1.1,5.4-2.43,10.72-4.01,15.99h-4.57c1.61-5.27,2.99-10.6,4.12-15.99,1.26-6.03,2.21-12.12,2.84-18.26.11-1.08.21-2.16.31-3.24l4.35.37Z"/>
      </g>
      <g>
        <path class="cls-1" d="M65.93,300.81v7.12c-.28-3.21-.12-5.72,0-7.12Z"/>
        <path class="cls-1" d="M66.04,309.1c.5,4.52,1.88,10.2,5.22,15.99h-5.33v-17.16c.03.37.07.77.12,1.16Z"/>
      </g>
      <g>
        <path class="cls-1" d="M330.8,307.94v17.16h-5.33c.11-.17.2-.35.3-.52,3.12-5.61,4.43-11.08,4.92-15.47.05-.39.09-.79.12-1.16Z"/>
        <path class="cls-1" d="M330.8,307.94v-7.12c.12,1.4.27,3.92,0,7.12Z"/>
      </g>
      <circle class="cls-1" cx="138.27" cy="314.09" r="5.41"/>
      <circle class="cls-1" cx="255.66" cy="314.09" r="5.41"/>
    </g>
    <path class="cls-1" d="M374.17,117.46c-9.69-22.91-23.55-43.47-41.21-61.13-17.67-17.66-38.23-31.53-61.13-41.21C248.11,5.09,222.92,0,196.97,0s-51.16,5.09-74.86,15.12c-22.91,9.69-43.47,23.56-61.13,41.21-17.67,17.66-31.53,38.23-41.21,61.13-10.04,23.72-15.12,48.9-15.12,74.86s5.08,51.15,15.12,74.86c.59,1.39,1.18,2.76,1.8,4.14,2.03,4.5,4.22,8.92,6.58,13.23,4.69,8.59,10.03,16.78,15.98,24.55,4.25,5.55,8.82,10.88,13.71,15.99h10.88c-.77-.74-1.53-1.48-2.28-2.24-.17-.17-.34-.34-.51-.51-4.21-4.25-8.19-8.65-11.94-13.24-8.26-10.07-15.37-20.93-21.31-32.51-2.08-4.05-4.02-8.19-5.8-12.42-.9-2.1-1.74-4.21-2.55-6.35-7.94-20.88-11.96-42.89-11.96-65.51,0-24.92,4.88-49.1,14.51-71.85,9.29-21.98,22.61-41.72,39.56-58.68s36.69-30.27,58.68-39.56c22.76-9.63,46.93-14.51,71.85-14.51s49.1,4.88,71.85,14.51c21.98,9.29,41.73,22.61,58.68,39.56s30.27,36.7,39.56,58.68c9.62,22.76,14.51,46.93,14.51,71.85,0,22.62-4.02,44.63-11.97,65.51-.8,2.13-1.65,4.25-2.54,6.35-1.79,4.22-3.72,8.36-5.8,12.42-5.93,11.58-13.06,22.44-21.31,32.51-2.91,3.56-5.96,7.02-9.15,10.37-1.08,1.14-2.18,2.26-3.3,3.38-.58.58-1.15,1.15-1.74,1.72-.18.17-.36.35-.54.52h10.88c4.89-5.11,9.45-10.44,13.71-15.99,5.95-7.77,11.29-15.96,15.97-24.55,2.36-4.31,4.56-8.73,6.59-13.23.61-1.38,1.22-2.75,1.8-4.14,10.03-23.72,15.12-48.9,15.12-74.86s-5.09-51.15-15.12-74.86Z"/>
  </g>
  <g>
    <polygon class="cls-1" points="563.87 152.74 543.45 152.74 543.32 96.28 515.63 142.8 505.81 142.8 478.27 97.5 478.27 152.74 457.84 152.74 457.84 58.67 475.85 58.67 511.08 117.09 545.74 58.67 563.61 58.67 563.87 152.74"/>
    <polygon class="cls-1" points="659.03 135.28 659.03 152.74 586.18 152.74 586.18 58.67 657.28 58.67 657.28 76.14 607.82 76.14 607.82 96.57 651.5 96.57 651.5 113.5 607.82 113.5 607.82 135.28 659.03 135.28"/>
    <polygon class="cls-1" points="762.65 58.67 762.65 152.74 744.77 152.74 697.87 95.64 697.87 152.74 676.36 152.74 676.36 58.67 694.37 58.67 741.14 115.74 741.14 58.67 762.65 58.67"/>
    <polygon class="cls-1" points="856.32 58.67 856.32 76.41 826.21 76.41 826.21 152.74 804.44 152.74 804.44 76.41 774.34 76.41 774.34 58.67 856.32 58.67"/>
    <path class="cls-1" d="M959.81,86.29c-2.6-5.87-6.21-11-10.82-15.39-4.62-4.38-10.04-7.79-16.26-10.21-6.23-2.42-13.07-3.63-20.51-3.63s-14.16,1.21-20.42,3.63c-6.27,2.42-11.75,5.83-16.4,10.21-4.66,4.4-8.27,9.55-10.82,15.46-2.56,5.91-3.83,12.36-3.83,19.35s1.27,13.44,3.83,19.35c2.55,5.91,6.13,11.07,10.74,15.46,4.62,4.38,10.08,7.8,16.4,10.21,6.32,2.42,13.2,3.63,20.63,3.63s14.14-1.21,20.37-3.63c6.22-2.41,11.64-5.79,16.26-10.15,4.61-4.34,8.21-9.5,10.82-15.46,2.59-5.95,3.89-12.43,3.89-19.42s-1.3-13.55-3.89-19.42ZM939.44,117.94c-1.47,3.67-3.55,6.85-6.24,9.54-2.69,2.69-5.8,4.75-9.35,6.18-3.54,1.44-7.41,2.16-11.63,2.16s-8.11-.71-11.68-2.16c-3.6-1.43-6.7-3.49-9.35-6.18-2.65-2.69-4.7-5.89-6.18-9.61-1.48-3.71-2.22-7.77-2.22-12.16s.74-8.56,2.22-12.23c1.47-3.67,3.55-6.86,6.24-9.55,2.69-2.69,5.8-4.75,9.35-6.18,3.53-1.43,7.41-2.16,11.62-2.16s8.11.73,11.69,2.16c3.58,1.43,6.7,3.49,9.35,6.18,2.65,2.69,4.7,5.88,6.18,9.55,1.48,3.67,2.22,7.75,2.22,12.23s-.74,8.56-2.22,12.24Z"/>
    <path class="cls-1" d="M1042.41,122.58c.06-.02.12-.05.18-.07,6.09-2.69,10.8-6.56,14.1-11.63,3.32-5.06,4.98-11.08,4.98-18.07s-1.66-13.18-4.98-18.28c-3.31-5.11-8.01-9.03-14.1-11.77-6.09-2.73-13.36-4.1-21.77-4.1h-40.72v94.08h21.77v-26.2h18.95c.34,0,.68,0,1.02-.01l18.06,26.21h23.51l-21.01-30.16ZM1001.87,76.41h17.74c6.72,0,11.74,1.43,15.05,4.3,3.31,2.87,4.97,6.9,4.97,12.1s-1.66,9.11-4.97,12.02c-3.32,2.91-8.33,4.37-15.05,4.37h-17.74v-32.8Z"/>
    <polygon class="cls-1" points="1151.72 135.28 1151.72 152.74 1078.88 152.74 1078.88 58.67 1149.97 58.67 1149.97 76.14 1100.51 76.14 1100.51 96.57 1144.19 96.57 1144.19 113.5 1100.51 113.5 1100.51 135.28 1151.72 135.28"/>
    <path class="cls-1" d="M1239.88,125.2c0,5.28-1.47,10.12-4.43,14.51-2.96,4.4-7.37,7.94-13.24,10.62-5.87,2.69-13.28,4.03-22.24,4.03-7.52,0-14.74-1-21.64-3.02-6.9-2.02-12.46-4.64-16.66-7.86l7.39-16.4c4.03,2.87,8.8,5.22,14.31,7.06,5.52,1.84,11.1,2.75,16.74,2.75,4.3,0,7.77-.43,10.41-1.28,2.65-.85,4.59-2.04,5.85-3.56,1.25-1.51,1.88-3.26,1.88-5.24,0-2.51-.98-4.5-2.96-5.99-1.97-1.47-4.57-2.69-7.8-3.63-3.22-.94-6.79-1.84-10.68-2.69-3.89-.84-7.8-1.9-11.69-3.16-3.89-1.25-7.46-2.86-10.68-4.83-3.23-1.97-5.85-4.58-7.86-7.8-2.02-3.22-3.03-7.34-3.03-12.36,0-5.38,1.46-10.28,4.37-14.71,2.9-4.44,7.3-7.98,13.17-10.62,5.87-2.65,13.24-3.97,22.11-3.97,5.92,0,11.74.69,17.48,2.08,5.73,1.39,10.8,3.48,15.18,6.25l-6.71,16.53c-4.4-2.51-8.79-4.36-13.18-5.57-4.38-1.22-8.7-1.81-12.9-1.81s-7.66.49-10.35,1.47c-2.69.99-4.62,2.26-5.78,3.83-1.16,1.57-1.75,3.38-1.75,5.44,0,2.42.99,4.37,2.96,5.85,1.97,1.48,4.58,2.67,7.8,3.56,3.22.9,6.79,1.79,10.69,2.69,3.89.9,7.79,1.93,11.69,3.09,3.89,1.16,7.46,2.73,10.68,4.7,3.22,1.97,5.85,4.57,7.86,7.79,2.02,3.23,3.02,7.31,3.02,12.24Z"/>
    <polygon class="cls-1" points="1341.08 58.67 1341.08 152.74 1319.31 152.74 1319.31 114.18 1276.57 114.18 1276.57 152.74 1254.8 152.74 1254.8 58.67 1276.57 58.67 1276.57 95.76 1319.31 95.76 1319.31 58.67 1341.08 58.67"/>
    <polygon class="cls-1" points="1505.05 58.67 1474.27 152.74 1450.88 152.74 1430.14 89.01 1408.82 152.74 1385.43 152.74 1354.65 58.67 1377.24 58.67 1398.46 124.78 1420.65 58.67 1440.8 58.67 1462.3 125.27 1484.21 58.67 1505.05 58.67"/>
    <path class="cls-1" d="M1565.12,58.67h-21.51l-41.93,94.08h22.31l8.39-20.15h43.6l8.35,20.15h22.85l-42.07-94.08ZM1539.25,116.05l14.98-36,14.9,36h-29.88Z"/>
    <path class="cls-1" d="M1679.31,122.58c.06-.02.12-.05.18-.07,6.09-2.69,10.8-6.56,14.11-11.63,3.32-5.06,4.97-11.08,4.97-18.07s-1.65-13.18-4.97-18.28c-3.32-5.11-8.02-9.03-14.11-11.77-6.09-2.73-13.35-4.1-21.77-4.1h-40.72v94.08h21.77v-26.2h18.95c.34,0,.68,0,1.02-.01l18.06,26.21h23.52l-21.02-30.16ZM1671.56,104.83c-3.32,2.91-8.33,4.37-15.05,4.37h-17.74v-32.8h17.74c6.72,0,11.74,1.43,15.05,4.3s4.97,6.9,4.97,12.1-1.65,9.11-4.97,12.02Z"/>
  </g>
  <g>
    <path class="cls-2" d="M1392.16,211.14c2.41,1.93,6.5,5.06,10.42,5.06,1.69,0,2.95-.42,3.73-1.08,1.02-1.15.72-2.41-.12-3.13-3.19-2.71-12.71-6.44-12.71-12.65,0-8.25,9.33-15.3,14.69-17.58,2.89-1.2,5.78-1.69,7.77.12,1.51,1.38,2.59,3.37,3.01,5.06.6,2.41-.84,4.76-1.75,6.02-1.57,2.11-3.31,5.18-4.15,6.68-.3.54-.66.84-1.33.18-1.14-1.14-1.87-3.01-.6-5.84,1.26-2.89,5.78-7.89,4.34-9.39-2.05-2.11-16.86,7.11-17.16,14.63-.18,3.91,7.53,7.11,10.9,9.51,2.29,1.63,1.99,4.4-.66,7.47-3.61,4.15-14.09,5.3-22.58-4.94-.66-.78-.42-1.2.12-1.39,1.99-.6,4.46-.06,6.08,1.26Z"/>
    <path class="cls-2" d="M1435.64,194.7c.54-.78,1.02-.9,1.45-.36.9,1.08,1.38,3.67-.06,6.68-1.32,2.71-4.34,7.23-5.78,10.42-1.51,3.37-1.57,5.96.48,5.84,2.47-.12,5.78-4.22,7.89-8.37.3-.54.72-.6.96-.06.24.54.24,2.05-.54,3.73-1.57,3.31-5.36,6.62-8.67,6.44-3.25-.18-4.94-2.11-4.94-4.94-1.93,2.47-4.64,4.7-7.53,4.7-5.6,0-6.74-7.65-1.75-14.93,4.88-7.11,9.64-9.82,12.65-9.82,2.59,0,3.79,1.99,3.67,4.34.78-1.45,1.51-2.71,2.17-3.67ZM1430.82,197.17c-1.93-.18-6.32,3.73-9.63,9.09-3.19,5.18-3.97,10.48-1.63,10.54,2.47.06,5.6-3.79,8.67-9.09,3.79-6.62,4.34-10.36,2.59-10.54Z"/>
    <path class="cls-2" d="M1460.14,194.7c.54-.78,1.02-.9,1.45-.36.9,1.08,1.38,3.67-.06,6.68-1.32,2.71-4.34,7.23-5.78,10.42-1.51,3.37-1.57,5.96.48,5.84,2.47-.12,5.78-4.22,7.89-8.37.3-.54.72-.6.96-.06.24.54.24,2.05-.54,3.73-1.57,3.31-5.36,6.62-8.67,6.44-3.25-.18-4.94-2.11-4.94-4.94-1.93,2.47-4.64,4.7-7.53,4.7-5.6,0-6.74-7.65-1.75-14.93,4.88-7.11,9.64-9.82,12.65-9.82,2.59,0,3.79,1.99,3.67,4.34.78-1.45,1.51-2.71,2.17-3.67ZM1455.33,197.17c-1.93-.18-6.32,3.73-9.63,9.09-3.19,5.18-3.97,10.48-1.63,10.54,2.47.06,5.6-3.79,8.67-9.09,3.79-6.62,4.34-10.36,2.59-10.54Z"/>
    <path class="cls-2" d="M1466.59,192.96c-.6-.84-.24-1.26.66-1.2,1.69.06,3.37-.06,5-.24,1.87-3.31,3.55-6.14,4.58-7.47.54-.78,1.14-.72,1.45,0,.66,1.69.66,3.67-.78,6.8,2.35-.06,3.25,1.02,3.73,1.81.42.72.18,1.14-.72,1.14-1.33-.18-3.19,0-4.7.24-2.35,4.03-5.78,9.87-8.07,14.93-1.99,4.4-1.33,8.13,1.2,8.25,2.71.12,6.14-4.15,8.37-8.67.36-.72,1.02-.84,1.26,0,.3.96,0,2.05-.6,3.43-.78,1.75-4.76,7.05-9.57,6.86-3.97-.12-7.17-4.58-4.28-11.5,1.26-3.01,3.79-8.07,6.38-12.83-2.05,0-3.43-.9-3.91-1.57Z"/>
    <path class="cls-2" d="M1490.97,218.91c-5.06,0-6.32-3.67-4.52-8.91,1.99-5.84,7.23-12.1,6.26-12.65-.84-.48-7.41,3.61-10.9,9.33-2.17,3.55-4.4,7.77-5.84,11.44-.24.54-.66.66-1.02.24-.96-1.08-1.51-2.77-.24-6.38,2.11-6.02,14.63-27.22,19.51-33.3.54-.72,1.14-.66,1.45.06.78,1.75.6,4.76-1.69,8.55-1.45,2.41-4.64,7.29-7.23,11.32,2.47-2.41,5.6-4.4,7.23-4.22,2.05.24,3.91,3.25,2.35,6.32-1.33,2.65-4.22,7.05-5.6,10.18-1.51,3.49-1.2,6.32,1.02,6.2,2.47-.12,5.78-4.46,7.65-8.31.24-.54.84-.54,1.08-.06.3.66.3,1.93-.6,3.73-1.69,3.43-5.36,6.44-8.91,6.44Z"/>
    <path class="cls-2" d="M1518.67,209.46c-1.81,3.07-3.37,6.02-4.58,8.67-.24.54-.78.54-1.08.12-.72-.96-.96-2.77.3-6.14.36-.9.9-2.11,1.63-3.43-1.32-.72-1.81-1.63-1.99-2.05-.3-.78-.18-1.02.72-.9.84.12,1.75.24,2.71.3,4.7-8.19,13.07-20.11,19.45-25.35.96-.78,1.57-.78,2.17.06.6.84.78.96,1.38,2.47.6,1.45.54,2.77,0,4.4-1.57,4.76-3.25,10.9-4.4,17.52,1.81.6,2.47,1.81,2.71,3.07.12.54-.12.72-.66.54-.72-.18-1.57-.3-2.59-.36-.42,3.13-.78,6.44-.9,9.64,0,.6-.36.78-.9.54-1.2-.54-2.17-2.05-2.23-5.48,0-1.2.06-2.77.24-4.58-4.27.3-9.15,1.02-11.98.96ZM1531.14,204.82c.9-6.26,2.59-13.85,4.46-18.55-4.58,5.12-10.06,12.4-14.63,19.57,3.67-.3,7.35-.96,10.18-1.02Z"/>
    <path class="cls-2" d="M1560.1,194.7c.54-.78,1.02-.9,1.45-.36.9,1.08,1.38,3.67-.06,6.68-1.32,2.71-4.34,7.23-5.78,10.42-1.51,3.37-1.57,5.96.48,5.84,2.47-.12,5.78-4.22,7.89-8.37.3-.54.72-.6.96-.06.24.54.24,2.05-.54,3.73-1.57,3.31-5.36,6.62-8.67,6.44-3.25-.18-4.94-2.11-4.94-4.94-1.93,2.47-4.64,4.7-7.53,4.7-5.6,0-6.74-7.65-1.75-14.93,4.88-7.11,9.64-9.82,12.65-9.82,2.59,0,3.79,1.99,3.67,4.34.78-1.45,1.51-2.71,2.17-3.67ZM1555.28,197.17c-1.93-.18-6.32,3.73-9.63,9.09-3.19,5.18-3.97,10.48-1.63,10.54,2.47.06,5.6-3.79,8.67-9.09,3.79-6.62,4.34-10.36,2.59-10.54Z"/>
    <path class="cls-2" d="M1576.24,220.42c-3.31,8.07-7.59,17.64-12.46,19.57-1.2.48-2.41.3-3.49-1.26-1.26-1.81-2.35-3.91-1.2-7.47,1.75-5.42,6.93-9.09,12.89-11.38.6-1.33,1.14-2.77,1.75-4.15-1.75,1.75-3.85,3.01-6.08,3.01-5.54,0-6.62-7.53-1.75-14.75,4.7-6.98,9.57-9.69,12.65-9.69,2.41,0,3.61,1.87,3.55,3.97.72-1.2,1.39-2.29,1.99-3.31.48-.84,1.08-.9,1.51-.36.9,1.08,1.38,3.67-.12,6.62-1.81,3.61-5.6,10.9-8.13,16.74,5.06-2.53,8.37-5.84,10.78-9.03.36-.48.9-.48,1.02.12.12.54-.18,1.87-1.2,3.49-2.35,3.67-6.68,6.08-11.68,7.89ZM1561.49,236.61c.78,1.14,5.54-5.12,9.45-14.27-7.83,4.58-10.48,12.83-9.45,14.27ZM1579.43,197.35c-1.87-.12-6.26,3.73-9.57,8.97-3.25,5.18-3.91,10.48-1.51,10.54,2.35.06,5.42-3.73,8.49-9.03,3.79-6.62,4.34-10.36,2.59-10.48Z"/>
    <path class="cls-2" d="M1595.33,217.17c5,.24,9.39-4.58,11.98-8.55.3-.48.78-.48,1.02.06.24.48.06,2.17-1.02,3.73-2.53,3.67-7.17,6.44-11.8,6.5-7.65.12-10.3-7.41-6.38-15.17s10.06-10.9,13.07-9.15c1.51.9,2.59,1.81,3.55,3.13,1.08,1.45.6,5.12-1.93,8.19-2.95,3.61-6.99,5.18-11.2,1.75-1.93,5.54-.48,9.33,2.71,9.51ZM1600.32,203.31c1.93-2.53,3.25-5.66,2.41-6.32-1.26-1.02-6.26,2.59-9.09,8.31-.18.36-.36.72-.48,1.02,2.95,1.87,5.42-.72,7.17-3.01Z"/>
  </g>
  <g>
    <path class="cls-2" d="M1304.51,314.98c-.18.12-.49.19-.94.24-.8.08-1.53-.01-2.2-.27-.67-.26-1.31-.6-1.94-1.01-.11-.07-.18-.11-.22-.13-1.72-1.07-2.98-3.03-3.79-5.86-.19-.57-.31-.86-.35-.85v.41s.06.26.06.26c.37,1.15.65,1.94.85,2.37,0,.06,0,.1.01.12-.08.03-.26-.27-.56-.89-.3-.62-.62-1.56-.98-2.83-.09-.37-.21-1.19-.33-2.48-.2-2.03-.27-3.36-.21-4,.25-3.69.98-7.43,2.19-11.23.26-.97.44-1.46.54-1.47.02,0,.05.01.09.05v.06c.03.2-.27,1.34-.87,3.42-.34,1.14-.54,1.84-.59,2.1-.42,1.32-.73,3.18-.91,5.57-.18,2.39-.19,4.44-.02,6.16.05.55.13,1.08.24,1.6.11.52.18.78.22.78.06,0,.05-.49-.02-1.45-.08-1.04-.09-1.56-.03-1.56.04,0,.05-.25.05-.74-.03-2.56.21-4.88.71-6.98.92-3.69,1.55-6.02,1.89-6.98,1.15-3.4,2.26-6.49,3.33-9.26,1.07-2.77,1.72-4.26,1.96-4.46.07-.09.1-.17.09-.24l-.05-.23c-.01-.12.01-.18.07-.19.02,0,.08.03.19.1.08.05.14.08.16.07.02,0,.03-.03.02-.09,0-.02-.02-.07-.04-.14-.03-.1-.05-.16-.05-.2-.01-.14,0-.25.06-.33.05-.08.16-.2.32-.36.03-.06.07-.1.11-.13-.01.06-.04.14-.07.24-.04.16-.06.26-.06.3,0,.06.03.09.07.08.1,0,.22-.2.36-.58s.21-.61.2-.71v-.03s-.08.15-.08.15c-.16.33-.31.51-.42.54l-.03.03-.03-.03s-.03-.05-.04-.09c-.02-.21.12-.48.42-.81.14-.15.21-.25.21-.29,0-.08-.05-.11-.13-.11-.04,0-.09.02-.14.04l-.03.03s.08-.13.24-.28c.16-.14.29-.22.39-.23.04,0,.06.01.06.05,0,.04-.03.12-.09.24-.04.04-.05.07-.05.09.04,0,.44-.69,1.22-2.05.77-1.36,1.16-2.1,1.15-2.19,0-.02-.01-.03-.03-.03-.02,0-.03,0-.03-.03,0-.04.05-.12.15-.25.26-.32.41-.61.45-.87.02-.22.1-.38.25-.5.11-.09.16-.21.14-.37-.02-.18.03-.31.14-.4.13-.09.21-.24.25-.44.09-.25.2-.38.32-.39l.09.02c.06.03.1.05.12.05l-.03-.03c-.03-.06-.04-.11-.04-.14-.03-.29.18-.77.63-1.42.16-.21.23-.33.23-.35s-.01-.03-.03-.03c0-.06.1-.29.32-.7.22-.4.38-.66.49-.77l1.06-1.85c-.03-.33.33-1.01,1.07-2.02.23-.3.34-.47.33-.51l-.03-.06c-.03-.06-.04-.09-.04-.11.1-.19.23-.44.4-.75.52-.96,1.05-1.92,1.61-2.9.52-.9,1.01-1.74,1.47-2.53,0-.02-.01-.03-.03-.03-.33.03-1.68.95-4.05,2.76-2.37,1.8-3.96,3.13-4.78,3.98-.41.41-.73.63-.94.65-.19.02-.34-.15-.42-.52-.09-.37-.17-.92-.27-1.66,0-.06,0-.1-.01-.12-.05-.51.19-1.22.71-2.14.52-.92,1.24-1.9,2.17-2.94.92-1.04,1.94-2.02,3.05-2.94.18-.16.46-.42.84-.79.45-.44.69-.66.73-.66.04,0,.07,0,.09.02s.04.02.06.02c-.01-.16.29-.49.91-1-.03.06-.08.13-.13.22-.07.11-.14.21-.21.31-.05.09-.09.15-.13.19,2.01-1.42,3.01-2.15,3-2.21h-.03c-.08.01-.45.23-1.12.67-.48.32-.74.49-.78.49v-.03c-.02-.14.58-.61,1.78-1.43,1.2-.81,3.33-2.13,6.38-3.94,1.56-2.2,2.63-3.68,3.22-4.45.59-.77.94-1.16,1.05-1.17h.09s.06-.06.07-.16c.01-.08.03-.12.05-.12.02,0,.04,0,.06.02.04.01.08.02.12.02.1,0,.21-.05.34-.12.09-.07.17-.11.23-.11h.03s-.03.03-.03.03v.06c.02.1.06.19.15.28.09.09.17.13.25.13.04,0,.08-.03.11-.07.04-.04.07-.07.11-.07.18-.02.47.11.88.39.41.28.71.54.89.8,0,.02.01.04.04.06.11.17.21.28.3.34.08.06.2.08.36.07h.03c5.39-1.84,8.54-2.81,9.44-2.9.04.02.08.02.12.02.02,0,.06,0,.12-.01h.03s.08-.02.11-.04c.51-.27,1.93-.51,4.27-.74,2.09-.2,3.49-.28,4.2-.23,2.18.18,3.9.72,5.16,1.63s1.96,2.08,2.1,3.55c.04.39.02.85-.04,1.39-.09.74-.14,1.52-.16,2.35,0,.35-.11,1.11-.31,2.28-.27,1.46-.39,2.39-.35,2.78.13,1.37-.16,2.9-.88,4.59-.72,1.69-1.53,3.22-2.42,4.56-.89,1.35-1.82,2.65-2.78,3.9-.3.38-.46.61-.5.67-1.04,1.26-2.58,2.94-4.62,5.03-2.4,2.44-5.31,4.94-8.73,7.49s-6.85,4.87-10.32,6.94c2.44.02,3.91.06,4.39.14.24.06.49.09.75.1,1.96.11,3.97.74,6.03,1.91s3.57,2.52,4.53,4.07l.84,1.4c.01.14.04.33.09.58.09.68.15,1.26.2,1.72.06.62.07,1.16.04,1.61-.04.45-.1.98-.2,1.6-.22,1.16-.32,2.23-.28,3.19,0,1.28-.14,2.33-.43,3.14-.08.2-.12.35-.13.43-.02.38-.38,1.14-1.06,2.3s-1.41,2.26-2.19,3.3c-.78,1.04-1.28,1.57-1.51,1.59-.02,0-.05,0-.09-.02,0-.02-.01-.03-.03-.03s-.03.03-.02.09c.02.21-.41.65-1.31,1.31-.89.66-1.49,1-1.81,1.03-.06,0-.12,0-.18-.01-.02-.02-.04-.03-.06-.02-.04,0-.06.03-.05.06,0,.02.04.07.1.14.02.06.04.09.04.11s0,.03-.03.03l-.09-.02c-.1-.03-.17-.04-.21-.04-.06,0-.09.03-.08.07,0,.02.01.06.04.11.02.04.04.08.04.11.01.12-.61.4-1.87.86-.4.14-.6.22-.6.23.01.14-.22.24-.71.31-.18.02-.32,0-.43-.03-.11-.04-.17-.08-.18-.12,0-.02,0-.03.03-.03.02,0,.08,0,.18.01.16.03.27.03.33.03.16-.01.27-.1.33-.27.05-.12.14-.19.28-.2.04,0,.11,0,.21,0,.1.01.17.01.21,0,.14-.01.25-.09.33-.24.06-.15.15-.22.24-.23,0,.02.01.03.03.03.04,0,.08,0,.12-.01h.03c.08-.01.12-.04.14-.1.01-.08.06-.12.13-.13.08,0,.16,0,.24.04.04,0,.07,0,.09.02.02,0,.03-.01.03-.03l-.03-.03v-.03c-.01-.1.27-.32.84-.66.57-.34.95-.52,1.14-.54.04,0,.08.01.12.05h.03s.03-.02.03-.03v-.06c-.02-.14.28-.46.9-.98,1.35-1.11,2.49-2.33,3.41-3.65.93-1.32,1.61-2.51,2.05-3.58.44-1.07.64-1.77.61-2.1,0-.04-.02-.06-.04-.06-.06,0-.2.25-.43.72-.69,1.41-1.56,2.86-2.61,4.34-1.05,1.49-1.86,2.46-2.45,2.91-.08.05-.26.22-.54.53-.56.56-.94.91-1.17,1.03-.11.07-.25.18-.41.34-.31.27-.59.41-.84.44h-.06c-.06.01-.09.05-.11.13,0,.14-.09.22-.24.23-.14.01-.22.08-.25.2-.01.1-.05.15-.13.16h-.03s-.04,0-.06,0-.04,0-.06-.02c-.12.01-.24.08-.36.21-.09.13-.2.2-.33.21-.04,0-.09,0-.15-.01-.04-.01-.07-.02-.09-.02-.04,0-.06.03-.05.06l.1.14s-.01.06-.05.06c-.04,0-.1,0-.18-.04-.08-.01-.13-.02-.15-.01-.04,0-.06.03-.05.06l.03.06s.03.04.04.06c.01.12-.23.2-.71.25-.11.03-.26.11-.42.25-.07.09-.37.26-.89.53-.77.37-1.19.64-1.25.8-.1.15-.2.23-.3.24-.04,0-.1,0-.18-.04-.12-.03-.21-.04-.27-.03-.06,0-.11.02-.14.04-.18.14-.63.25-1.33.34-.27.03-.41.08-.4.16v.03c0,.06-.22.13-.68.22-1.44.18-2.73.32-3.86.43-1.13.11-1.96.16-2.48.15-.52,0-1.01-.06-1.45-.16-.42-.08-.81-.11-1.16-.09-.26-.01-1.04-.11-2.33-.28-1.3-.17-2.06-.31-2.29-.43-.11-.09-.18-.13-.22-.13-.02,0-.03.01-.03.03h-.03c-.21.02-.78-.12-1.68-.44-.91-.32-1.9-.74-2.98-1.29-1.08-.54-2.02-1.16-2.84-1.85l-1.22-1c-.16.8-.14,2.22.06,4.25.13,1.39.5,2.28,1.09,2.67.59.4,1.24.6,1.95.61.2,0,.3.02.3.06,0,.1-.07.2-.25.32ZM1312.12,306.49c1.36-.04,2.71-.13,4.05-.26,2.3-.22,4.27-.61,5.91-1.15,1.64-.54,3.2-1.16,4.69-1.86.7-.32,1.11-.49,1.25-.51.04,0,.07,0,.09.02h.03s0-.03,0-.03c.04-.18.36-.4.97-.66.51-.25,1.13-.59,1.88-1.04.46-.28.74-.43.81-.43h.06s.14-.1.3-.27c.25-.28.43-.43.55-.44s.48-.22,1.09-.64c.61-.41.96-.69,1.04-.84.12-.15.41-.41.87-.79.89-.76,1.7-1.57,2.41-2.43.71-.87,1.34-2.03,1.89-3.51-.81-1.6-1.7-2.91-2.69-3.95-.99-1.04-2.35-1.96-4.08-2.78-.37-.2-1.06-.45-2.05-.75-.73-.23-1.15-.38-1.26-.47-.04-.06-.08-.08-.1-.08s-.03.01-.03.03c0,.04-.01.06-.05.06-.04,0-.09,0-.15-.01-.29-.13-.9-.24-1.83-.33-.14-.03-.35-.05-.63-.09-.6-.12-1.25-.19-1.93-.23-.68-.03-1.72.02-3.1.15-1.78.17-3.51.44-5.21.8-1.7.36-2.9.74-3.61,1.15-.53.27-.87.41-1.02.43-.18.02-.31-.05-.4-.2s-.19-.38-.3-.68c-.13-.32-.23-.48-.31-.47-.25.03-1.18,1.61-2.79,4.75-1.61,3.14-3.11,6.32-4.52,9.55-1.41,3.23-2.08,5.17-2.02,5.84.03.31.82.69,2.37,1.14,1.55.45,3.08.75,4.59.9.8.08,1.87.1,3.23.06ZM1314.76,278.92c.68-.52,1.01-.88.99-1.07,0-.02-.01-.04-.04-.06v-.03s0-.03.02-.03c.02,0,.04,0,.06.02.02,0,.04,0,.06,0,.16-.02.48-.22.96-.62.48-.4.74-.68.79-.84.01-.06.05-.09.11-.1.02,0,.05,0,.09.02l.09.02c.08,0,.13-.08.16-.22,0-.06-.05-.12-.14-.19h-.06c.07-.04.22-.24.44-.6.03-.06.06-.1.08-.13-.01.06-.03.13-.04.21,0,.14,0,.26,0,.35.01.12.04.17.08.17.06,0,.1-.08.13-.22,0-.02-.01-.04-.04-.06-.02-.04-.04-.07-.04-.09-.01-.14.09-.33.31-.58.22-.25.4-.38.54-.39.08,0,.12.03.13.11.01.1-.15.31-.47.64l-.13.16c.23-.1,1.27-.85,3.12-2.25,1.85-1.4,3.61-2.78,5.28-4.14,1.67-1.36,2.5-2.12,2.48-2.28,0-.06-.04-.1-.12-.14-.07-.03-.12-.05-.14-.05-.04,0-.1.07-.19.2-.18.23-.34.36-.5.37h-.06c-.1.02-.14.06-.13.14v.06c.02.12-.06.18-.21.2h-.03c-.16.02-.42.22-.8.61-.25.24-.41.36-.47.37-.02,0-.04,0-.06,0l-.03-.03c-.06,0-.11.08-.16.22,0,.16-.06.24-.15.25-.02,0-.04,0-.06-.02-.02-.02-.04-.03-.06-.02-.06,0-.15.11-.26.32-.13.25-.26.38-.38.39-.1,0-.27.13-.53.35-.29.24-.51.37-.64.39-.06,0-.11,0-.15-.04l-.03-.03s-.03.01-.03.03.01.04.03.06c0,.02,0,.04,0,.06.01.14-.76.85-2.32,2.15-1.56,1.29-2.44,1.95-2.63,1.97-.04,0-.06-.02-.07-.08-.01-.16.19-.41.62-.75.43-.35.8-.63,1.12-.83.04-.14.77-.76,2.18-1.87,1.41-1.1,2.15-1.66,2.23-1.66.08,0,.17,0,.27.03l.09.02s.03-.01.03-.03l-.09-.05c-.11-.07-.16-.12-.16-.16,2.42-2.05,4.39-3.7,5.9-4.96,1.51-1.26,3.03-2.52,4.55-3.79,1.52-1.27,2.79-2.33,3.81-3.18,1.02-.85,1.54-1.27,1.56-1.27.02,0,.03,0,.03.03,0,.1-.45.51-1.38,1.26-.46.38-.68.58-.68.6.01.12-1.46,1.39-4.41,3.83-3.19,2.67-4.77,4.07-4.76,4.18,0,.02.02.03.06.02.06.01.09.04.1.08,0,.04,0,.08-.02.12-.03.06-.07.1-.11.1s-.09-.03-.16-.1c-.05-.07-.12-.11-.22-.1s-.17.09-.21.23c0,.02.01.05.04.09l.03.03s-.02.06-.08.07c-.08,0-.23-.02-.45-.07.04.04.1.08.16.13.09.07.16.14.23.21.06.05.13.11.19.16,1.83-1.44,3.21-2.54,4.14-3.3.93-.76,1.39-1.16,1.39-1.2-.02,0-.12.06-.31.18-.37.21-.61.33-.71.33-.06,0-.09-.01-.09-.05.25-.22.45-.4.6-.53l.05-.06c.07-.05.33-.24.77-.58.04,0,.1.05.19.16.04.06.08.08.1.08.02,0,.02-.06.01-.18-.01-.16.2-.43.66-.83.45-.4.79-.61,1-.63.04,0,.08,0,.12.02h.06s.06-.02.06-.04v-.06c-.03-.25.77-1.03,2.38-2.33s2.46-1.95,2.54-1.96l-.02.06s.11-.09.27-.26c.46-.5.9-.92,1.32-1.28,2.27-1.95,4.37-4.23,6.28-6.84,1.91-2.61,2.84-4.25,2.77-4.94-.01-.12-.06-.17-.13-.16-.12.01-.31.21-.58.6-.27.39-.63.96-1.09,1.71-.46.73-.82,1.29-1.07,1.65-.25.37-.43.56-.55.57-.02,0-.03,0-.03-.03,0-.06.26-.49.79-1.29,1.11-1.59,1.75-2.62,1.94-3.11.03-.08.04-.17.03-.27-.03-.33-.36-.68-.97-1.04-.62-.36-1.41-.68-2.37-.94-.96-.26-1.95-.42-2.96-.48-1.03-.06-2.25-.02-3.65.12-1.97.19-3.82.51-5.55.95-1.73.44-2.71.87-2.95,1.29-.53,1-1.58,2.81-3.13,5.44-5.09,8.63-10.4,18.06-15.92,28.31-1.19,2.16-1.78,3.3-1.77,3.42.02,0,.03,0,.03.03,0,.04-.03.11-.1.22-.03.06-.06.12-.07.16,0,.02.01.03.03.03.12-.01.52-.28,1.19-.8ZM1321.4,313.22s0-.06.02-.06c0,.06.03.11.07.14l.07.14v.03c-.1-.07-.16-.15-.17-.25ZM1321.48,313.45h.03s0,.03,0,.03l-.03-.03ZM1324.61,278.73c4.7-2.68,9.24-5.81,13.61-9.4,4.37-3.59,8.03-7.14,10.97-10.68,2.95-3.54,4.76-6.58,5.44-9.12.2-.77.3-1.21.29-1.33v-.03c-.06,0-.23.35-.49,1.02-1.93,4.48-5.44,9.27-10.54,14.36-5.1,5.09-11.08,9.8-17.95,14.13-1.48.95-2.22,1.45-2.22,1.49v.03c.06,0,.36-.16.9-.47Z"/>
    <path class="cls-2" d="M1376.58,299.96c-1.1-.29-2.22-.93-3.36-1.92-.41-.35-.79-.79-1.16-1.31-.37-.51-.56-.89-.58-1.12,0-.02,0-.06-.01-.12.01-.06.02-.11.01-.15-.02-.18-.08-.36-.2-.54-.14-.26-.28-.6-.39-1.03-.12-.42-.23-1.14-.33-2.15-.19-1.93-.21-3.7-.07-5.3.14-1.6.34-3.19.6-4.77.14-.76.21-1.21.19-1.35,0-.06-.03-.09-.07-.08-.12.01-.26.4-.42,1.16-.15.64-.27.97-.35.98-.04,0-.06.16-.07.48.01.55-.03.88-.14.99-.11.09-.16.17-.15.25.03.25-.05,1.48-.23,3.69-.01.08,0,.47.05,1.18.05.94.09,1.69.1,2.26.02.57,0,.86-.06.86-.06,0-.12-.34-.19-1.05-.25-2.53-.21-5.09.11-7.66.04-.38.06-.6.05-.66-.04,0-.28.31-.71.93-.34.5-.53.76-.55.76l-.03-.03c.1-.19.15-.31.14-.37,0-.08-.04-.11-.1-.11-.1,0-.2.11-.29.31-.1.2-.14.36-.13.5,0,.08.03.12.07.11.02,0,.05-.01.08-.04.09-.05.15-.08.17-.08,0,.08-.13.25-.42.51,0-.02,0-.06.02-.12.01-.08.02-.13.01-.15,0-.04-.03-.06-.06-.05-.14.01-.29.15-.48.42s-.41.66-.7,1.18c-.3.54-.51.9-.63,1.07-.91,1.13-1.5,1.94-1.74,2.41-.03.06-.06.09-.08.1-.1,0-.32.2-.67.58-.35.38-.52.6-.51.66.02,0,.06-.04.14-.1.07-.05.12-.07.14-.07,0,.04-.1.19-.31.46s-.33.4-.37.41c-.02,0-.03,0-.03-.03,0-.02.02-.07.07-.15l.02-.09c-.06,0-.16.09-.3.25s-.21.29-.2.39l.03.05c.01.12-.05.16-.19.14-.04,0-.1.1-.18.28-.13.31-.23.47-.31.47l-.03-.03.02-.09c.05-.1.07-.16.07-.18,0-.04-.02-.06-.03-.06-.12.01-.48.35-1.08,1.02-1.19,1.34-2.2,2.29-3.03,2.86-.2.14-.3.25-.29.32,0,.02.01.04.04.06.02.02.03.04.04.06,0,.08-.07.17-.24.29-.17.12-.33.18-.48.19-.08,0-.13,0-.15-.02-.02,0-.04,0-.06-.02-.02-.02-.04-.03-.06-.02-.02,0-.03.01-.03.03l.04.06s.04.07.04.09c.01.12-.15.24-.48.36-.33.12-.71.2-1.14.24-.63.06-1.11.02-1.46-.13-1.28-.56-2.28-1.13-3.01-1.69-.73-.56-1.28-1.2-1.65-1.91-.36-.71-.6-1.58-.69-2.59-.16-1.62.16-3.54.95-5.76.79-2.22,1.91-4.42,3.38-6.61,1.46-2.18,3.08-4.02,4.84-5.53.91-.8,1.36-1.26,1.34-1.37l-.03-.03s.06,0,.12.02c.08.01.14.02.18.01.16-.02.38-.17.66-.48.09-.11.14-.16.16-.16.02,0,.03,0,.03.03l.03.03.03-.03c.55-.45,2.2-1.3,4.95-2.55l1.47-.06c1.14-.07,2.26.14,3.38.62,1.12.48,2,1.14,2.63,1.96.27.35.45.52.55.51.14-.01.31-.26.52-.73.54-1.15,1.35-2.4,2.43-3.75,1.08-1.35,1.81-2.04,2.18-2.07.12-.01.18.05.2.19,0,.1-.08.17-.28.2-.19.02-.7.53-1.51,1.52-.81.99-1.55,2.04-2.21,3.12-.66,1.09-.97,1.87-.93,2.33.02.16.06.23.14.22s.45-.5,1.13-1.47c1.02-1.48,1.94-2.71,2.77-3.68s1.58-1.5,2.24-1.56c.29-.03.58.03.87.17.29.14.59.33.91.58.26.19.41.28.47.28.1-.01.15.03.16.1v.21c0,.18.07.28.17.31.02,0,.04-.01.06-.03.12-.01.24.09.38.32.09.17.17.25.23.24.06,0,.08-.04.08-.1,0-.04-.02-.07-.04-.09l-.04-.06c0-.08.03-.12.11-.13.12-.01.18.04.19.16,0,.08-.03.16-.12.25-.11.13-.15.24-.14.34.01.14.07.2.17.19l.11-.04c.1,0,.18.08.23.27.02.18-.02.27-.12.28-.02-.02-.05-.03-.09-.02-.06,0-.09.04-.08.1.01.1.1.14.28.12.21-.02.32-.1.3-.24,0-.04-.02-.11-.05-.2-.03-.1-.04-.15-.05-.17,0-.04,0-.06.02-.06.02,0,.1.11.25.33.15.22.23.36.23.42,0,.02,0,.03-.03.03h-.03s-.07-.02-.09-.02c-.06,0-.15.12-.26.35-.13.25-.25.38-.35.39l-.06-.03c-.3.6-.44.92-.44.96l.04.11-.08.04s-.07,0-.15-.01c-.08-.01-.14-.02-.18-.01-.1.01-.14.04-.14.1,0,.04.02.09.04.14.02.04.04.07.04.09.01.12-.08.26-.28.44-.2.18-.29.31-.29.41.01.14-.08.26-.29.38-.17.06-.28.16-.33.3-.01.06-.04.09-.08.1-.1.01-.17-.01-.21-.07-.02,0-.03.01-.03.03l.07.08c.16.22.24.39.26.51,0,.08,0,.12-.05.12-.1-.05-.16-.1-.16-.16,0-.04,0-.09.01-.15l.02-.06-.03-.03c-.15.11-.21.23-.2.34,0,.02.01.05.04.09v.03c.01.08-.11.13-.37.15-.2.02-.29.06-.28.12v.06s.04,0,.04.03c0,.04-.03.07-.11.1-.08,0-.11.04-.11.1.01.14.1.2.25.18.06,0,.11-.03.14-.07l-.08.1c-.28.4-.41.68-.39.84,0,.02.01.05.04.09v.03c0,.06-.02.09-.08.1-.02,0-.05,0-.09-.02-.04-.02-.08-.02-.12-.02-.1,0-.16.06-.19.14-.01.1-.07.15-.19.17-.12.01-.22.1-.3.27-.08.17-.12.3-.11.39,0,.02.01.03.03.03l.11-.04s-.04.09-.13.22c-.23.32-.33.53-.33.62l.07.11s-.03.04-.08.07c-.15.05-.22.15-.21.29.01.12-.06.18-.22.2l-.2.02c-.1,0-.14.03-.14.07,0,.04.02.08.04.11.03.12.1.17.22.16l.11-.04-.13.19c-.44.55-.65.92-.63,1.09.02.19-.01.38-.09.57-.08.19-.17.28-.27.29-.08,0-.12-.02-.13-.08,0-.02,0-.05.02-.09l.02-.06s-.03-.06-.06-.05c-.08,0-.16.06-.24.14-.08.09-.12.17-.11.25,0,.06.04.08.1.08.04,0,.08-.02.11-.04.04,0,.07,0,.09,0,.1,0,.15,0,.15.04,0,.04-.06.12-.18.25-.11.13-.16.21-.15.25,0,.02.03.03.09.02.12,0,.18.06.19.16,0,.08-.02.12-.08.13-.02,0-.06,0-.12-.02l-.06-.02s-.06.03-.05.06l.05.2c.02.2-.02.3-.12.31-.02,0-.06,0-.12-.02l-.06-.02s.06.09.17.22c.15.14.29.29.43.43l-.77-.34c.16.48.33.71.51.69h.03c0,.06-.03.09-.11.1-.06,0-.13-.02-.21-.07-.08-.03-.14-.05-.18-.04-.23.02-.37.28-.4.78,0,.06.04.13.11.23l.04.06-.03.03s-.08-.03-.19-.1-.17-.1-.19-.1c-.02,0-.03.03-.02.09.01.12.04.24.09.36.05.12.12.18.19.17.02,0,.05-.01.09-.04h.06s0,.02,0,.02c-.06.15-.16.22-.3.24-.08,0-.14.08-.17.21-.04.13-.07.34-.1.62-.06.62-.15,1.02-.27,1.21-.13.13-.2.4-.22.82-.01.3-.06.46-.16.49-.08.03-.11.06-.11.1h.03c.14,0,.21.06.22.15,0,.02,0,.06-.02.12-.01.06-.02.11-.02.15,0,.1.09.2.24.3.06.05.1.09.1.11-.02,0-.07,0-.15-.01-.1-.03-.17-.04-.21-.04-.06,0-.09.03-.08.07,0,.02.02.07.04.14.03.06.04.1.04.11,0,.04,0,.06-.02.06-.04,0-.07,0-.09-.02l-.06-.02s-.05.06-.04.15c0,.02,0,.07.01.15.03.12.05.2.05.26.02.16-.02.26-.12.31-.05.04-.08.09-.07.15,0,.06.05.08.13.08.04,0,.11-.02.2-.05.04-.02.07-.04.09-.04.02,0,.03,0,.03.03,0,.02-.04.09-.13.22-.24.34-.36.57-.35.68,0,.04.04.1.11.2.14.2.22.46.25.77.02.18-.01.27-.09.28-.08,0-.13-.07-.14-.22,0-.02,0-.05,0-.09.01-.06.02-.11.02-.15-.01-.1-.04-.14-.1-.14-.08,0-.11.13-.08.36.03.33.14.69.34,1.06.1.21.15.36.16.46.01.16-.04.24-.15.25l-.27-.03s.06.08.17.19c.19.18.3.31.3.38,0,.08-.04.19-.14.34l-.05.07c.09-.07.16-.11.2-.11.1,0,.18.16.26.51.01.14.03.23.06.29l.35-.03c.12-.01.25.09.39.32.11.15.2.22.26.21l.03-.03c.06,0,.09.06.11.2.02.16-.03.24-.12.25-.08,0-.13-.03-.16-.1-.05-.09-.14-.13-.28-.12-.12.01-.17.04-.17.08l.03.03s.1.07.22.16c.53.34.83.51.91.5,0-.02-.01-.05-.04-.08l-.04-.06.04.06c.8.93,1.4,1.37,1.81,1.33.06,0,.09-.03.08-.07,0-.06-.14-.19-.39-.4-.37-.32-.55-.54-.57-.65.08,0,.22.07.42.23.2.16.64.52,1.3,1.08.33-.03.72-.08,1.17-.14.58-.08,1.11-.14,1.58-.18.84-.08,1.26-.07,1.27.03.01.14-.27.28-.84.44-.58.16-1.29.27-2.15.36-1.48.14-2.78.07-3.88-.21ZM1355.55,295.07c1-.56,1.9-1.18,2.7-1.87,1.36-1.18,3.16-3.13,5.38-5.85,2.23-2.73,4.19-5.34,5.88-7.85,1.7-2.51,2.52-4.04,2.47-4.58-.02-.23-.37-.32-1.06-.25-.35.03-1.27.28-2.75.73-1.48.45-2.22.69-2.22.73,0,.08-.36.35-1.1.82-1.74,1.11-3.16,2.17-4.24,3.16-.85.77-1.89,1.89-3.12,3.36-1.23,1.47-1.83,2.31-1.81,2.52l-1.72,2.97s-.11.32-.33.83c-.47,1.09-.85,2.11-1.16,3.07-.31.96-.43,1.8-.36,2.55.02.25.09.43.21.53s.34.13.67.1c.7-.07,1.55-.38,2.55-.94ZM1375.87,297.07c0-.08-.11-.15-.32-.21l-.3-.03c.03.06.07.14.14.25.11.13.23.19.34.17.1,0,.14-.07.13-.19ZM1376.5,295.49c-.08-.26-.13-.62-.18-1.09-.06-.66-.04-1.07.06-1.22.07-.11.09-.26.07-.48-.06-.59.01-1.17.21-1.76.06-.16.09-.26.09-.3,0-.06-.08-.08-.21-.07-.06,0-.09,0-.09-.02.02,0,.05-.03.08-.09.15-.11.22-.21.21-.29,0-.02-.01-.05-.04-.09-.02-.02-.03-.05-.04-.09-.01-.14.04-.38.17-.73.11-.25.17-.41.16-.49,0-.08-.04-.11-.1-.11-.02,0-.06.03-.11.07l-.08.07-.03-.03s.02-.09.06-.15c.04-.06.09-.1.15-.1.04,0,.07,0,.09.02h.06c.1-.01.17-.07.22-.17,0-.06-.09-.1-.25-.13-.12.01-.18,0-.18-.01l.02-.06c.16-.14.24-.28.22-.44-.01-.16.03-.31.13-.46.07-.09.1-.17.09-.24,0-.02-.01-.04-.03-.06v-.06s0-.03,0-.03c0-.1.08-.2.27-.29.15-.07.22-.15.21-.23,0-.04-.03-.09-.08-.17-.11-.15-.18-.29-.19-.43-.02-.18.02-.27.12-.28h.03c.08-.01.13-.04.17-.11.05-.12.14-.26.29-.41.13-.11.19-.2.18-.25,0-.04-.03-.08-.07-.11-.1-.03-.16-.09-.17-.19,0-.02,0-.05.02-.09.02-.02.03-.04.02-.06,0-.1-.14-.23-.39-.4-.19-.16-.29-.28-.3-.35,0-.08.06-.12.19-.14.16-.02.24-.01.24,0l-.06.03c-.11.07-.16.14-.16.19,0,.08.06.14.15.18.09.04.2.05.31.04.23-.02.42-.16.55-.41s.19-.53.16-.84c-.02-.23-.13-.5-.31-.8-.03-.08-.05-.13-.08-.17.02.02.05.05.1.11.2.22.36.32.5.31s.23-.08.29-.21c.06-.12.1-.31.14-.54.05-.28.11-.44.19-.49.13-.07.19-.15.18-.22,0-.02-.01-.04-.04-.06-.02-.02-.03-.04-.03-.06,0-.04.04-.09.13-.16.2-.2.31-.42.35-.68.03-.3.32-.82.88-1.56.12-.15.18-.23.18-.25,0-.26.16-.66.5-1.2.17-.27.25-.44.25-.5,0-.04-.02-.06-.04-.06-.02,0-.1.1-.24.29-.18.21-.28.32-.32.33-.02,0-.03,0-.03-.03,0-.08.03-.17.12-.28.07-.11.1-.2.09-.28,0-.04-.03-.09-.08-.17v-.03s0-.03,0-.03l.03.03s.04.06.06.05l.05-.06c.36-.51.61-.77.72-.78.02,0,.03,0,.03.03,0,.02-.05.11-.15.28-.17.27-.25.44-.25.5,0,.02.01.03.03.03.08,0,.19-.1.33-.28.14-.18.2-.35.19-.51,0-.02-.01-.05-.04-.08-.03-.06-.04-.09-.04-.11-.01-.12.01-.21.08-.27.06-.07.11-.1.15-.1v.03s-.02.07-.07.15l-.05.12v.03c.06,0,.16-.09.29-.25s.19-.29.18-.39c0-.06-.03-.09-.07-.08-.02,0-.05.02-.08.07-.06.03-.09.04-.11.04-.12.01-.18-.03-.19-.13-.01-.14.07-.35.26-.63.19-.28.34-.43.46-.44.06,0,.09,0,.09.02,0,.02-.03.05-.08.1-.09.09-.13.15-.13.19,0,.06.07.1.19.13.06,0,.08-.05.08-.13.01-.08.04-.12.08-.13.02,0,.03,0,.03.03.02,0,.04,0,.06,0v.03c.08,0,.11-.1.09-.27-.02-.16-.09-.23-.23-.21l-.23.05s-.06,0-.06-.02c0-.06.13-.23.42-.51.43-.4.7-.71.8-.93.02-.18.08-.27.18-.28.02,0,.04,0,.06.02.04.02.08.02.12.02.19-.02.33-.12.41-.31s.14-.41.17-.67c.04-.2.07-.3.09-.3.16-.02.36.48.62,1.48-.05.06-.13.17-.23.32-.93,1.35-1.49,2.03-1.66,2.05-.02,0-.04,0-.06,0l-.03-.03s-.03.01-.03.03.01.04.03.06c.02.04.04.08.04.11.02.18-.08.43-.28.75-.21.33-.38.49-.51.51-.1,0-.14.04-.14.1l.03.03s0,.04,0,.06c.02.2-.72,1.62-2.22,4.26-1.2,2.1-1.78,3.23-1.77,3.36-.02.04-.11.31-.28.79-.78,2.1-1.21,3.38-1.28,3.82,0,.02,0,.07-.02.15-.35,1.71-.54,2.6-.6,2.69,0,.02,0,.04-.02.06-.09.28-.14.48-.15.58-.05,1.28-.09,2.54-.11,3.76.03.69,0,1.03-.11,1.04-.06,0-.13-.12-.2-.38Z"/>
    <path class="cls-2" d="M1413.35,294.8c-1.46-1.47-2.35-3.87-2.68-7.18-.2-2.07-.03-4.83.53-8.29.07-.5.1-.77.1-.81.02-.18.06-.29.11-.34.09-.11.27-.71.53-1.81.27-1.1.39-1.74.38-1.91,0-.02-.01-.04-.04-.06v-.03c-.01-.08.08-.18.26-.32.09-.07.14-.11.13-.13,0-.02-.01-.03-.03-.03-.04-.02-.06-.03-.06-.05,0-.06.04-.16.15-.31.05-.08.08-.13.07-.15-.02,0-.08.03-.17.08l-.08.04s-.03-.02-.03-.06c-.01-.14.08-.46.27-.97.2-.51.35-.77.47-.78l.06.05s0-.04,0-.06c-.02-.04-.04-.08-.04-.14-.02-.23.09-.73.33-1.48.24-.75.56-1.59.97-2.52-.46.52-.94,1.33-1.45,2.45-.24.54-.4.81-.48.81-.04,0-.06-.03-.07-.11v-.15c-.02-.08-.06-.11-.11-.11-.18.02-.44.34-.79.96-.27.48-.45.72-.55.73-.16.02-.31.12-.46.3-.15.18-.22.35-.2.51,0,.02.01.05.04.09v.06c.01.08-.04.12-.16.14-.19.06-.28.2-.25.44,0,.04,0,.08-.02.12,0,.1,0,.15-.02.15-.02,0-.06-.04-.13-.13-.09-.09-.14-.13-.16-.13v.06c0,.32-.11.53-.31.65-.18.16-.28.34-.3.56-.01.08-.04.12-.08.13-.02,0-.05,0-.09-.02-.02,0-.04,0-.06,0-.2.02-.33.11-.42.28,0,.02.04.03.12.02.16.02.24.08.25.15,0,.08-.03.12-.11.13-.04,0-.09,0-.15-.01-.04-.02-.07-.02-.09-.02-.06,0-.08.04-.08.1,0,.02,0,.04,0,.06.02.04.04.07.04.09.02.18-.79,1.36-2.43,3.54-.82,1.1-1.23,1.67-1.22,1.71,0,.02-.06.11-.18.25-.4.53-.59.89-.57,1.09,0,.02-.02.03-.06.03-.22.02-.41.15-.6.38-.18.23-.27.46-.24.67,0,.04-.05.07-.17.11-.25.04-.43.16-.53.35-.29.62-.66,1.09-1.1,1.41-.11.07-.17.12-.16.16,0,.02.01.05.04.08.03.06.04.11.04.14,0,.02-.15.2-.45.55-.69.81-1.03,1.26-1.02,1.34.01.1-.11.2-.35.3-.3.13-.45.27-.43.43,0,.02.01.05.04.09l.03.06c0,.08-.04.12-.13.13-.21.02-.63.37-1.26,1.04-.21.24-.37.4-.46.49-.81.77-1.61,1.3-2.38,1.61-.78.3-1.71.5-2.81.61-.76-.58-1.44-1.1-2.01-1.58-.18-.18-.33-.26-.47-.25-.23.02-.64-.26-1.2-.84-.57-.59-.89-1.05-.96-1.4l-.04-.14c-.44-1.28-.7-2.39-.8-3.35-.19-2.01.11-4.14.92-6.4.81-2.25,1.96-4.37,3.46-6.36,1.5-1.99,3.18-3.62,5.03-4.9,1.85-1.28,3.68-2.01,5.47-2.19.76-.07,1.46-.02,2.1.15.64.18,1.15.4,1.53.67.38.27.58.46.59.58l-.03.03s-.16-.06-.37-.2c-.52-.32-1.08-.59-1.66-.81-.58-.22-1.26-.29-2.04-.22-1.66.16-3.44.91-5.35,2.25-1.91,1.34-3.66,3.07-5.26,5.21-1.6,2.13-2.78,4.41-3.55,6.83-.29.91-.42,1.43-.41,1.55.1,0,.34-.53.73-1.58,1.35-3.34,3.14-6.12,5.36-8.35.66-.65,1.06-1.12,1.2-1.39.02-.02.04-.03.06-.03s.05,0,.09.02c.06.01.11.02.15.01.1,0,.18-.09.24-.26.06-.16.13-.25.21-.26.1,0,.43-.22,1-.63.86-.64,1.86-1.17,2.99-1.59,1.13-.43,2.21-.69,3.25-.79.92-.09,1.91.03,2.99.36.24.08.38.11.42.11.43-.04,1.53,1.48,3.31,4.55l.24.39s.29-.35.81-1.05c.52-.7,1.32-1.8,2.4-3.29,1.08-1.49,2.69-3.73,4.84-6.72.71-.99,1.54-2.22,2.48-3.67.41-.63.7-1.06.86-1.3.16-.23.29-.35.36-.36.12-.01.93-1.11,2.44-3.3,1.51-2.18,2.26-3.39,2.23-3.63-.01-.14.06-.29.21-.46.15-.17.39-.39.72-.66.02-.02.04-.03.06-.03-.3.4-.44.63-.43.69.06,0,.28-.25.67-.74s.57-.8.56-.94c0-.02-.01-.04-.03-.05v-.03c0-.06.03-.11.1-.16.25-.1.49-.31.74-.63,1.28-1.66,2.33-2.53,3.17-2.61.35-.03.78.17,1.28.6.5.43.97.92,1.4,1.46.43.54.65.89.66,1.04,0,.02,0,.04-.02.06-.02.04-.02.08-.02.12,0,.08.05.2.13.37.05.15.08.26.09.32,0,.04,0,.07-.02.09-.16.21-.37.66-.64,1.33.06-.03.12-.05.2-.08.15-.07.24-.11.28-.11.04,0,.06,0,.06.02,0,.04-.15.18-.46.43-.23.22-.35.34-.35.36l.03.03s.06-.02.11-.04c.07-.05.12-.07.14-.07l.03.03s-.06.08-.19.17c-.44.34-.65.61-.63.83.03.27,0,.44-.1.51-.02.02-.04.03-.06.04-.04,0-.06-.03-.07-.11-.03-.09-.05-.14-.07-.14-.06,0-.13.06-.21.17-.08.11-.11.2-.11.28,0,.08.05.15.14.22.04.04.07.07.07.11,0,.06-.02.11-.07.16-.06.05-.1.07-.14.07l-.03-.03.02-.09c.05-.08.08-.13.07-.15,0-.04-.02-.06-.04-.06-.08,0-.21.11-.38.32-.18.2-.26.34-.26.39h.03s.11-.07.11-.07c0,.02-.05.09-.16.22-.23.26-.34.45-.33.56,0,.04.02.1.05.17.03.06.04.09.04.11,0,.04,0,.06-.02.06l-.03-.03c-.06-.01-.11-.02-.15-.01-.14.01-.27.1-.4.26-.13.16-.19.31-.18.45l.04.09c0,.08-.13.23-.4.45-.2.18-.3.29-.29.33,0,.02.03.04.09.05.1,0,.15.02.16.08,0,.1-.05.17-.19.22l-.06-.02c-.1,0-.14.12-.11.34.01.14.07.23.17.28.06.01.09.04.1.08,0,.06-.03.11-.1.16-.08,0-.2-.09-.35-.29-.09-.11-.14-.16-.16-.16.03.27-.28.91-.91,1.92-.26.4-.38.62-.38.66,0,.04.04.08.12.12.07.04.12.06.14.06l.03-.03-.04-.06s-.06-.06-.07-.08c0-.08.17-.28.53-.61.29-.26.43-.43.43-.48v-.03s-.03-.02-.04-.06c0-.06.03-.13.1-.22.04-.02.08-.04.11-.04h.03s-.02.06-.02.06c-.03.08-.04.14-.04.18,0,.06.04.09.1.08.12-.01.17-.08.16-.19,0-.08-.07-.16-.17-.25-.08-.05-.13-.11-.13-.16,0-.1.09-.17.3-.21.19-.06.34-.13.44-.2s.14-.23.12-.44c-.01-.12,0-.19.02-.21.03-.02.07-.04.13-.04.16-.02.33-.21.53-.58l.03-.03s-.09.1-.16.16c-.18.18-.3.27-.36.27l-.03-.03c0-.08.31-.62.96-1.63,1.2-1.81,1.79-2.84,1.77-3.1,0-.02,0-.04,0-.06-.02-.02-.03-.04-.04-.06.02,0,.04,0,.06,0,.02.02.04.03.06.02.31-.03,1.01-1.11,2.11-3.25.03.06.05.13.08.23.09.27.14.48.15.64.02.18-.06.41-.23.7-.1.17-.15.28-.14.34.02.16-.03.27-.14.34-.3.36-.63.85-.98,1.45-.58.92-.99,1.47-1.23,1.65-.02.02-.02.05-.02.09v.03s.04.06.04.08c0,.08-.1.22-.31.42-.27.26-.4.44-.39.54,0,.08-.33.57-1.01,1.49-.96,1.28-1.43,1.99-1.42,2.15,0,.02-.14.12-.41.31-.44.34-.66.53-.65.57,0,.02.01.03.03.03.02,0,.07-.03.14-.07.09-.05.16-.08.2-.08.06,0,.09.02.1.08,0,.08-.07.18-.24.32-.22.16-.34.3-.37.42,0,.04.03.06.06.05l-.08.13c-.12.17-.18.26-.18.28,0,.02.01.03.03.03.01.16-.3.74-.95,1.76-.65,1.02-1.08,1.58-1.28,1.68-.19.1-.28.16-.28.2l.26-.03c.06,0,.09.01.09.05.01.16-.25.65-.79,1.49-.54.84-.89,1.27-1.04,1.28-.12.01-.17.06-.16.13,0,.1.09.14.25.12.06,0,.11-.03.14-.07,0,.1-.23.54-.73,1.34-.49.8-.81,1.2-.95,1.21-.08,0-.35.44-.82,1.29-.6,1.14-.97,1.72-1.1,1.73-.02,0-.05,0-.09-.02h-.03s.03.03.03.03c.02.02.03.06.04.11.02.2-.03.44-.14.72-.11.29-.29.72-.55,1.29-.39.83-.7,1.51-.92,2.04-.22.55-.61,1.24-1.16,2.06-.28.4-.41.64-.4.72,0,.02.01.03.03.03.02,0,.03-.01.03-.03h.06c.08-.01.12.03.13.13.01.12-.03.18-.13.19l-.06-.02c-.23.02-.35.11-.36.27,0,.02.02.03.06.02h.09c.06-.01.11.01.15.06l.02.21c.01.14-.01.21-.07.21h-.09s-.05.07-.04.19c.03.25,0,.43-.09.54-.04.04-.05.08-.05.12,0,.06.04.13.11.2,0,.02,0,.03-.03.03-.04,0-.09-.02-.14-.06-.05-.04-.08-.11-.09-.21,0-.04,0-.1.04-.18,0-.12.01-.19,0-.21-.18.02-.58,1.05-1.21,3.1-.13.47-.21.73-.25.79-.46,1.36-.8,2.61-1.03,3.73-.04.36-.11.54-.21.55l-.06-.02s-.03.03-.02.09c0,.02.01.06.04.11.05.11.08.21.09.29.02.21-.05.35-.23.41-.04,0-.09-.01-.15-.04-.06-.03-.11-.05-.15-.04-.04,0-.06.04-.05.12,0,.1.07.22.18.37.13.16.21.31.22.45.02.22,0,.38-.06.48-.06.1-.16.21-.31.33-.11.11-.19.21-.25.31-.06.09-.08.23-.06.41,0,.1.07.22.18.37.04.06.07.1.07.14,0,.02-.03.04-.08.07-.12.03-.17.1-.16.22.02.02.04.07.04.14,0,.1,0,.22-.05.36-.03.1-.04.18-.04.24,0,.06.04.11.11.17.06.05.1.12.11.2,0,.1,0,.19-.03.27-.02.02-.02.04-.02.06,0,.04.02.06.03.05h.03s.06-.04.06-.04c.08,0,.17.26.28.8.1.62.21.93.33.91.06,0,.09.02.1.08l-.02.09s-.02.05-.02.09c.01.12.1.19.26.21,0-.04-.03-.09-.07-.14-.02-.04-.04-.07-.04-.08,0-.06.02-.09.08-.1.08,0,.19.13.34.41.14.38.48.68,1.03.89.55.21,1.15.29,1.79.23.45-.04.9-.18,1.35-.4.21-.1.35-.15.43-.16.14-.01.39.05.76.19.04.02.07.03.09.05-.02,0-.04.01-.06.03-.4.32-.77.55-1.11.7-.34.15-.87.26-1.59.33-2.13.21-3.92-.43-5.38-1.9ZM1391.19,289.32c.14-.01.21-.22.24-.61.03-.36.1-.54.21-.55.02,0,.05,0,.09.02l.06.02s.05-.05.04-.15c0-.04-.02-.12-.05-.23-.03-.12-.05-.19-.05-.23,0-.06.03-.16.12-.31.17-.31.24-.58.22-.82,0-.02.04-.07.13-.16.22-.2.32-.39.3-.56-.01-.14.05-.27.18-.4.13-.13.29-.2.47-.22.04,0,.05-.06.04-.15,0-.08-.03-.18-.06-.29-.03-.08-.04-.12-.04-.14-.01-.16.04-.25.15-.28.08-.03.11-.06.11-.1,0-.02,0-.04,0-.06-.02-.04-.04-.08-.04-.11-.01-.12.02-.18.1-.19.04,0,.15.05.34.17.06.05.11.08.13.08,0-.04-.02-.08-.04-.11-.05-.07-.07-.12-.07-.14-.01-.12.08-.32.26-.62.07-.1.1-.17.1-.19l-.03-.03s.1-.17.31-.44c.77-1.04,1.14-1.64,1.13-1.79,0-.02-.01-.04-.04-.06v-.03s.01-.03.05-.03c.02,0,.06,0,.12.02.1.01.17.01.21,0,.04,0,.06-.02.05-.06-.01-.14.36-.61,1.12-1.42.76-.81,1.22-1.23,1.37-1.24.12-.01.17-.07.16-.16-.01-.14.49-.63,1.5-1.47,1.01-.85,1.61-1.28,1.81-1.3.04,0,.09,0,.15.02h.03s.06-.03.05-.07-.03-.11-.08-.2c-.03-.06-.04-.09-.04-.11l.03-.03s.1.04.19.13c.09.09.14.19.15.31,0,.1,0,.18-.05.26-.04.07-.08.11-.12.12h-.03s-.06-.02-.06-.02c-.19.02-1.34,1.11-3.45,3.27-2.11,2.16-3.6,3.97-4.48,5.41-.35.49-.58.74-.7.75l-.03-.03s.02-.11.07-.21l.05-.09-.03-.03s-.09.03-.14.07c-.06.05-.08.1-.07.15,0,.04.04.1.1.17.09.07.13.14.14.19,0,.08-.09.23-.28.44-.22.18-.32.32-.31.41,0,.04.02.06.04.06,0,.02-.04.05-.11.1-.09.05-.14.1-.13.16,0,.06-.12.43-.36,1.13-.37,1.02-.56,1.59-.54,1.71.01.12.11.17.31.15.27-.03.46-.07.55-.14,0-.02.12-.1.36-.24,1.61-.88,3.2-2.02,4.78-3.42.56-.51,1.72-1.79,3.47-3.85,1.75-2.06,3.4-4.06,4.94-5.99,1.55-1.93,2.31-2.97,2.3-3.13-.02-.19-.23-.33-.63-.41-.4-.08-.77-.1-1.1-.07-.55.05-1.49.44-2.84,1.15-1.35.71-2.13,1.22-2.33,1.51-.07.13-.34.37-.82.73-.48.36-.75.55-.83.55-.1,0-.91.81-2.44,2.41-1.53,1.6-2.58,2.8-3.15,3.6-.94,1.31-1.75,2.72-2.46,4.21-.7,1.5-1.03,2.5-.98,3.01.02.18.09.26.23.24Z"/>
    <path class="cls-2" d="M1450.63,292.89c-.96-.5-1.85-1.16-2.66-1.97s-1.31-1.63-1.51-2.44c-.19-.69-.32-1.44-.39-2.24-.22-2.22-.02-4.74.58-7.55.6-2.81,1.57-5.66,2.91-8.57.39-.87.78-1.82,1.18-2.86.4-1.04.59-1.63.58-1.77l-.06-.02c-.14.01-.32.33-.56.94-.17.45-.3.68-.38.69-.12.01-.35.4-.7,1.16-.35.76-.81,1.83-1.39,3.21-.66,1.52-1.01,2.28-1.05,2.29-.02-.18.17-.79.58-1.84.4-1.05.66-1.6.77-1.66.05-.04.09-.11.1-.19.04-.38.24-.93.61-1.65.34-.74.64-1.39.9-1.95.15-.29.27-.55.37-.77-.51.25-.85.4-1.03.47-.18.07-.38.11-.59.13l-.09-.02s-.08.05-.14.13c-.19.26-.49.45-.89.59-.43.2-.69.37-.78.52-.02.02-.04.03-.06.04l-.06-.02c-.06-.01-.1-.02-.12-.02s-.05.02-.08.07c-.07.14-.22.26-.47.34-.26.13-.39.23-.38.3,0,.02.02.05.04.08v.03s0,.03-.02.03l-.09-.02s-.06-.02-.12-.02c-.12.01-1.07.94-2.86,2.79-1.11,1.17-1.69,1.76-1.75,1.77,0-.02,0-.04.02-.06v-.03s-7.68,10.35-7.68,10.35c-.24.34-.85,1.22-1.81,2.66-1.74,2.59-3.17,4.68-4.31,6.28s-1.84,2.41-2.11,2.43c-.16-.02-.24-.06-.25-.09,0-.04-.19-.12-.55-.24-.79-.26-1.32-.51-1.58-.76.49-3.67.94-6.1,1.36-7.28-.02-.18.39-1.51,1.23-4.02.36-1.12.54-1.69.54-1.71-.03-.27.55-2.06,1.74-5.37,1.19-3.31,1.91-5.12,2.18-5.44.05-.06.2-.39.45-.99.25-.59.36-.97.35-1.13,0-.06-.02-.1-.04-.11,0-.02,0-.04,0-.06h.06s.04.02.06.02c.08,0,.21-.18.39-.53.18-.34.45-.91.81-1.69.08-.19.15-.33.19-.43.98-1.89,1.46-2.95,1.43-3.18,0-.02-.01-.05-.04-.09,0-.02,0-.04,0-.06,0-.08.06-.16.21-.26l.03.03s-.02.07-.07.16l-.02.09.03.03.08-.07c.09-.05.13-.14.12-.28l-.08-.23.02-.06.03.03s.07.02.09.02c.16-.01.38-.36.67-1.04.19-.43.33-.69.4-.78.06-.03.08-.11.07-.24,0-.02-.02-.07-.04-.14-.03-.06-.04-.1-.04-.14-.01-.14.02-.22.09-.24.02-.02.05-.03.08-.04l.03.03s-.02.08-.07.18l-.05.09s.13-.08.26-.22c.13-.14.2-.24.19-.3-.02,0-.06.03-.11.07-.06.03-.09.04-.11.04-.06,0-.09-.02-.1-.08,0-.08.04-.18.15-.31.11-.13.21-.2.31-.21l.06.02h.03s.03-.05.02-.12c-.01-.16.04-.29.17-.4.07-.07.1-.14.1-.22-.02-.19.41-.93,1.3-2.19.55-.78.83-1.21.82-1.29,0-.02-.02-.06-.04-.11v-.06s0-.06.02-.06l.06.02c.1,0,.2-.08.32-.21.11-.13.17-.21.17-.25-.02,0-.07.03-.14.07l-.09.04c0-.08.23-.47.71-1.18s.78-1.07.9-1.08l.09.05s.03-.01.03-.03c0-.02,0-.04,0-.06-.02-.02-.03-.04-.04-.06-.02-.18.22-.61.71-1.31s.82-1.06.97-1.1c.1,0,.14-.04.14-.1,0-.02-.01-.05-.04-.09-.02-.04-.04-.06-.04-.08,0-.06.03-.09.11-.1.08,0,.11-.04.11-.1,0-.04-.02-.09-.04-.14l-.03-.06s0-.06.02-.06.06,0,.12.02c.08.03.14.04.18.04.08,0,.11-.04.11-.1-.02-.16.28-.6.89-1.34.61-.74,1.3-1.43,2.09-2.08.78-.65,1.48-1,2.08-1.06.78-.08,1.6.14,2.45.65s1.63,1.24,2.31,2.2c.27.37.61.59,1.01.67.1.03.18.06.23.1.05.03.08.1.09.2.02.21-.07.38-.28.48-.21.11-.4.17-.57.19-.21.02-.65.47-1.3,1.34-.65.87-1.52,2.1-2.61,3.68-1.17,1.71-1.87,2.66-2.09,2.86-.11.11-.16.17-.16.19s.01.03.03.03l-.54.88c-2.87,4.73-4.75,7.95-5.65,9.68-.35.66-.54,1.01-.58,1.03-.02.02-.18.34-.5.96-1.56,3.01-3.47,6.63-5.74,10.87,2.64-3.21,4.85-5.81,6.61-7.79,1.77-1.98,3.47-3.67,5.11-5.07,1.64-1.4,3.21-2.43,4.72-3.09.06-.03.15-.06.28-.12.68-.26,1.02-.44,1.01-.54,0-.04-.08-.1-.22-.19-.17-.1-.25-.17-.26-.21,0-.02.02-.03.06-.04.25-.02.81.3,1.66.96s1.64,1.44,2.37,2.33c.73.88,1.12,1.68,1.19,2.38.02.18-.01.57-.09,1.19s-.19.97-.34,1.07c-.04,0-.06.02-.06.03,0,.04.06.05.18.04l.32-.03s-.08.07-.14.13c-.25.22-.37.41-.36.57,0,.04.02.1.05.17.02.04.04.07.04.08,0,.08-.03.16-.12.25-.11.09-.16.18-.15.28,0,.02.01.05.04.08,0,.02,0,.04,0,.06,0,.1-.1.24-.31.41-.14.13-.21.23-.21.29l.03.06c0,.08-.06.28-.21.61-.14.35-.21.56-.2.64l.04.06.03.03c0,.06-.16.12-.51.17-.1,0-.17.02-.21.02.02,0,.04,0,.06.02.3.07.46.13.46.19,0,.06-.07.1-.23.11-.08,0-.15,0-.21,0-.04,0-.07,0-.09,0,0,.06.08.16.21.31.07.07.1.12.1.14-.02,0-.06,0-.12-.02-.04-.01-.07-.02-.09-.02-.06,0-.09.07-.1.19-.02.2-.09.36-.22.46-.11.13-.15.25-.14.37,0,.02.02.05.04.08.02.04.04.07.04.08,0,.1-.06.19-.21.29-.11.09-.16.16-.16.22,0,.02.01.05.04.09l.03.03s-.02.04-.05.06c-.19.12-.3.34-.35.68-.12.41-.24.61-.35.63-.04,0-.1-.04-.19-.13h-.03s0,.03,0,.03c.03.06.04.1.04.14.01.14-.03.41-.13.81-.07.3-.1.49-.09.57,0,.04.03.08.07.11,0,.02-.03.04-.08.07-.12.03-.17.08-.16.16l.04.09c.01.14-.02.3-.1.48-.08.19-.15.28-.21.29l.02-.06c.01-.06.02-.1.02-.12,0-.06-.04-.08-.1-.08-.12.01-.2.15-.26.41,0,.06.04.09.1.11.02,0,.03,0,.03.03s-.05.16-.17.43c-.44.97-.64,1.58-.62,1.83,0,.04.02.1.04.17.02.04.04.06.04.08,0,.06-.01.09-.05.09-.02,0-.08-.01-.18-.04-.12-.03-.2-.04-.24-.04,0,.02.05.08.13.16.11.11.16.18.17.22,0,.02-.03.03-.09.04-.02,0-.09,0-.21,0-.1,0-.17-.01-.21,0-.04,0-.06.02-.06.03.1.05.16.11.17.19.03.25-.07.49-.29.71-.11.09-.16.16-.16.22,0,.02.01.03.03.03.02.02.04.03.06.03.1,0,.15.04.16.16.01.12-.03.24-.11.37-.1.15-.15.31-.13.49,0,.04.01.11.02.21.04.19.06.34.07.44.02.25,0,.38-.08.39-.23.02-.34.13-.32.33,0,.04.03.06.06.05l.17-.11h.03s-.03.07-.1.15c-.18.2-.26.33-.26.41,0,.06.02.1.04.11.13.09.22.46.29,1.12.02.2.08.32.18.37.02.02.03.04.04.06,0,.04-.04.13-.12.28-.1.15-.15.24-.15.28,0,.04.03.07.07.08.08.01.22.24.42.7.28.66.5.99.65.97.06,0,.09.01.09.05l-.02.12c.03.27.24.51.63.71.39.2.91.4,1.54.62.49.15.73.25.74.31.01.1-.08.18-.27.25-.19.07-.4.11-.64.14-.63.06-1.42-.16-2.38-.65Z"/>
    <path class="cls-2" d="M1464.81,295.93c-.43-.07-.69-.17-.78-.32-.06-.05-.11-.08-.13-.08l-.03.03s0,.03-.03.03c-.12.01-.48-.17-1.09-.54-.42-.27-.66-.41-.72-.4-.06,0-.33-.29-.83-.89-.2-.24-.31-.36-.33-.38-.5-.31-1-1.18-1.5-2.63-.49-1.45-.82-2.94-.97-4.48-.12-1.19-.08-2.63.1-4.32.18-1.69.35-2.88.5-3.56.26-1.23.6-2.77,1.03-4.62-.04,0-.06-.02-.07-.08-.05-.51.8-2.85,2.54-7.04s3.3-7.63,4.67-10.32c.7-1.33,1.04-2.09,1.02-2.29,0-.04-.02-.06-.04-.05s-.08.05-.19.14c-.11.11-.18.16-.22.17-.02,0-.04-.02-.07-.08-.06,0-.18.19-.36.54-.18.35-.27.59-.26.7,0,.02.01.05.04.09v.03c-.08,0-.17-.01-.27-.06h-.03s-.03.03-.02.07c.03.14.07.23.12.28v.03s0,.06-.02.06l-.03-.03c-.57,1-1,1.75-1.29,2.25l-.08.13c.22-.38-.22.44-1.33,2.43l.03.03s.06,0,.06.02c0,.06-.18.49-.55,1.3-.83,1.81-1.55,3.49-2.17,5.02-.24.61-.46,1.09-.66,1.42-.07.12-.1.24-.09.33.01.12-.04.2-.15.25l-.03-.03c-.03-.25.4-1.44,1.28-3.55.88-2.11,1.52-3.5,1.93-4.15.19-.29.28-.49.27-.59v-.03s-.03,0-.03-.03c-.03-.25.61-1.58,1.92-4,.54-.98.8-1.48.8-1.52,0-.1.07-.27.24-.53.1-.15.15-.24.15-.28,0-.06-.07-.08-.18-.07-.33.03-1.72.39-4.17,1.07-2.44.68-4.32,1.21-5.62,1.59-.1.03-.23.08-.4.16-.23.1-.39.16-.49.17-.06,0-.13,0-.21,0-.08-.01-.13-.02-.15-.01-.08,0-.11.03-.11.07,0,.08-.47.29-1.45.63-.97.34-1.62.53-1.96.56-.06,0-.11,0-.15-.01-.02-.02-.04-.03-.06-.03h-.03c-.01.06-.3.21-.86.46-.56.24-1.75.69-3.58,1.34-.04-.02-.1-.04-.18-.07-.27-.11-.44-.2-.53-.26-.08-.06-.13-.15-.14-.27-.02-.23.05-.83.21-1.79.09-.54.13-.84.12-.9,0-.04-.02-.09-.04-.14,0-.02,0-.04,0-.06-.02-.23.57-.71,1.78-1.41,1.48-.93,3.43-1.8,5.85-2.59,2.42-.8,5.57-1.6,9.47-2.41.81-.16,1.77-.33,2.88-.51.12-.01.28-.04.49-.08.93-.17,1.56-.32,1.9-.46s.65-.4.91-.78c.27-.38.71-1.13,1.33-2.26.15-.29.26-.52.35-.68.63-1.2,1.27-2.34,1.91-3.4s1.01-1.6,1.08-1.61c0,.08-.2.49-.62,1.24-.35.61-.53.94-.52,1l.03.03s-.04.08-.14.13c-.17.12-.24.23-.23.35.02.02.03.05.04.08,0,.06-.03.09-.11.1s-.11.04-.11.1l.04.06c.03.06.04.1.04.12,0,.02-.02.03-.06.03-.08,0-.15.06-.21.17-.06.11-.16.3-.31.59-.36.74-.71,1.4-1.05,1.96-.88,1.46-1.31,2.31-1.29,2.55,0,.06.04.09.1.08.12-.01.34-.3.67-.88.33-.57.8-1.45,1.41-2.63.75-1.43,1.35-2.54,1.8-3.32.46-.78.79-1.24,1.02-1.38l.47-.31c.41.2.81.52,1.2.96s.6.86.64,1.25c0,.02,0,.04-.02.06,0,.04,0,.07,0,.09,0,.02.02.05.07.08.19.1.34.31.48.63.13.34.27.56.42.67.06.05.1.16.12.31.05.55-.06,1.46-.35,2.75-.11.44-.17.71-.16.78l.06.02c.18-.02.33-.24.47-.68.13-.44.26-1.01.39-1.74.1-.6.17-.9.21-.91.08,0,.15.04.22.16.07.11.11.28.14.49.03.29-.01.77-.13,1.43-.08.56-.12.95-.09,1.16,0,.08.02.12.04.11s.04-.02.05-.07c.05-.12.12-.19.22-.2.04,0,.13,0,.27.03.16.02.28.03.36.02.08,0,.14-.03.2-.08.05-.06.13-.1.23-.11h.06c.26.03.86,0,1.79-.09.8-.08,1.47-.08,2.01-.02.22.04.41.05.56.03.25-.03.44-.09.57-.21.04-.04.06-.06.08-.07.02,0,.05,0,.09.02.42.1,1.5.11,3.22.04.79-.02,1.29.04,1.52.18.04.02.07.02.09.02s.05-.01.09-.04c.09-.05.21-.08.34-.09.9-.09,2.68.14,5.35.68,2.67.54,4.43,1.03,5.28,1.48.42.23.75.57,1.01,1.01.26.44.41.91.46,1.42.07.68-.06,1.26-.36,1.73-.31.47-.61.72-.9.75-.08,0-.12-.03-.13-.11,0-.1.05-.29.18-.58.23-.46.34-.81.31-1.06-.08-.8-1.12-1.36-3.12-1.69-2-.33-4.42-.47-7.25-.42s-5.59.2-8.29.46c-1.42.14-3.1.36-5.02.66-.53.07-.94.13-1.25.18-2.29,4.63-4.28,8.83-5.97,12.57-1.69,3.75-3.17,7.32-4.44,10.73-1.26,3.4-2.21,6.53-2.84,9.37-.63,2.85-.84,5.32-.64,7.4.09.92.32,1.78.69,2.59.1.21.15.34.16.4,0,.06.31.12.9.18.86.09,1.29.2,1.3.32,0,.08-.23.14-.72.19-.57.05-1.06.05-1.49-.02Z"/>
    <path class="cls-2" d="M1492.13,286c-2.6,2.4-5.1,3.71-7.48,3.94-.57.06-1.04.06-1.42,0-.38-.05-.91-.18-1.6-.39-.47-.13-.85-.23-1.15-.3-1.84-.45-3.35-1.33-4.54-2.63-.95-1.03-1.63-2.17-2.05-3.42s-.74-2.61-.96-4.09c-.04-.19-.06-.33-.07-.41-.06.22-.11.42-.15.61l-.02.15s-.07-.08-.08-.26c-.07-.68.03-1.68.29-3,.26-1.31.47-2.28.65-2.88,0-.14.06-.24.18-.31.11-.09.16-.21.14-.37-.01-.12,0-.2.04-.24.03-.04.09-.09.16-.13.19-.1.32-.23.41-.39.1-.21.19-.31.26-.32h.03s.03.05.03.05c0,.08-.02.17-.09.28-.6.91-1.03,2.09-1.29,3.55-.26,1.46-.36,2.55-.29,3.28,0,.04.02.06.04.06l.1-.48c.65-3.47,1.52-6.12,2.63-7.94,1-1.69,2.17-3.38,3.53-5.07.3-.36.45-.56.44-.6-.26.16-1.03,1.04-2.3,2.62-1.28,1.58-2.06,2.78-2.35,3.6-.09.26-.2.4-.31.41-.08,0-.12-.05-.13-.16,0-.04.02-.08.08-.12.15-.08.27-.24.36-.51.25-.69.96-1.82,2.14-3.37,1.18-1.55,2.27-2.79,3.29-3.72,1.41-1.3,3.11-2.49,5.1-3.58,1.99-1.09,3.64-1.7,4.95-1.82.98-.09,1.88.09,2.71.56.83.47,1.66,1.29,2.48,2.45.23.31.57.58,1.02.79.25.09.42.2.53.32.11.12.18.29.2.53.08.86-.49,2.03-1.73,3.52-1.23,1.49-2.87,3.03-4.91,4.63-2.04,1.6-4.17,2.96-6.38,4.1-.02,0-.05.01-.08.04-.47.2-.81.42-1,.66s-.57.86-1.12,1.88c-.04.04-.06.08-.08.12-.67,1.25-1.19,2.47-1.58,3.65-.39,1.19-.52,2.42-.4,3.69.1,1.07.31,1.87.62,2.39.31.52.85.75,1.63.67,1.09-.11,1.89-.28,2.4-.53.06-.04.09-.07.11-.07.06,0,.09.04.1.14,0,.08.03.12.07.11l.08-.07c.2-.2.4-.31.62-.33.35-.03,1.29-.55,2.8-1.54h.03c1.33-.88,2.16-1.49,2.48-1.84.04-.02.08-.04.11-.04.04,0,.06.02.07.08,0,.06-.24.3-.73.72-.75.63-1.11,1.01-1.1,1.17,0,.02.02.03.06.02.1,0,.25-.12.47-.34.21-.24.37-.36.47-.37.02,0,.05,0,.09.02.02.02.04.03.06.02.04,0,.38-.35,1.04-1.05.65-.69.97-1.08.97-1.16,0-.04-.04-.07-.1-.08-.08-.03-.13-.07-.13-.11,0-.02.01-.05.05-.09.02-.04.05-.06.11-.07.04,0,.1.02.18.07.04.04.08.05.12.05.16-.01.45-.28.9-.81.44-.53.66-.86.64-.99v-.03s-.04-.03-.04-.03c-.08,0-.26.22-.56.64-.47.68-.8,1.02-.99,1.04-.06,0-.09-.02-.1-.08,0-.04.25-.35.77-.93,1.04-1.2,1.56-1.86,1.55-1.98,0-.1.03-.15.13-.16.06,0,.09.07.11.23,0,.08,0,.18,0,.29-.02.04-.02.07-.02.09l.03.03.38-1.22c.06,0,.09.02.1.08l-.02.06s-.02.07-.02.09c0,.08.08.11.22.1.14-.01.21-.06.22-.14v-.15c-.04-.25,0-.39.1-.39l.06.02s.07.02.09.02c.1,0,.15-.08.16-.22.05-.12.11-.19.19-.2,0,.02.01.03.03.03.02,0,.04,0,.06,0h.03s.06-.05.08-.13c.02-.16.08-.29.17-.4.05-.08.13-.21.23-.38.29-.5.5-.85.65-1.05.15-.2.28-.31.4-.32.1,0,.15.06.17.22.02.21-.06.52-.24.91-1.66,3.61-3.79,6.61-6.39,9.01ZM1486,272.66c.82-.67,1.63-1.44,2.43-2.31,1.18-1.2,2.3-2.49,3.35-3.88,1.05-1.39,1.61-2.32,1.68-2.78-.01-.16,0-.29.05-.42.02-.02.03-.04.02-.06.02-.02.04-.05.08-.1l.02-.06c.12-.15.18-.25.18-.31,0-.04-.04-.05-.09-.05-.25.02-.72.33-1.4.92s-1.43,1.35-2.25,2.27l-2.88,3.5c-.03.06-.08.12-.13.16l-.07.15c-.3.37-.79,1.07-1.46,2.12-.68,1.05-1.01,1.66-.99,1.84,0,.02.01.03.03.03.14-.01.62-.36,1.44-1.03Z"/>
    <path class="cls-2" d="M1544.02,283.84c-.96-.5-1.85-1.16-2.66-1.97-.81-.82-1.31-1.63-1.51-2.44-.19-.69-.32-1.44-.39-2.24-.22-2.22-.02-4.74.58-7.54.6-2.81,1.57-5.66,2.9-8.57.39-.87.78-1.82,1.19-2.86.4-1.04.59-1.63.58-1.77l-.06-.02c-.14.01-.32.33-.56.94-.17.45-.3.68-.38.69-.12.01-.35.4-.7,1.16-.35.76-.81,1.83-1.39,3.21-.66,1.52-1.01,2.28-1.05,2.29-.02-.18.17-.79.57-1.84.4-1.05.66-1.6.77-1.66.05-.04.09-.11.1-.19.04-.38.24-.93.61-1.65.34-.74.64-1.39.91-1.95.15-.29.27-.55.37-.77-.51.25-.85.4-1.03.47-.18.07-.38.11-.59.13l-.09-.02s-.08.05-.13.13c-.19.26-.49.45-.89.59-.43.2-.69.37-.78.52-.02.02-.04.03-.06.04l-.06-.02c-.06-.01-.1-.02-.12-.02-.02,0-.05.02-.08.07-.07.14-.22.26-.47.34-.26.13-.39.23-.38.3,0,.02.01.05.04.08v.03s0,.03-.02.03l-.09-.02s-.06-.02-.12-.02c-.12.01-1.07.94-2.86,2.79-1.11,1.17-1.69,1.76-1.75,1.76,0-.02,0-.04.02-.06v-.03s-7.68,10.35-7.68,10.35c-.24.34-.85,1.22-1.81,2.66-1.74,2.59-3.17,4.68-4.31,6.28s-1.84,2.41-2.11,2.43c-.16-.02-.24-.06-.25-.09,0-.04-.19-.12-.56-.24-.79-.26-1.32-.51-1.58-.76.49-3.67.94-6.1,1.36-7.28-.02-.18.39-1.51,1.23-4.02.36-1.12.55-1.69.54-1.71-.03-.27.55-2.06,1.74-5.37,1.19-3.31,1.91-5.12,2.18-5.44.05-.06.2-.39.45-.99.25-.59.36-.97.35-1.13,0-.06-.02-.1-.04-.11,0-.02,0-.04,0-.06h.06s.04.02.06.02c.08,0,.21-.18.39-.53.18-.34.45-.91.81-1.69.08-.19.15-.33.19-.43.98-1.89,1.46-2.95,1.43-3.18,0-.02-.02-.05-.04-.09,0-.02,0-.04,0-.06,0-.08.06-.16.21-.26l.03.03s-.02.07-.07.16l-.02.09.03.03.08-.07c.09-.05.13-.14.12-.28l-.08-.23.02-.06.03.03s.07.02.09.02c.16-.01.38-.36.67-1.04.19-.43.33-.69.4-.78.06-.03.08-.11.07-.24,0-.02-.02-.07-.04-.14-.03-.06-.04-.1-.04-.14-.01-.14.02-.22.09-.24.02-.02.04-.03.08-.04l.03.03s-.02.08-.07.18l-.05.09s.13-.08.26-.22c.14-.14.2-.24.19-.3-.02,0-.06.03-.11.07-.06.03-.09.04-.11.04-.06,0-.09-.02-.1-.08,0-.08.04-.18.15-.31.11-.13.21-.2.3-.21l.06.02h.03s.03-.05.02-.12c-.01-.16.04-.29.17-.4.07-.07.11-.14.1-.22-.02-.19.41-.93,1.29-2.19.55-.78.83-1.21.82-1.29,0-.02-.02-.06-.04-.11v-.06s0-.06.02-.06l.06.02c.1,0,.2-.08.32-.21.12-.13.17-.21.17-.25-.02,0-.07.03-.14.07l-.09.04c0-.08.23-.47.71-1.18.48-.71.78-1.07.9-1.08l.09.05s.03-.01.03-.03c0-.02,0-.04,0-.06-.02-.02-.03-.04-.04-.06-.02-.18.22-.61.71-1.31.49-.7.82-1.06.97-1.1.1,0,.14-.04.14-.1,0-.02-.01-.05-.04-.09-.02-.04-.04-.06-.04-.08,0-.06.03-.09.11-.1.08,0,.11-.04.11-.1,0-.04-.02-.09-.04-.14l-.04-.06s0-.06.03-.06c.02,0,.06,0,.12.02.08.03.14.04.18.04.08,0,.11-.04.11-.1-.02-.16.28-.6.89-1.34.61-.74,1.3-1.43,2.09-2.08.78-.65,1.48-1,2.08-1.06.78-.08,1.6.14,2.46.65.86.51,1.63,1.24,2.31,2.2.27.37.61.59,1.01.67.1.03.18.06.23.1.05.03.08.1.09.2.02.21-.07.38-.28.48-.21.11-.4.17-.57.19-.21.02-.65.47-1.3,1.34-.65.87-1.53,2.1-2.61,3.68-1.17,1.71-1.87,2.66-2.09,2.86-.11.11-.16.17-.16.19s.01.03.03.03l-.53.88c-2.87,4.73-4.75,7.95-5.65,9.68-.35.66-.54,1.01-.58,1.03-.02.02-.18.34-.5.96-1.56,3.01-3.47,6.63-5.74,10.87,2.64-3.21,4.85-5.81,6.61-7.79,1.77-1.98,3.47-3.67,5.11-5.07,1.64-1.4,3.21-2.43,4.72-3.09.06-.03.15-.06.28-.12.68-.26,1.02-.44,1.01-.54,0-.04-.08-.1-.23-.19-.17-.1-.25-.17-.26-.21,0-.02.02-.03.06-.04.25-.02.81.3,1.66.96.85.67,1.64,1.44,2.37,2.33.73.88,1.12,1.68,1.19,2.38.02.18-.01.57-.09,1.19-.08.62-.19.97-.34,1.07-.04,0-.06.02-.06.03,0,.04.06.05.18.04l.32-.03s-.08.07-.14.13c-.25.22-.37.41-.36.57,0,.04.02.1.05.17.02.04.04.07.04.08,0,.08-.03.16-.12.25-.11.09-.16.18-.15.28,0,.02.01.05.04.08,0,.02,0,.04,0,.06,0,.1-.09.24-.31.41-.14.13-.21.23-.21.29l.04.06c0,.08-.06.28-.21.61-.14.35-.21.56-.2.64l.04.06.03.03c0,.06-.17.12-.52.17-.1,0-.17.02-.21.02.02,0,.04,0,.06.02.3.07.46.13.46.19,0,.06-.07.1-.23.11-.08,0-.15,0-.21,0-.04,0-.07,0-.09,0,0,.06.08.16.21.31.07.07.1.12.1.14-.02,0-.06,0-.12-.02-.04-.02-.07-.02-.09-.02-.06,0-.09.07-.1.19-.02.2-.09.36-.22.46-.11.13-.15.25-.14.37,0,.02.01.05.04.08.02.04.04.07.04.08,0,.1-.06.19-.21.29-.11.09-.16.16-.16.22,0,.02.02.05.04.09l.03.03s-.02.04-.05.06c-.19.12-.3.34-.35.68-.12.41-.24.61-.35.63-.04,0-.1-.04-.19-.13h-.03s0,.03,0,.03c.03.06.04.1.04.14.01.14-.03.41-.13.81-.07.3-.1.49-.09.57,0,.04.03.08.07.11,0,.02-.03.04-.08.07-.11.03-.17.09-.16.16l.04.09c.01.14-.02.3-.1.48-.08.19-.15.28-.21.29l.02-.06c.01-.06.02-.1.02-.12,0-.06-.04-.08-.1-.08-.12.01-.2.15-.26.41,0,.06.04.09.1.11.02,0,.03,0,.03.03s-.05.16-.17.43c-.44.97-.64,1.58-.62,1.83,0,.04.02.1.05.17.02.04.04.06.04.08,0,.06-.01.09-.05.09-.02,0-.08-.01-.18-.04-.12-.03-.2-.04-.24-.04,0,.02.05.08.14.16.11.11.16.18.17.22,0,.02-.03.03-.09.04-.02,0-.09,0-.21,0-.1,0-.17-.01-.21,0s-.06.02-.06.03c.1.05.16.11.17.19.02.25-.07.49-.29.71-.11.09-.16.16-.16.22,0,.02.01.03.03.03.02.02.04.03.06.03.1,0,.15.04.16.16.01.12-.03.24-.11.37-.1.15-.15.31-.13.49,0,.04.01.11.02.21.04.19.06.34.07.44.03.25,0,.38-.08.39-.23.02-.34.13-.32.33,0,.04.02.06.06.05l.17-.11h.03s-.03.07-.1.15c-.18.2-.26.33-.26.41,0,.06.02.1.04.11.13.09.22.46.29,1.12.02.2.08.32.18.37.02.02.03.04.03.06,0,.04-.04.13-.12.28-.1.15-.15.24-.15.28,0,.04.03.07.07.08.08.01.22.24.42.7.28.66.5.99.66.97.06,0,.09.01.09.05l-.02.12c.03.27.24.51.63.71.39.2.91.4,1.54.62.49.15.73.25.74.31,0,.1-.08.18-.27.25-.19.07-.4.11-.64.14-.62.06-1.42-.16-2.38-.65Z"/>
    <path class="cls-2" d="M1579.36,280.29c-1.1-.29-2.22-.93-3.36-1.92-.41-.35-.8-.79-1.16-1.31-.36-.51-.56-.89-.58-1.12,0-.02,0-.06-.01-.12.01-.06.02-.11.02-.15-.02-.18-.09-.36-.2-.54-.14-.26-.28-.6-.4-1.02-.12-.42-.23-1.14-.33-2.15-.19-1.93-.21-3.7-.07-5.3.14-1.6.34-3.19.6-4.77.14-.76.21-1.21.19-1.35,0-.06-.03-.09-.07-.08-.12.01-.26.4-.42,1.16-.16.64-.27.97-.35.98-.04,0-.06.16-.07.48.01.55-.03.88-.14.99-.11.09-.16.17-.15.25.03.25-.05,1.48-.23,3.69-.01.08,0,.47.06,1.18.05.94.09,1.69.1,2.26.01.57,0,.86-.06.86-.06,0-.12-.34-.19-1.04-.25-2.53-.21-5.09.11-7.66.04-.38.06-.6.06-.66-.04,0-.28.31-.71.93-.34.51-.53.76-.55.76l-.03-.03c.1-.19.15-.31.14-.37,0-.08-.04-.11-.1-.11-.1,0-.2.11-.29.31-.1.2-.14.36-.13.5,0,.08.03.12.07.11.02,0,.05-.02.08-.04.09-.05.15-.08.17-.08,0,.08-.13.25-.42.51,0-.02,0-.06.02-.12.01-.08.02-.13.02-.15,0-.04-.03-.06-.06-.05-.14.01-.3.15-.48.42-.18.26-.41.66-.7,1.18-.3.54-.51.9-.63,1.07-.92,1.13-1.5,1.94-1.75,2.41-.03.06-.06.09-.08.1-.1,0-.32.2-.67.58s-.52.6-.51.66c.02,0,.06-.04.14-.1.07-.05.12-.07.14-.07,0,.04-.1.19-.31.46-.21.27-.34.4-.37.41-.02,0-.03,0-.03-.03,0-.02.02-.07.07-.15l.02-.09c-.06,0-.16.09-.3.25-.14.16-.21.29-.2.39l.04.06c.01.12-.05.16-.19.14-.04,0-.1.1-.18.28-.13.31-.23.47-.31.47l-.03-.03.02-.09c.05-.1.07-.16.07-.18,0-.04-.01-.06-.03-.06-.12.01-.48.35-1.08,1.02-1.19,1.34-2.2,2.29-3.03,2.86-.2.14-.3.25-.29.32,0,.02.01.04.04.06.02.02.03.04.04.06,0,.08-.07.17-.24.29-.17.12-.33.18-.48.19-.08,0-.13,0-.15-.01-.02,0-.04,0-.06-.02-.02-.02-.04-.03-.06-.02-.02,0-.03.01-.03.03l.03.06s.04.07.04.09c.01.12-.15.24-.48.36-.33.12-.71.2-1.14.24-.62.06-1.11.02-1.46-.13-1.28-.56-2.28-1.13-3.02-1.69-.73-.56-1.28-1.2-1.65-1.91-.36-.71-.6-1.58-.69-2.59-.16-1.62.16-3.54.95-5.76.79-2.22,1.92-4.42,3.38-6.61,1.46-2.18,3.08-4.02,4.84-5.53.91-.8,1.36-1.25,1.35-1.37l-.03-.03s.06,0,.12.02c.08.01.14.02.18.01.16-.02.38-.17.66-.48.09-.11.14-.16.16-.16.02,0,.03,0,.03.03l.03.03.03-.03c.55-.45,2.2-1.3,4.95-2.55l1.47-.05c1.14-.07,2.26.14,3.38.62,1.12.48,2,1.14,2.63,1.96.27.35.45.52.55.51.14-.01.31-.26.52-.73.54-1.15,1.35-2.41,2.43-3.75s1.81-2.04,2.18-2.07c.12-.01.18.05.19.19,0,.1-.08.17-.28.2-.19.02-.7.53-1.51,1.52-.81.99-1.55,2.03-2.21,3.12s-.97,1.87-.93,2.34c.02.16.06.23.14.22.08,0,.45-.5,1.13-1.47,1.02-1.48,1.94-2.71,2.77-3.68.83-.98,1.58-1.5,2.24-1.56.29-.03.58.03.87.17.29.14.59.33.91.58.26.19.41.28.47.28.1,0,.15.03.16.1v.21c0,.18.07.28.17.31.02,0,.04-.01.06-.04.12-.01.25.09.38.32.09.17.17.25.23.24.06,0,.08-.04.08-.1,0-.04-.02-.07-.04-.08l-.04-.06c0-.08.03-.12.11-.13.12-.01.18.04.19.16,0,.08-.03.16-.12.25-.11.13-.15.24-.14.34.01.14.07.2.17.19l.11-.04c.1,0,.18.08.23.27.02.18-.02.27-.12.28-.02-.02-.05-.03-.09-.02-.06,0-.08.04-.08.1,0,.1.1.14.28.12.21-.02.31-.1.3-.24,0-.04-.02-.11-.05-.2-.03-.1-.04-.15-.05-.17,0-.04,0-.06.02-.06s.1.11.25.33c.15.22.23.36.23.42,0,.02,0,.03-.03.03h-.03s-.07-.02-.09-.02c-.06,0-.15.12-.26.35-.13.25-.25.38-.35.39l-.06-.02c-.3.6-.44.92-.44.96l.04.11-.09.04s-.07,0-.15-.01c-.08-.01-.14-.02-.18-.01-.1,0-.14.04-.14.1,0,.04.02.09.04.14.02.04.04.07.04.08.01.12-.08.26-.28.44s-.29.31-.29.41c.01.14-.08.26-.29.38-.17.06-.28.16-.33.3-.01.06-.04.09-.08.1-.1,0-.17-.01-.21-.07-.02,0-.03.01-.03.03l.07.08c.16.22.25.39.26.51,0,.08,0,.12-.05.12-.1-.05-.16-.1-.16-.16,0-.04,0-.09.02-.15l.02-.06-.03-.03c-.15.11-.21.23-.2.34,0,.02.01.05.04.09v.03c.01.08-.11.13-.37.15-.2.02-.29.06-.28.12v.06s.04,0,.04.03c0,.04-.03.07-.11.1-.08,0-.11.04-.11.1.01.14.1.2.25.18.06,0,.1-.03.14-.07l-.08.09c-.28.4-.41.68-.39.84,0,.02.01.05.04.09v.03c0,.06-.02.09-.08.1-.02,0-.05,0-.09-.02-.04-.02-.08-.02-.12-.02-.1,0-.16.06-.19.14-.01.1-.07.16-.19.17-.12.01-.22.1-.3.27-.08.17-.12.3-.11.39,0,.02.01.03.03.03l.11-.04s-.04.09-.13.22c-.23.32-.33.53-.33.62l.07.11s-.03.04-.08.07c-.15.06-.22.15-.21.29.01.12-.06.18-.22.2l-.21.02c-.1,0-.14.03-.14.07,0,.04.02.08.04.11.03.12.11.17.22.16l.11-.04-.13.19c-.44.56-.65.92-.63,1.1.02.19-.01.38-.09.57s-.17.28-.27.29c-.08,0-.12-.02-.13-.08,0-.02,0-.05.02-.09l.02-.06s-.03-.06-.06-.05c-.08,0-.16.06-.24.14-.08.09-.12.17-.11.25,0,.06.04.08.1.08.04,0,.08-.02.11-.04.04,0,.07,0,.09,0,.1-.01.15,0,.15.04,0,.04-.06.12-.18.25-.11.13-.16.21-.15.25,0,.02.03.03.09.02.12,0,.18.06.19.16,0,.08-.02.12-.08.13-.02,0-.06,0-.12-.02l-.06-.02s-.06.03-.05.07l.05.2c.02.2-.02.3-.12.31-.02,0-.06,0-.12-.02l-.06-.02s.06.09.17.22c.15.14.29.29.43.43l-.77-.34c.17.48.33.71.51.69h.03c0,.06-.03.09-.11.1-.06,0-.13-.02-.21-.07-.08-.03-.14-.04-.18-.04-.23.02-.37.28-.4.78,0,.06.04.14.11.23l.03.06-.03.03s-.08-.03-.19-.1c-.11-.07-.17-.1-.19-.1s-.03.03-.02.09c.01.12.04.24.09.36.05.12.12.18.19.17.02,0,.05-.01.08-.04h.06s0,.02,0,.02c-.06.14-.17.22-.3.24-.08,0-.14.08-.17.21-.04.13-.07.34-.1.62-.06.62-.15,1.02-.27,1.21-.13.13-.2.4-.22.82-.01.3-.06.46-.16.49-.08.03-.11.06-.11.1h.03c.14,0,.21.06.22.15,0,.02,0,.06-.02.12-.01.06-.02.11-.01.15,0,.1.09.2.24.3.06.05.1.09.1.11-.02,0-.07,0-.15-.02-.1-.03-.17-.04-.21-.04-.06,0-.09.03-.08.07,0,.02.02.07.04.14.02.06.04.09.04.11,0,.04,0,.06-.02.06-.04,0-.07,0-.09-.02l-.06-.02s-.05.06-.04.15c0,.02,0,.07.01.15.03.11.05.2.06.26.02.16-.03.26-.12.31-.06.04-.08.09-.07.15,0,.06.05.08.13.08.04,0,.11-.02.2-.05.04-.02.07-.04.09-.04.02,0,.03,0,.03.03,0,.02-.04.09-.13.22-.24.34-.36.57-.35.68,0,.04.04.1.11.2.14.2.22.46.25.77.02.18-.01.27-.09.27-.08,0-.13-.07-.14-.22,0-.02,0-.05,0-.09.01-.06.02-.11.01-.15,0-.1-.04-.14-.1-.14-.08,0-.11.13-.08.36.03.33.15.68.34,1.06.1.21.15.36.16.46.02.16-.04.24-.15.25l-.27-.03s.06.08.17.19c.19.18.3.31.3.38,0,.08-.04.19-.14.34l-.05.06c.09-.07.16-.1.2-.11.1,0,.18.16.26.51.01.14.03.23.06.29l.35-.03c.12-.01.24.09.38.32.11.15.2.22.26.21l.03-.03c.06,0,.09.06.11.2.02.16-.03.24-.12.25-.08,0-.13-.03-.16-.1-.05-.09-.14-.13-.28-.12-.12.01-.18.04-.17.08l.03.03s.09.07.22.16c.53.34.83.51.91.5,0-.02-.01-.05-.04-.08l-.04-.06.04.06c.8.93,1.4,1.37,1.81,1.33.06,0,.09-.03.08-.07,0-.06-.14-.19-.39-.4-.37-.32-.55-.54-.56-.65.08,0,.22.07.42.23.2.16.64.52,1.3,1.08.33-.03.72-.08,1.17-.14.58-.08,1.11-.14,1.58-.18.84-.08,1.26-.07,1.27.03.01.14-.27.28-.84.44-.58.16-1.29.27-2.15.36-1.48.14-2.77.07-3.88-.21ZM1558.33,275.4c1-.56,1.9-1.18,2.7-1.87,1.36-1.18,3.16-3.13,5.39-5.85,2.23-2.73,4.19-5.34,5.88-7.85,1.7-2.51,2.52-4.03,2.47-4.58-.02-.23-.38-.32-1.06-.25-.35.03-1.27.28-2.75.73-1.48.45-2.22.69-2.22.73,0,.08-.36.35-1.1.82-1.74,1.11-3.16,2.17-4.24,3.16-.85.77-1.89,1.89-3.12,3.36-1.23,1.47-1.83,2.31-1.81,2.53l-1.72,2.97s-.11.32-.33.83c-.47,1.09-.85,2.11-1.16,3.07-.31.96-.43,1.8-.36,2.55.02.25.09.43.21.53.12.1.34.13.67.1.7-.07,1.55-.38,2.55-.94ZM1578.65,277.4c0-.08-.11-.15-.31-.21l-.3-.03c.03.06.07.14.14.25.11.13.22.19.34.17.1,0,.14-.07.13-.19ZM1579.28,275.82c-.07-.26-.13-.62-.18-1.09-.06-.66-.04-1.07.06-1.22.07-.1.09-.26.07-.48-.06-.59.01-1.17.21-1.76.06-.16.09-.26.09-.3,0-.06-.08-.08-.21-.07-.06,0-.09,0-.09-.02.02,0,.05-.03.08-.09.15-.11.22-.21.21-.29,0-.02-.01-.05-.04-.09-.02-.02-.03-.05-.04-.08-.01-.14.04-.38.17-.73.11-.25.17-.41.16-.49,0-.08-.04-.11-.1-.11-.02,0-.06.03-.11.07l-.08.07-.03-.03s.02-.09.06-.15c.04-.06.09-.1.15-.1.04,0,.07,0,.09.02h.06c.1-.01.17-.07.22-.17,0-.06-.09-.1-.25-.13-.12.01-.18,0-.18-.01l.02-.06c.16-.13.24-.28.22-.44-.02-.16.03-.31.13-.46.07-.08.1-.17.09-.24,0-.02-.01-.04-.04-.06v-.06s0-.03,0-.03c0-.1.08-.19.27-.29.15-.07.22-.15.21-.23,0-.04-.03-.09-.08-.17-.11-.15-.18-.29-.19-.43-.02-.18.02-.27.12-.28h.03c.08-.01.13-.05.17-.11.05-.12.14-.26.28-.41.13-.11.19-.2.18-.25,0-.04-.03-.08-.07-.11-.1-.03-.16-.09-.17-.19,0-.02,0-.05.02-.09.02-.02.03-.04.02-.06,0-.1-.14-.23-.39-.4-.19-.16-.29-.28-.3-.36,0-.08.06-.12.19-.14.16-.01.24-.01.24,0l-.06.03c-.11.07-.16.13-.16.19,0,.08.06.14.15.18.09.04.2.05.31.04.23-.02.42-.16.55-.41.13-.25.18-.53.15-.84-.02-.23-.13-.5-.31-.8-.03-.08-.05-.13-.08-.17.02.02.05.05.1.11.2.22.37.32.5.31.14-.01.23-.08.29-.21.06-.12.1-.31.14-.55.05-.28.11-.44.19-.49.13-.07.19-.15.18-.23,0-.02-.01-.04-.03-.06-.02-.02-.03-.04-.04-.06,0-.04.04-.09.13-.16.2-.2.31-.42.35-.68.03-.3.33-.82.88-1.56.12-.15.18-.23.18-.25,0-.26.16-.66.5-1.2.17-.27.25-.44.25-.5,0-.04-.02-.06-.04-.06s-.1.1-.24.29c-.18.21-.28.32-.32.33-.02,0-.03,0-.03-.03,0-.08.03-.17.12-.28.07-.1.1-.2.09-.28,0-.04-.03-.09-.08-.17v-.03s0-.03,0-.03l.03.03s.05.06.06.05l.05-.07c.36-.51.61-.77.72-.78.02,0,.03,0,.03.03,0,.02-.05.11-.15.28-.17.27-.25.44-.25.5,0,.02.01.03.03.03.08,0,.19-.1.33-.28.14-.18.2-.35.19-.51,0-.02-.01-.05-.04-.08-.03-.06-.04-.09-.04-.11-.01-.12.01-.21.08-.27.06-.06.11-.1.15-.1v.03s-.02.07-.07.15l-.05.12v.03c.06,0,.16-.09.29-.25.13-.16.19-.29.18-.39,0-.06-.03-.09-.07-.08-.02,0-.05.03-.08.07-.06.03-.1.04-.11.04-.12.01-.18-.03-.19-.13-.01-.14.08-.35.26-.63.19-.28.34-.43.46-.44.06,0,.09,0,.09.02,0,.02-.03.05-.08.1-.09.09-.14.15-.13.19,0,.06.07.1.19.13.06,0,.08-.05.08-.13.01-.08.04-.12.08-.13.02,0,.03,0,.03.03.02,0,.04,0,.06,0v.03c.08,0,.11-.1.09-.28-.02-.16-.09-.23-.23-.21l-.23.05s-.06,0-.06-.02c0-.06.13-.23.42-.51.44-.4.7-.71.8-.93.02-.18.08-.27.18-.28.02,0,.04,0,.06.02.04.02.08.02.12.02.19-.02.33-.12.41-.31.08-.18.14-.41.17-.67.04-.2.07-.3.09-.3.16-.01.36.48.61,1.48-.05.06-.13.17-.23.32-.93,1.35-1.49,2.04-1.66,2.05-.02,0-.04,0-.06,0l-.03-.03s-.03.01-.03.03.01.04.03.06c.02.04.04.08.04.11.02.18-.08.43-.28.75-.2.33-.38.49-.51.51-.1,0-.14.04-.14.1l.03.03s0,.04,0,.06c.02.2-.72,1.62-2.21,4.26-1.2,2.1-1.79,3.23-1.77,3.36-.02.04-.11.3-.28.79-.78,2.1-1.21,3.38-1.28,3.82,0,.02,0,.07-.01.15-.35,1.71-.54,2.6-.6,2.69,0,.02,0,.04-.02.06-.09.29-.14.48-.15.58-.05,1.29-.09,2.54-.11,3.76.03.69,0,1.03-.11,1.04-.06,0-.12-.12-.2-.38Z"/>
    <path class="cls-2" d="M1595.48,279.46c-.31.03-.63.01-.95-.06-.1-.03-.17-.04-.21-.04-.02,0-.04.01-.06.03-.06,0-.23-.07-.52-.22-.69-.37-1.35-.68-1.98-.93-1.54-.6-2.67-1.48-3.4-2.65-.73-1.17-1.21-2.88-1.43-5.12-.09-1.09-.05-2.48.11-4.15s.33-2.51.51-2.53c.08,0,.12.04.13.13-.04.4-.14,1.02-.29,1.86-.24,1.19-.34,2.01-.29,2.48,0,.06.02.09.04.09.06,0,.15-.4.27-1.18.31-1.9.74-3.63,1.28-5.18s1.71-4.28,3.47-8.19c1.17-2.58,1.98-4.28,2.43-5.11.45-.83.87-1.26,1.26-1.3.43-.04,1.35.82,2.76,2.6.16.16.24.26.27.3.14.17.38.78.74,1.85-.03.12-.06.28-.1.48-.21.85-.45,1.62-.72,2.32-.27.7-.83,1.98-1.69,3.86-.99,2.16-1.48,3.31-1.47,3.42v.03c.1-.01.45-.66,1.05-1.95.6-1.29,1.25-2.79,1.94-4.5.69-1.71,1.23-3.2,1.62-4.46,0,.02.02.06.07.11.15.28.23.52.25.71.1,1.05-1.12,4.19-3.67,9.42-.21.45-.32.69-.32.71,0,.06-.2.49-.61,1.3-1.12,2.3-1.96,4.51-2.52,6.64-.56,2.13-.78,3.86-.65,5.19.04.37.12.78.27,1.22.03.15.06.27.09.34.02,0,.05,0,.09,0,1.26-.16,1.94-.3,2.03-.4.02-.02.15-.09.39-.22,1.69-.83,2.95-1.63,3.79-2.38,4.23-3.91,7.24-8.29,9.04-13.13.21-.51.35-.87.44-1.06s.18-.3.28-.31c.1,0,.29.18.59.56.07.07.11.13.13.16-.53,1.67-.93,2.74-1.19,3.22-.03.06-.05.13-.04.21.04.45-.21,1.23-.78,2.35-.13.27-.2.41-.19.43v.03c.02.18-.23.75-.75,1.73-.27.48-.4.75-.39.81.02.21-.48,1.04-1.5,2.48-1.02,1.44-2.09,2.8-3.21,4.09s-1.84,1.95-2.17,1.98c-.02,0-.12.07-.31.21-1.26,1.01-2.57,1.58-3.94,1.71ZM1602.58,245.13c-.08,0-.16-.06-.26-.21-.11-.15-.21-.22-.29-.21h-.12c-.12.02-.34-.11-.66-.4-.15-.12-.24-.18-.28-.18h-.03c-.18.02-.78-.2-1.81-.65-.06-.01-.1-.03-.12-.05-.03-.15-.06-.27-.06-.35-.03-.06-.05-.19-.07-.41-.04-.39.08-1.14.36-2.26.28-1.12.55-1.94.81-2.46.13-.25.19-.44.18-.58,0-.08-.03-.12-.07-.11-.02,0-.06.03-.11.07-.04.02-.06.04-.08.04-.02,0-.03,0-.03-.03l.02-.09c.05-.08.12-.13.22-.14h.06s.05.02.09.01c.1,0,.2-.12.32-.33.1-.21.21-.37.35-.49.14-.12.35-.2.64-.23.39-.04.72.05.99.27.27.22.53.51.78.88.16.22.27.33.33.32.1,0,.16.07.2.25.04.15.09.23.17.22.1,0,.35.39.77,1.2.02.04.04.07.04.09-.1.42-.2.9-.3,1.45-.14.6-.2.94-.2,1.02.08,0,.23-.48.45-1.43.27-1.07.45-1.61.55-1.62.12-.01.19.19.23.6.05.55-.06,1.26-.34,2.13-.28.87-.62,1.66-1.01,2.34-.4.69-.74,1.05-1.03,1.08-.02,0-.06,0-.12-.02-.06-.01-.1-.02-.12-.02-.12.01-.21.07-.28.17-.05.06-.11.1-.17.11Z"/>
    <path class="cls-2" d="M1620.4,276.61c-.01-.12.02-.18.1-.19l.09.02.09.05.03-.03-.03-.03c-.07-.11-.15-.16-.25-.15-.04,0-.09.02-.14.04-.13.03-.2.09-.19.17l.03.03v.03s0,.03,0,.03c0,.04-.06.07-.2.08-.29.03-.77,0-1.43-.08-.66-.08-1.18-.2-1.57-.33-.53-.17-.83-.58-.89-1.24-.04-.39.05-1.11.26-2.15.08-.38.12-.6.11-.66,0-.02-.01-.03-.03-.03-.02,0-.1.17-.25.5-.22.55-.37.83-.45.84-.08,0-.13-.1-.15-.31-.04-.43,0-.88.12-1.36.12-.47.23-.72.33-.73.02,0,.03.02.04.06,0,.08-.06.34-.19.79-.01.06-.04.2-.08.42-.05.32-.07.51-.06.57,0,.04.01.06.03.06.04,0,.24-.37.6-1.09,1.31-2.69,2.49-4.64,3.54-5.87.2-.21.42-.33.67-.36.35-.03.94.2,1.75.7.82.5,1.57,1.07,2.26,1.71.69.64,1.05,1.1,1.08,1.37.02.22-.09.54-.35.98-.14.23-.2.37-.2.4v.06s-.06.16-.19.37c-.26.4-.38.67-.36.8,0,.04,0,.08.01.12.02.04.04.07.04.09,0,.08-.02.12-.08.13-.02,0-.06,0-.12-.02-.04-.02-.07-.02-.09-.02-.1,0-.18.12-.23.32-.06.2-.15.31-.26.32-.1,0-.15-.04-.16-.16v-.15s-.04-.06-.08-.05l-.09.04c-.05.04-.08.1-.07.15,0,.04.04.09.1.14.07.09.11.17.11.23,0,.08-.02.2-.08.36-.06.14-.09.24-.09.3,0,.06.03.08.07.08.04,0,.09-.03.14-.07l.06-.03s-.07.16-.22.36c-.15.2-.25.31-.31.31h-.12c-.14.03-.2.05-.2.09,0,.04.04.08.1.11.08.05.13.1.13.14,0,.06-.09.12-.28.18-.06,0-.09,0-.09-.02s0-.04.02-.06c.02-.04.02-.07.02-.09,0-.06-.04-.09-.1-.08-.08,0-.15.12-.2.34-.08.23-.14.34-.2.34-.02,0-.05,0-.09-.02-.02-.02-.04-.03-.06-.02-.04,0-.06.06-.07.16-.05.26-.19.4-.4.42-.12.01-.19-.04-.22-.16l.03-.03c.32-.37.47-.61.46-.72l-.19.19c-.39.45-.65.68-.79.7-.1,0-.14.07-.13.19,0,.02.02.06.04.11,0,.04,0,.08.01.12,0,.1-.02.18-.08.26s-.13.12-.21.12c-.1,0-.15-.04-.16-.16ZM1625.13,264.45c-.39.04-.67.02-.83-.07-.16-.08-.39-.3-.68-.64-.31-.34-.58-.64-.83-.89-.22-.19-.37-.43-.47-.71-.1-.28-.17-.61-.23-1-.07-.37-.14-.59-.18-.69-.05-.07-.07-.12-.07-.14,0-.02,0-.03.03-.03.11-.13.13-.5.07-1.13-.12-1.66.12-3.91.73-6.75.07-.32.11-.51.12-.57.12-.82.85-3.39,2.21-7.7,1.35-4.32,2.3-7.1,2.82-8.35.89-2.16,1.5-3.46,1.8-3.93.02-.04.02-.07.02-.09-.02-.19.47-1.26,1.46-3.19.99-1.93,2.15-4.11,3.46-6.54,1.31-2.43,2.88-5.34,4.72-8.73,1.14-2.1,1.95-3.6,2.43-4.49.49-.89.73-1.36.72-1.4-.04,0-.29.39-.74,1.16-.78,1.28-1.22,1.92-1.32,1.93-.08,0-.11.07-.1.19-3.42,5.77-5.28,8.89-5.59,9.37-.02,0-.1.18-.24.53-.14.39-.23.58-.27.59-.02,0-.26.38-.72,1.13-1.06,1.7-1.64,2.55-1.76,2.56-.02,0-.03,0-.03-.03-.03-.31,1.02-2.28,3.15-5.9,2.13-3.62,3.47-5.81,4.03-6.55,1.83-2.8,3.04-4.72,3.6-5.78.66-1.17,1.12-1.87,1.39-2.11.04-.02.06-.05.05-.09-.03-.31.08-.77.34-1.36.09-.24.14-.39.14-.43,0-.04-.03-.06-.06-.05-.14.01-.23.13-.29.35-.01.06-.03.09-.05.09s-.04,0-.06-.02c0-.1.21-.43.67-1,.46-.57.72-.85.8-.86,0,.1-.16.44-.49,1.02.05-.04.13-.1.22-.17.35-.29.62-.44.81-.46.35-.03.68.14,1,.52.31.38.58.82.79,1.31.22.49.33.83.35,1,0,.08-.03.16-.12.25-.04.04-.05.07-.05.09,0,.04.05.05.15.04.1-.01.18-.03.23-.05.04,0,.06,0,.06.02,0,.02-.01.06-.05.12-.09.13-.12.24-.11.33,0,.04.03.11.08.2.07.17.12.34.14.52.03.31.03.78,0,1.42,0,.08-.03.17-.12.28-.13.13-.18.26-.17.4,0,.08.03.11.07.11l.03-.03s.07-.04.09-.04c.04,0,.06.02.07.08,0,.08-.04.24-.16.49-.12.23-.17.37-.17.43,0,.04.02.07.04.09l.04.06s-.04.04-.11.07c-.1,0-.14.04-.14.1,0,.02.01.04.04.06.02.06.04.1.04.14,0,.1-.03.25-.1.45-.09.25-.14.43-.13.54,0,.04-.02.07-.08.1-.09.05-.14.11-.13.19,0,.04.03.11.08.2.02.04.04.07.04.09,0,.04-.01.06-.05.06-.02,0-.07-.02-.15-.07l-.09-.02s-.06.01-.06.03.02.07.04.14c.05.07.07.13.08.17,0,.1-.05.16-.19.2h-.03s.03.03.03.03c.02.04.04.08.04.11,0,.1-.04.23-.14.4-.03.06-.05.1-.05.12.02,0,.08-.02.17-.05.09-.05.16-.07.2-.08.04,0,.06,0,.06.02,0,.06-.04.09-.14.1-.12.03-.21.09-.28.17-.07.09-.09.28-.06.57.03.29-.03.45-.16.46l-.03-.03.03-.03c.03-.06.05-.11.04-.15,0-.08-.04-.14-.11-.2l-.06-.02s-.08.12-.11.34c-.09.52-.23.79-.42.81l-.06-.02h-.03s.01.04.03.06c.05.07.07.14.08.2.04.41-.1.75-.4,1.01-.07.09-.1.14-.1.16,0,.04.03.11.08.2l.04.06s-.13-.05-.28-.15l-.16-.07s-.03.04-.02.12l.06.32c.02.23,0,.45-.07.64-.07.19-.15.3-.25.31-.1,0-.16.06-.19.17-.01.08-.04.12-.08.13h-.03s-.06-.02-.06-.02c-.04,0-.05.09-.04.24,0,.04.01.11.02.21.03.09.04.16.05.2.02.18-.04.29-.17.34-.08.05-.11.1-.1.16,0,.08.06.11.16.1.04,0,.1-.03.2-.08.06-.02.09-.04.11-.04l.03.03c0,.06-.11.23-.34.51l-.54-.75c.08.19.12.34.13.46.02.2,0,.41-.09.63-.03.08-.05.13-.05.15,0,.04.02.06.04.06.02,0,.06-.02.11-.04.09-.05.16-.07.2-.08.08,0,.12.02.13.08,0,.06-.03.11-.1.16-.17.09-.29.31-.38.66-.35,1.04-1.03,2.55-2.04,4.54-.48.95-.71,1.48-.7,1.58l.03.06c.02.18-.34.87-1.07,2.08-.19.31-.28.48-.28.5,0,.18-.04.34-.1.48-.06.14-.14.22-.21.23-.02,0-.05,0-.09-.02h-.06s-.06.03-.05.07c.02.2-.05.47-.2.83-.15.36-.29.54-.4.56-.02,0-.04,0-.06-.02h-.03s-.03.02-.03.03l.04.06c.01.16-.17.65-.57,1.47-.39.83-.64,1.24-.73,1.25-.04,0-.07,0-.09-.02l-.12-.05v.03s.04.03.04.03c.03.31-.24,1.02-.8,2.12-.23.48-.34.74-.34.8.08,0,.45-.63,1.12-1.88.92-1.68,1.45-2.53,1.59-2.55l.09.05s.03-.01.03-.03l-.04-.14c0-.1.22-.63.7-1.59.48-.96,1.2-2.42,2.18-4.36,1.14-2.24,2-3.95,2.59-5.14.58-1.19.87-1.85.86-1.99v-.03s-.04-.03-.04-.03c2.06-4.73,3.08-7.25,3.05-7.56v-.06c.14-.35.44-1.76.91-4.23.11-.64.19-.96.23-.97.04,0,.08.2.12.61.1,1.01-.12,2.49-.65,4.43-.53,1.94-1.33,4.22-2.4,6.82-1.26,3.08-2.65,6.15-4.17,9.21s-3.48,6.83-5.86,11.32c-2.85,5.36-4.89,9.32-6.11,11.88-1.26,2.6-2.52,5.14-3.78,7.6-.68,1.29-1.13,2.19-1.33,2.71-.21.52-.46,1.41-.78,2.66l.64.82ZM1624.58,259.39c0-.06-.06-.09-.16-.1-.04,0-.06,0-.06-.02,0-.06.09-.18.29-.35.22-.18.32-.31.32-.39v-.03s-.04-.07-.04-.09c0-.08.01-.17.06-.27.08-.18.13-.41.14-.66,0-.08.04-.12.14-.13.02,0,.06,0,.12.02h.06c.08-.01.11-.07.1-.16,0-.02,0-.05,0-.09-.03-.1-.05-.16-.05-.2-.01-.16,0-.3.05-.45.04-.14.11-.22.18-.23.04,0,.07.02.1.08.07.09.13.13.19.13.1,0,.16-.05.19-.14,0-.02-.02-.05-.07-.08-.08-.07-.13-.14-.14-.22-.02-.21.05-.51.23-.88.17-.37.34-.57.52-.58.1,0,.14-.03.14-.07l-.06-.02c-.08-.03-.12-.07-.13-.11,0-.06.07-.17.23-.35.12-.15.18-.24.18-.28,0-.04-.06-.06-.16-.07,0-.02.03-.05.11-.1.37-.27.6-.59.71-.95.16-.39.38-.79.65-1.19.17-.27.25-.47.24-.58-.01-.1.02-.18.09-.25.16-.15.28-.38.35-.68.12-.35.24-.56.35-.65.04-.02.06-.05.05-.07l-.1-.17c-.01-.14.11-.35.38-.63.07-.07.11-.11.11-.13l-.17.08s-.06-.01-.07-.05c-.02-.19.09-.3.32-.33.04,0,.05-.04.05-.09l-.04-.14c-.01-.14.1-.48.34-1.02.24-.54.39-.82.45-.83.04,0,.09,0,.15.01.06.01.1.02.12.02.04,0,.06-.02.06-.04l-.03-.03-.04-.08c-.03-.33.09-.65.38-.95.07-.09.1-.14.1-.16l-.07-.14c-.02-.21.08-.48.29-.8.22-.32.41-.48.59-.5.06,0,.09-.03.08-.07l-.03-.03s-.04-.08-.04-.11c-.02-.23.02-.47.12-.71.1-.24.26-.52.46-.86.24-.4.37-.68.39-.83.02-.2.18-.52.47-.96.21-.32.3-.52.29-.62,0-.04-.03-.1-.08-.17-.02-.04-.04-.07-.04-.09l.06.03s.05.02.09.02c.1,0,.21-.17.34-.48.13-.31.18-.58.16-.81,0-.06-.02-.13-.05-.2-.03-.08-.04-.13-.04-.17-.01-.12.02-.18.1-.19.1,0,.15.01.15.07l-.02.06s-.02.07-.02.09c0,.06.05.11.13.16.06,0,.14-.13.23-.38.18-.43.36-.66.56-.68h.21s.06,0,.06-.03c0-.04-.04-.09-.11-.17-.06-.07-.1-.14-.11-.2,0-.1.11-.33.35-.68.19-.25.29-.41.28-.47,0-.04-.06-.05-.15-.04-.2,0-.3-.05-.31-.15-.01-.12.04-.2.15-.25.04,0,.14.04.31.12.08.05.14.08.16.07,0-.02-.02-.06-.04-.12-.03-.06-.04-.1-.04-.14,0-.1.03-.21.11-.34.08-.17.12-.31.11-.42-.02-.18-.07-.29-.15-.34-.02,0-.03.04-.02.12-.04.38-.19.58-.44.6l-.41.04.05.17c.08.41.12.65.13.73.01.16-.03.24-.12.25-.18.02-.34.11-.48.27-.14.16-.2.33-.19.51.01.12.06.17.13.16.06,0,.09-.07.1-.19.01-.08.03-.12.05-.12.06.05.1.11.1.17.01.14-.02.24-.09.3-.07.07-.18.14-.33.21-.26.14-.43.3-.52.46-.15.29-.22.57-.21.85-.03.08-.15.18-.35.3-.17.1-.25.16-.25.2,0,.02.04.07.11.17.11.11.17.18.17.22h-.03s-.04-.02-.06-.02c-.1,0-.21.18-.34.5-.09.25-.17.37-.23.38-.02,0-.06-.03-.13-.11-.05-.06-.08-.08-.1-.08-.02,0-.03.03-.02.09,0,.02.02.08.05.17.03.13.05.24.06.32.02.2-.03.32-.14.37-.1,0-.18-.07-.26-.24.02,0,.08.01.18.04.04.04.07.05.09.05l.03-.03-.07-.08c-.05-.09-.11-.14-.19-.13-.12.01-.18.09-.18.23,0,.02.01.05.04.08.02.02.03.04.03.06,0,.1-.07.27-.24.53-.14.19-.21.33-.2.4,0,.06.07.15.2.28.04.06.07.09.07.11v.03s-.09-.02-.09-.02c-.08-.03-.13-.05-.15-.04-.04,0-.06.04-.08.13-.02.22-.12.37-.31.44-.22.14-.33.28-.32.41.01.12.03.17.05.17.02,0,.04-.03.08-.1.09-.11.15-.16.19-.17.06,0,.09.02.1.08,0,.1-.06.2-.21.3-.15.1-.29.16-.43.18l-.12-.02c-.08,0-.14.13-.2.37,0,.06.03.09.07.08l.06-.04s.06-.04.08-.04c.04,0,.06.02.07.08,0,.06-.04.14-.12.25-.09.13-.13.23-.12.31,0,.04.02.09.04.14.03.08.04.12.04.14-.04,0-.15-.06-.34-.17-.15-.09-.23-.13-.25-.13l.06.05c.17.16.27.31.28.44,0,.1-.02.15-.07.15-.04,0-.12-.03-.24-.09-.06-.05-.11-.08-.13-.08-.02,0-.03.03-.02.09.03.31.02.53-.02.65-.05.12-.13.22-.24.29-.09.07-.13.15-.12.25l.05.23c.01.12-.1.21-.33.27-.14.01-.2.05-.2.11l.04.06.03.06c0,.06-.04.1-.14.13-.08.03-.11.05-.11.07l.1.11c.13.15.2.24.21.28-.02,0-.06,0-.12-.02-.06-.01-.1-.02-.12-.02-.18.02-.31.15-.42.41-.1.26-.21.62-.32,1.08-.13.53-.23.79-.31.8-.08,0-.21.24-.41.69-.24.55-.41.84-.51.85-.02,0-.04,0-.06-.02-.02,0-.04,0-.06,0l-.03.03.03.03s.04.08.04.11c.02.23-.08.65-.29,1.24-.22.59-.4.89-.53.91-.04,0-.06-.05-.08-.17-.03-.11-.06-.17-.1-.17l-.06.04-.02.06c0,.1.13.26.34.5.06.03.1.07.13.11-.43-.19-.7-.29-.79-.28l.07.08c.2.2.3.34.31.41,0,.04-.01.06-.05.06l-.06-.02s-.07-.02-.09-.02c-.12.01-.18.13-.2.34,0,.06.03.09.07.08.02,0,.06-.02.11-.07l.06-.03s.03,0,.03.03c0,.08-.07.25-.23.51-.16.26-.29.4-.39.41l-.06-.02h-.03s-.09.27-.16.79c0,.02.02.03.06.02l.09-.04c.07-.05.12-.07.14-.07l.03.03c0,.06-.11.22-.34.48-.37.43-.55.7-.54.82,0,.02.01.03.03.03.06,0,.15-.1.27-.29.07-.11.11-.16.13-.16l.03.03c.02.25-.05.53-.23.82-.18.29-.46.46-.85.5-.08,0-.12.02-.11.04,0,.02.05.05.16.09.1.04.18.06.24.05.06,0,.1-.02.11-.04.06,0,.09.03.1.11.04.47-.18.85-.69,1.16-.09.05-.14.08-.14.1,0,.02.05.03.15.01.18,0,.27.03.28.09,0,.02,0,.05-.02.09-.02.02-.03.04-.02.06,0,.06.05.09.13.08.12-.01.21-.1.27-.26Z"/>
  </g>
</svg>