<?xml version="1.0" encoding="UTF-8"?>
<svg xmlns="http://www.w3.org/2000/svg" version="1.1" viewBox="0 0 1711.1 325.1">
  <!-- Generator: Adobe Illustrator 29.3.1, SVG Export Plug-In . SVG Version: 2.1.0 Build 151)  -->
  <defs>
    <style>
      .st0 {
        fill: #fff;
      }

      .st1 {
        fill: #f43b3b;
      }

      .st2 {
        display: none;
      }
    </style>
  </defs>
  <g id="Layer_1" class="st2">
    <g>
      <g>
        <path d="M372.4,261.4v9.9c-2,4.5-4.2,8.9-6.6,13.2-4.7,8.6-10,16.8-16,24.5H44.1c-6-7.8-11.3-16-16-24.5-2.4-4.3-4.6-8.7-6.6-13.2v-9.9l2.8-3.6,79.4-103.5h186.4l79.4,103.5,2.8,3.6Z"/>
        <path d="M197,29.5h0c51.4,0,93.2,41.8,93.2,93.2v87.5H103.8v-87.5c0-51.4,41.8-93.2,93.2-93.2Z"/>
        <g>
          <path class="st0" d="M232.3,184.9h-70.7l-28.8-28.8v-48.8c0-22.5,18.2-40.7,40.7-40.7h46.9c22.4,0,40.6,18.2,40.6,40.7v48.8l-28.8,28.8Z"/>
          <path d="M220.4,66.4h-46.9c-22.5,0-40.9,18.3-40.9,40.9v48.9l27.3,27.3,1,1,.6.6h70.9l.6-.6,1-1.1,27.3-27.3v-48.9c0-22.5-18.3-40.9-40.9-40.9h0ZM260.9,156l-28.6,28.6h-70.5l-1.6-1.6h0l-27-27.1v-48.7c0-22.3,18.1-40.4,40.4-40.4h46.9c22.3,0,40.4,18.1,40.4,40.4v48.7h0Z"/>
        </g>
        <path d="M149.8,105.9c5.7-4.6,12.6-7.8,19.9-8.7,6-.7,11.5.3,16.1,4.4,1.4,1.2,2.6,2.7,3.6,4.3l-.2.2c-2.8-1.5-5.3-3-8.2-4-3.6-1.2-7.2-2.2-11-2.2-3.4,0-6.9.7-10.2,1.8-3.4,1.1-6.6,2.5-9.7,4.3l-.2-.3h0Z"/>
        <path d="M243.9,106.2c-6.1-3.5-12.9-5.9-19.9-6.1-3.8,0-7.5,1-11,2.2-2.9,1-5.5,2.4-8.2,4l-.2-.2c1-1.6,2.1-3.1,3.6-4.3,2.9-2.5,6.6-4.2,10.4-4.5,5.6-.4,11.3.8,16.4,3.1,3.3,1.5,6.5,3.4,9.3,5.7l-.2.3h0Z"/>
        <path d="M169.6,120.6c-3.4,0-6.4-1.9-7.9-4.9l1.6-.8c1.2,2.4,3.7,3.9,6.4,3.9s5.1-1.5,6.4-3.9l1.6.8c-1.5,3-4.6,4.9-7.9,4.9Z"/>
        <path d="M224.3,120.6c-3.4,0-6.4-1.9-7.9-4.9l1.6-.8c1.2,2.4,3.6,3.9,6.4,3.9s5.1-1.5,6.4-3.9l1.6.8c-1.5,3-4.6,4.9-7.9,4.9Z"/>
        <rect x="156.5" y="83.4" width="32.8" height="5.9"/>
        <rect x="204.6" y="83.4" width="32.8" height="5.9"/>
        <g>
          <polygon class="st0" points="161.6 184.9 177.2 156.1 216.7 156.1 232.3 184.9 161.6 184.9"/>
          <polygon points="230.4 185.9 215.4 158.3 178.5 158.3 163.6 185.9 159.7 183.9 175.9 153.9 218 153.9 234.2 183.9 230.4 185.9"/>
        </g>
        <path d="M176.8,155.5h40.3s0,0,0,0h0c0,6.6-5.3,11.9-11.9,11.9h-16.6c-6.6,0-11.9-5.3-11.9-11.9h0s0,0,0,0h0Z"/>
        <polygon points="197.1 144 190.7 138.8 190.7 108.2 192.3 108.2 192.3 138 197.1 141.9 201.9 137.8 203 139 197.1 144"/>
        <rect x="201.6" y="108.2" width="1.6" height="30.2"/>
        <ellipse cx="189.6" cy="138.4" rx="2.7" ry="4.7"/>
        <ellipse cx="204.3" cy="138.4" rx="2.7" ry="4.7"/>
        <path class="st0" d="M275.1,130.7c0,12.4-5.3,22.6-11.9,22.6v-45.1c6.5,0,11.9,10.1,11.9,22.5Z"/>
        <path class="st0" d="M130.7,108.2v45.1c-6.5,0-11.8-10.1-11.8-22.6s5.3-22.6,11.8-22.6Z"/>
        <circle class="st0" cx="127.7" cy="157.3" r="3"/>
        <circle class="st0" cx="266.2" cy="157.3" r="3"/>
        <path class="st0" d="M365.8,284.5c-4.7,8.6-10,16.8-16,24.5-4.3,5.5-8.8,10.9-13.7,16H57.8c-4.9-5.1-9.5-10.4-13.7-16-6-7.8-11.3-16-16-24.5,1.4-2.7,3-5.4,4.5-8,17.8-29.4,44.5-52.8,76.2-66.4,8.3-3.5,16.9-6.4,25.8-8.6.3,0,.6-.1.8-.2,7.1-1.7,14.4-2.9,21.9-3.6.1,0,.2,0,.3,0v.3c.1,0,4.5,12.1,4.5,12.1l34.9,96.2,34.9-96.2,4.3-12h0s.1-.4.1-.4c0,0,.2,0,.2,0,7.4.7,14.7,1.9,21.8,3.6h0c.3,0,.5.1.8.2,8.9,2.1,17.5,5,25.8,8.6,31.7,13.6,58.3,37,76.1,66.4,1.6,2.6,3.1,5.3,4.5,8h0Z"/>
        <polygon points="130.6 273.4 135 193.8 139.4 273.4 130.6 273.4 130.6 273.4"/>
        <polygon points="153.1 290.8 157.5 193.8 161.9 290.8 153.1 290.8 153.1 290.8"/>
        <polygon points="254.5 273.4 258.9 193.8 263.2 273.4 254.5 273.4 254.5 273.4"/>
        <polygon points="232 290.8 236.4 193.8 240.8 290.8 232 290.8 232 290.8"/>
        <g>
          <path d="M162.6,309.1c1.1,5.4,2.4,10.7,4,16h-4.6c-1.6-5.3-2.9-10.6-3.9-16-1.2-6-2.1-12.1-2.6-18.3,0-1-.2-1.9-.2-2.9l4.4-.3c0,1.1.2,2.2.3,3.2.6,6.1,1.5,12.2,2.7,18.3h0Z"/>
          <path d="M238.6,288c0,1-.2,1.9-.3,2.9-.6,6.1-1.6,12.2-2.8,18.3-1.1,5.4-2.4,10.7-4,16h-4.6c1.6-5.3,3-10.6,4.1-16,1.3-6,2.2-12.1,2.8-18.3.1-1.1.2-2.2.3-3.2l4.4.4h0Z"/>
        </g>
        <g>
          <path d="M65.9,300.8v7.1c-.3-3.2-.1-5.7,0-7.1Z"/>
          <path d="M66,309.1c.5,4.5,1.9,10.2,5.2,16h-5.3v-17.2c0,.4,0,.8.1,1.2h0Z"/>
        </g>
        <g>
          <path d="M330.8,307.9v17.2h-5.3c.1-.2.2-.4.3-.5,3.1-5.6,4.4-11.1,4.9-15.5,0-.4,0-.8.1-1.2h0Z"/>
          <path d="M330.8,307.9v-7.1c.1,1.4.3,3.9,0,7.1Z"/>
        </g>
        <circle cx="138.3" cy="314.1" r="5.4"/>
        <circle cx="255.7" cy="314.1" r="5.4"/>
      </g>
      <path d="M374.2,117.5c-9.7-22.9-23.5-43.5-41.2-61.1-17.7-17.7-38.2-31.5-61.1-41.2C248.1,5.1,222.9,0,197,0s-51.2,5.1-74.9,15.1c-22.9,9.7-43.5,23.6-61.1,41.2-17.7,17.7-31.5,38.2-41.2,61.1-10,23.7-15.1,48.9-15.1,74.9s5.1,51.1,15.1,74.9c.6,1.4,1.2,2.8,1.8,4.1,2,4.5,4.2,8.9,6.6,13.2,4.7,8.6,10,16.8,16,24.5,4.2,5.5,8.8,10.9,13.7,16h10.9c-.8-.7-1.5-1.5-2.3-2.2-.2-.2-.3-.3-.5-.5-4.2-4.2-8.2-8.6-11.9-13.2-8.3-10.1-15.4-20.9-21.3-32.5-2.1-4-4-8.2-5.8-12.4-.9-2.1-1.7-4.2-2.5-6.4-7.9-20.9-12-42.9-12-65.5s4.9-49.1,14.5-71.8c9.3-22,22.6-41.7,39.6-58.7,17-17,36.7-30.3,58.7-39.6,22.8-9.6,46.9-14.5,71.9-14.5s49.1,4.9,71.9,14.5c22,9.3,41.7,22.6,58.7,39.6,16.9,16.9,30.3,36.7,39.6,58.7,9.6,22.8,14.5,46.9,14.5,71.8s-4,44.6-12,65.5c-.8,2.1-1.6,4.2-2.5,6.4-1.8,4.2-3.7,8.4-5.8,12.4-5.9,11.6-13.1,22.4-21.3,32.5-2.9,3.6-6,7-9.1,10.4-1.1,1.1-2.2,2.3-3.3,3.4s-1.1,1.1-1.7,1.7c-.2.2-.4.4-.5.5h10.9c4.9-5.1,9.5-10.4,13.7-16,6-7.8,11.3-16,16-24.5,2.4-4.3,4.6-8.7,6.6-13.2.6-1.4,1.2-2.8,1.8-4.1,10-23.7,15.1-48.9,15.1-74.9s-5.1-51.2-15.1-74.9Z"/>
    </g>
    <g>
      <polygon points="563.9 152.7 543.5 152.7 543.3 96.3 515.6 142.8 505.8 142.8 478.3 97.5 478.3 152.7 457.8 152.7 457.8 58.7 475.9 58.7 511.1 117.1 545.7 58.7 563.6 58.7 563.9 152.7"/>
      <polygon points="659 135.3 659 152.7 586.2 152.7 586.2 58.7 657.3 58.7 657.3 76.1 607.8 76.1 607.8 96.6 651.5 96.6 651.5 113.5 607.8 113.5 607.8 135.3 659 135.3"/>
      <polygon points="762.7 58.7 762.7 152.7 744.8 152.7 697.9 95.6 697.9 152.7 676.4 152.7 676.4 58.7 694.4 58.7 741.1 115.7 741.1 58.7 762.7 58.7"/>
      <polygon points="856.3 58.7 856.3 76.4 826.2 76.4 826.2 152.7 804.4 152.7 804.4 76.4 774.3 76.4 774.3 58.7 856.3 58.7"/>
      <path d="M959.8,86.3c-2.6-5.9-6.2-11-10.8-15.4-4.6-4.4-10-7.8-16.3-10.2-6.2-2.4-13.1-3.6-20.5-3.6s-14.2,1.2-20.4,3.6c-6.3,2.4-11.8,5.8-16.4,10.2-4.7,4.4-8.3,9.6-10.8,15.5-2.6,5.9-3.8,12.4-3.8,19.3s1.3,13.4,3.8,19.3c2.5,5.9,6.1,11.1,10.7,15.5,4.6,4.4,10.1,7.8,16.4,10.2,6.3,2.4,13.2,3.6,20.6,3.6s14.1-1.2,20.4-3.6c6.2-2.4,11.6-5.8,16.3-10.1,4.6-4.3,8.2-9.5,10.8-15.5,2.6-5.9,3.9-12.4,3.9-19.4s-1.3-13.6-3.9-19.4h0ZM939.4,117.9c-1.5,3.7-3.5,6.8-6.2,9.5-2.7,2.7-5.8,4.8-9.3,6.2-3.5,1.4-7.4,2.2-11.6,2.2s-8.1-.7-11.7-2.2c-3.6-1.4-6.7-3.5-9.3-6.2-2.7-2.7-4.7-5.9-6.2-9.6-1.5-3.7-2.2-7.8-2.2-12.2s.7-8.6,2.2-12.2c1.5-3.7,3.5-6.9,6.2-9.6s5.8-4.8,9.3-6.2c3.5-1.4,7.4-2.2,11.6-2.2s8.1.7,11.7,2.2,6.7,3.5,9.3,6.2c2.7,2.7,4.7,5.9,6.2,9.6,1.5,3.7,2.2,7.8,2.2,12.2s-.7,8.6-2.2,12.2h0Z"/>
      <path d="M1042.4,122.6c0,0,.1,0,.2,0,6.1-2.7,10.8-6.6,14.1-11.6,3.3-5.1,5-11.1,5-18.1s-1.7-13.2-5-18.3c-3.3-5.1-8-9-14.1-11.8-6.1-2.7-13.4-4.1-21.8-4.1h-40.7v94.1h21.8v-26.2h19c.3,0,.7,0,1,0l18.1,26.2h23.5l-21-30.2h0ZM1001.9,76.4h17.7c6.7,0,11.7,1.4,15.1,4.3s5,6.9,5,12.1-1.7,9.1-5,12c-3.3,2.9-8.3,4.4-15,4.4h-17.7v-32.8h0Z"/>
      <polygon points="1151.7 135.3 1151.7 152.7 1078.9 152.7 1078.9 58.7 1150 58.7 1150 76.1 1100.5 76.1 1100.5 96.6 1144.2 96.6 1144.2 113.5 1100.5 113.5 1100.5 135.3 1151.7 135.3"/>
      <path d="M1239.9,125.2c0,5.3-1.5,10.1-4.4,14.5-3,4.4-7.4,7.9-13.2,10.6-5.9,2.7-13.3,4-22.2,4s-14.7-1-21.6-3-12.5-4.6-16.7-7.9l7.4-16.4c4,2.9,8.8,5.2,14.3,7.1,5.5,1.8,11.1,2.8,16.7,2.8s7.8-.4,10.4-1.3c2.7-.9,4.6-2,5.8-3.6,1.2-1.5,1.9-3.3,1.9-5.2s-1-4.5-3-6c-2-1.5-4.6-2.7-7.8-3.6-3.2-.9-6.8-1.8-10.7-2.7-3.9-.8-7.8-1.9-11.7-3.2-3.9-1.2-7.5-2.9-10.7-4.8-3.2-2-5.8-4.6-7.9-7.8-2-3.2-3-7.3-3-12.4s1.5-10.3,4.4-14.7c2.9-4.4,7.3-8,13.2-10.6,5.9-2.7,13.2-4,22.1-4s11.7.7,17.5,2.1c5.7,1.4,10.8,3.5,15.2,6.2l-6.7,16.5c-4.4-2.5-8.8-4.4-13.2-5.6-4.4-1.2-8.7-1.8-12.9-1.8s-7.7.5-10.3,1.5c-2.7,1-4.6,2.3-5.8,3.8s-1.8,3.4-1.8,5.4,1,4.4,3,5.8c2,1.5,4.6,2.7,7.8,3.6,3.2.9,6.8,1.8,10.7,2.7,3.9.9,7.8,1.9,11.7,3.1,3.9,1.2,7.5,2.7,10.7,4.7,3.2,2,5.8,4.6,7.9,7.8,2,3.2,3,7.3,3,12.2h0Z"/>
      <polygon points="1341.1 58.7 1341.1 152.7 1319.3 152.7 1319.3 114.2 1276.6 114.2 1276.6 152.7 1254.8 152.7 1254.8 58.7 1276.6 58.7 1276.6 95.8 1319.3 95.8 1319.3 58.7 1341.1 58.7"/>
      <polygon points="1505.1 58.7 1474.3 152.7 1450.9 152.7 1430.1 89 1408.8 152.7 1385.4 152.7 1354.7 58.7 1377.2 58.7 1398.5 124.8 1420.7 58.7 1440.8 58.7 1462.3 125.3 1484.2 58.7 1505.1 58.7"/>
      <path d="M1565.1,58.7h-21.5l-41.9,94.1h22.3l8.4-20.1h43.6l8.3,20.1h22.8l-42.1-94.1h0ZM1539.2,116.1l15-36,14.9,36h-29.9Z"/>
      <path d="M1679.3,122.6c0,0,.1,0,.2,0,6.1-2.7,10.8-6.6,14.1-11.6,3.3-5.1,5-11.1,5-18.1s-1.7-13.2-5-18.3c-3.3-5.1-8-9-14.1-11.8-6.1-2.7-13.3-4.1-21.8-4.1h-40.7v94.1h21.8v-26.2h18.9c.3,0,.7,0,1,0l18.1,26.2h23.5l-21-30.2h0ZM1671.6,104.8c-3.3,2.9-8.3,4.4-15.1,4.4h-17.7v-32.8h17.7c6.7,0,11.7,1.4,15.1,4.3s5,6.9,5,12.1-1.7,9.1-5,12h0Z"/>
    </g>
    <g>
      <path class="st1" d="M1392.2,211.1c2.4,1.9,6.5,5.1,10.4,5.1s2.9-.4,3.7-1.1c1-1.1.7-2.4-.1-3.1-3.2-2.7-12.7-6.4-12.7-12.6s9.3-15.3,14.7-17.6c2.9-1.2,5.8-1.7,7.8.1,1.5,1.4,2.6,3.4,3,5.1.6,2.4-.8,4.8-1.8,6-1.6,2.1-3.3,5.2-4.2,6.7-.3.5-.7.8-1.3.2-1.1-1.1-1.9-3-.6-5.8,1.3-2.9,5.8-7.9,4.3-9.4-2.1-2.1-16.9,7.1-17.2,14.6-.2,3.9,7.5,7.1,10.9,9.5,2.3,1.6,2,4.4-.7,7.5-3.6,4.1-14.1,5.3-22.6-4.9-.7-.8-.4-1.2.1-1.4,2-.6,4.5,0,6.1,1.3h0Z"/>
      <path class="st1" d="M1435.6,194.7c.5-.8,1-.9,1.4-.4.9,1.1,1.4,3.7,0,6.7-1.3,2.7-4.3,7.2-5.8,10.4-1.5,3.4-1.6,6,.5,5.8,2.5-.1,5.8-4.2,7.9-8.4.3-.5.7-.6,1,0,.2.5.2,2.1-.5,3.7-1.6,3.3-5.4,6.6-8.7,6.4-3.2-.2-4.9-2.1-4.9-4.9-1.9,2.5-4.6,4.7-7.5,4.7-5.6,0-6.7-7.6-1.8-14.9,4.9-7.1,9.6-9.8,12.7-9.8s3.8,2,3.7,4.3c.8-1.4,1.5-2.7,2.2-3.7h0ZM1430.8,197.2c-1.9-.2-6.3,3.7-9.6,9.1-3.2,5.2-4,10.5-1.6,10.5,2.5,0,5.6-3.8,8.7-9.1,3.8-6.6,4.3-10.4,2.6-10.5Z"/>
      <path class="st1" d="M1460.1,194.7c.5-.8,1-.9,1.4-.4.9,1.1,1.4,3.7,0,6.7-1.3,2.7-4.3,7.2-5.8,10.4-1.5,3.4-1.6,6,.5,5.8,2.5-.1,5.8-4.2,7.9-8.4.3-.5.7-.6,1,0,.2.5.2,2.1-.5,3.7-1.6,3.3-5.4,6.6-8.7,6.4-3.2-.2-4.9-2.1-4.9-4.9-1.9,2.5-4.6,4.7-7.5,4.7-5.6,0-6.7-7.6-1.8-14.9,4.9-7.1,9.6-9.8,12.7-9.8s3.8,2,3.7,4.3c.8-1.4,1.5-2.7,2.2-3.7h0ZM1455.3,197.2c-1.9-.2-6.3,3.7-9.6,9.1-3.2,5.2-4,10.5-1.6,10.5,2.5,0,5.6-3.8,8.7-9.1,3.8-6.6,4.3-10.4,2.6-10.5Z"/>
      <path class="st1" d="M1466.6,193c-.6-.8-.2-1.3.7-1.2,1.7,0,3.4,0,5-.2,1.9-3.3,3.6-6.1,4.6-7.5.5-.8,1.1-.7,1.4,0,.7,1.7.7,3.7-.8,6.8,2.3,0,3.2,1,3.7,1.8.4.7.2,1.1-.7,1.1-1.3-.2-3.2,0-4.7.2-2.3,4-5.8,9.9-8.1,14.9-2,4.4-1.3,8.1,1.2,8.2,2.7.1,6.1-4.1,8.4-8.7.4-.7,1-.8,1.3,0,.3,1,0,2.1-.6,3.4-.8,1.8-4.8,7.1-9.6,6.9-4-.1-7.2-4.6-4.3-11.5,1.3-3,3.8-8.1,6.4-12.8-2.1,0-3.4-.9-3.9-1.6h0Z"/>
      <path class="st1" d="M1491,218.9c-5.1,0-6.3-3.7-4.5-8.9,2-5.8,7.2-12.1,6.3-12.6-.8-.5-7.4,3.6-10.9,9.3-2.2,3.6-4.4,7.8-5.8,11.4-.2.5-.7.7-1,.2-1-1.1-1.5-2.8-.2-6.4,2.1-6,14.6-27.2,19.5-33.3.5-.7,1.1-.7,1.4,0,.8,1.8.6,4.8-1.7,8.6-1.4,2.4-4.6,7.3-7.2,11.3,2.5-2.4,5.6-4.4,7.2-4.2,2.1.2,3.9,3.2,2.3,6.3-1.3,2.6-4.2,7.1-5.6,10.2-1.5,3.5-1.2,6.3,1,6.2,2.5-.1,5.8-4.5,7.7-8.3.2-.5.8-.5,1.1,0,.3.7.3,1.9-.6,3.7-1.7,3.4-5.4,6.4-8.9,6.4h0Z"/>
      <path class="st1" d="M1518.7,209.5c-1.8,3.1-3.4,6-4.6,8.7-.2.5-.8.5-1.1.1-.7-1-1-2.8.3-6.1.4-.9.9-2.1,1.6-3.4-1.3-.7-1.8-1.6-2-2.1-.3-.8-.2-1,.7-.9.8.1,1.8.2,2.7.3,4.7-8.2,13.1-20.1,19.4-25.4,1-.8,1.6-.8,2.2,0,.6.8.8,1,1.4,2.5.6,1.4.5,2.8,0,4.4-1.6,4.8-3.2,10.9-4.4,17.5,1.8.6,2.5,1.8,2.7,3.1.1.5-.1.7-.7.5-.7-.2-1.6-.3-2.6-.4-.4,3.1-.8,6.4-.9,9.6,0,.6-.4.8-.9.5-1.2-.5-2.2-2.1-2.2-5.5,0-1.2,0-2.8.2-4.6-4.3.3-9.2,1-12,1ZM1531.1,204.8c.9-6.3,2.6-13.9,4.5-18.6-4.6,5.1-10.1,12.4-14.6,19.6,3.7-.3,7.3-1,10.2-1h0Z"/>
      <path class="st1" d="M1560.1,194.7c.5-.8,1-.9,1.4-.4.9,1.1,1.4,3.7,0,6.7-1.3,2.7-4.3,7.2-5.8,10.4-1.5,3.4-1.6,6,.5,5.8,2.5-.1,5.8-4.2,7.9-8.4.3-.5.7-.6,1,0,.2.5.2,2.1-.5,3.7-1.6,3.3-5.4,6.6-8.7,6.4-3.2-.2-4.9-2.1-4.9-4.9-1.9,2.5-4.6,4.7-7.5,4.7-5.6,0-6.7-7.6-1.8-14.9,4.9-7.1,9.6-9.8,12.7-9.8s3.8,2,3.7,4.3c.8-1.4,1.5-2.7,2.2-3.7h0ZM1555.3,197.2c-1.9-.2-6.3,3.7-9.6,9.1-3.2,5.2-4,10.5-1.6,10.5,2.5,0,5.6-3.8,8.7-9.1,3.8-6.6,4.3-10.4,2.6-10.5Z"/>
      <path class="st1" d="M1576.2,220.4c-3.3,8.1-7.6,17.6-12.5,19.6-1.2.5-2.4.3-3.5-1.3-1.3-1.8-2.3-3.9-1.2-7.5,1.8-5.4,6.9-9.1,12.9-11.4.6-1.3,1.1-2.8,1.8-4.1-1.8,1.8-3.8,3-6.1,3-5.5,0-6.6-7.5-1.8-14.8,4.7-7,9.6-9.7,12.7-9.7s3.6,1.9,3.6,4c.7-1.2,1.4-2.3,2-3.3.5-.8,1.1-.9,1.5-.4.9,1.1,1.4,3.7-.1,6.6-1.8,3.6-5.6,10.9-8.1,16.7,5.1-2.5,8.4-5.8,10.8-9,.4-.5.9-.5,1,.1.1.5-.2,1.9-1.2,3.5-2.3,3.7-6.7,6.1-11.7,7.9h0ZM1561.5,236.6c.8,1.1,5.5-5.1,9.4-14.3-7.8,4.6-10.5,12.8-9.4,14.3ZM1579.4,197.4c-1.9-.1-6.3,3.7-9.6,9-3.2,5.2-3.9,10.5-1.5,10.5,2.3,0,5.4-3.7,8.5-9,3.8-6.6,4.3-10.4,2.6-10.5Z"/>
      <path class="st1" d="M1595.3,217.2c5,.2,9.4-4.6,12-8.6.3-.5.8-.5,1,0,.2.5,0,2.2-1,3.7-2.5,3.7-7.2,6.4-11.8,6.5-7.7.1-10.3-7.4-6.4-15.2s10.1-10.9,13.1-9.1c1.5.9,2.6,1.8,3.6,3.1,1.1,1.4.6,5.1-1.9,8.2-2.9,3.6-7,5.2-11.2,1.8-1.9,5.5-.5,9.3,2.7,9.5h0ZM1600.3,203.3c1.9-2.5,3.2-5.7,2.4-6.3-1.3-1-6.3,2.6-9.1,8.3-.2.4-.4.7-.5,1,2.9,1.9,5.4-.7,7.2-3h0Z"/>
    </g>
    <g>
      <path class="st1" d="M1304.5,315c-.2.1-.5.2-.9.2-.8,0-1.5,0-2.2-.3-.7-.3-1.3-.6-1.9-1-.1,0-.2-.1-.2-.1-1.7-1.1-3-3-3.8-5.9-.2-.6-.3-.9-.3-.9v.7c.4,1.1.7,1.9.9,2.4,0,0,0,.1,0,.1,0,0-.3-.3-.6-.9-.3-.6-.6-1.6-1-2.8,0-.4-.2-1.2-.3-2.5-.2-2-.3-3.4-.2-4,.2-3.7,1-7.4,2.2-11.2.3-1,.4-1.5.5-1.5,0,0,0,0,0,0h0c0,.3-.3,1.4-.9,3.5-.3,1.1-.5,1.8-.6,2.1-.4,1.3-.7,3.2-.9,5.6s-.2,4.4,0,6.2c0,.5.1,1.1.2,1.6.1.5.2.8.2.8,0,0,0-.5,0-1.5,0-1,0-1.6,0-1.6s0-.2,0-.7c0-2.6.2-4.9.7-7,.9-3.7,1.6-6,1.9-7,1.2-3.4,2.3-6.5,3.3-9.3,1.1-2.8,1.7-4.3,2-4.5,0,0,0-.2,0-.2v-.2c0-.1,0-.2,0-.2,0,0,0,0,.2.1,0,0,.1,0,.2,0,0,0,0,0,0,0,0,0,0,0,0-.1,0-.1,0-.2,0-.2,0-.1,0-.2,0-.3,0,0,.2-.2.3-.4,0,0,0-.1.1-.1,0,0,0,.1,0,.2,0,.2,0,.3,0,.3,0,0,0,0,0,0,0,0,.2-.2.4-.6s.2-.6.2-.7h0s0,.1,0,.1c-.2.3-.3.5-.4.5h0s0,0,0,0c0,0,0,0,0,0,0-.2.1-.5.4-.8.1-.1.2-.2.2-.3,0,0,0-.1-.1-.1s0,0-.1,0h0s0-.1.2-.2c.2-.1.3-.2.4-.2,0,0,0,0,0,0s0,.1,0,.2c0,0,0,0,0,0,0,0,.4-.7,1.2-2,.8-1.4,1.2-2.1,1.2-2.2,0,0,0,0,0,0s0,0,0,0,0-.1.2-.2c.3-.3.4-.6.4-.9,0-.2,0-.4.2-.5.1,0,.2-.2.1-.4,0-.2,0-.3.1-.4.1,0,.2-.2.2-.4,0-.2.2-.4.3-.4h0c0,0,0,0,.1,0h0c0,0,0-.1,0-.2,0-.3.2-.8.6-1.4.2-.2.2-.3.2-.4s0,0,0,0c0,0,0-.3.3-.7.2-.4.4-.7.5-.8l1.1-1.9c0-.3.3-1,1.1-2,.2-.3.3-.5.3-.5h0c0-.1,0-.1,0-.2,0-.2.2-.4.4-.8.5-1,1.1-1.9,1.6-2.9.5-.9,1-1.7,1.5-2.5,0,0,0,0,0,0-.3,0-1.7.9-4.1,2.8-2.4,1.8-4,3.1-4.8,4-.4.4-.7.6-.9.6-.2,0-.3-.1-.4-.5,0-.4-.2-.9-.3-1.7,0,0,0-.1,0-.1,0-.5.2-1.2.7-2.1s1.2-1.9,2.2-2.9c.9-1,1.9-2,3.1-2.9.2-.2.5-.4.8-.8.4-.4.7-.7.7-.7s0,0,0,0,0,0,0,0c0-.2.3-.5.9-1,0,0,0,.1-.1.2,0,.1-.1.2-.2.3,0,0,0,.1-.1.2,2-1.4,3-2.1,3-2.2h0c0,0-.4.2-1.1.7-.5.3-.7.5-.8.5h0c0-.2.6-.6,1.8-1.5,1.2-.8,3.3-2.1,6.4-3.9,1.6-2.2,2.6-3.7,3.2-4.4s.9-1.2,1.1-1.2h0s0,0,0-.2c0,0,0-.1,0-.1s0,0,0,0c0,0,0,0,.1,0,0,0,.2,0,.3-.1,0,0,.2-.1.2-.1h0,0c0,.2,0,.3.2.4s.2.1.2.1,0,0,.1,0c0,0,0,0,.1,0,.2,0,.5.1.9.4s.7.5.9.8c0,0,0,0,0,0,.1.2.2.3.3.3,0,0,.2,0,.4,0h0c5.4-1.8,8.5-2.8,9.4-2.9,0,0,0,0,.1,0s0,0,.1,0h0s0,0,.1,0c.5-.3,1.9-.5,4.3-.7,2.1-.2,3.5-.3,4.2-.2,2.2.2,3.9.7,5.2,1.6s2,2.1,2.1,3.6c0,.4,0,.9,0,1.4,0,.7-.1,1.5-.2,2.4,0,.4-.1,1.1-.3,2.3-.3,1.5-.4,2.4-.3,2.8.1,1.4-.2,2.9-.9,4.6s-1.5,3.2-2.4,4.6c-.9,1.3-1.8,2.7-2.8,3.9-.3.4-.5.6-.5.7-1,1.3-2.6,2.9-4.6,5-2.4,2.4-5.3,4.9-8.7,7.5s-6.8,4.9-10.3,6.9c2.4,0,3.9,0,4.4.1.2,0,.5,0,.8.1,2,.1,4,.7,6,1.9s3.6,2.5,4.5,4.1l.8,1.4c0,.1,0,.3,0,.6,0,.7.2,1.3.2,1.7,0,.6,0,1.2,0,1.6,0,.5,0,1-.2,1.6-.2,1.2-.3,2.2-.3,3.2,0,1.3-.1,2.3-.4,3.1,0,.2-.1.4-.1.4,0,.4-.4,1.1-1.1,2.3s-1.4,2.3-2.2,3.3c-.8,1-1.3,1.6-1.5,1.6,0,0,0,0,0,0,0,0,0,0,0,0s0,0,0,0c0,.2-.4.6-1.3,1.3-.9.7-1.5,1-1.8,1,0,0-.1,0-.2,0,0,0,0,0,0,0,0,0,0,0,0,0,0,0,0,0,0,.1,0,0,0,0,0,.1s0,0,0,0h0c0,0-.2,0-.2,0,0,0,0,0,0,0,0,0,0,0,0,.1,0,0,0,0,0,.1,0,.1-.6.4-1.9.9-.4.1-.6.2-.6.2,0,.1-.2.2-.7.3-.2,0-.3,0-.4,0-.1,0-.2,0-.2-.1,0,0,0,0,0,0s0,0,.2,0c.2,0,.3,0,.3,0,.2,0,.3-.1.3-.3,0-.1.1-.2.3-.2h.2c0,0,.2,0,.2,0,.1,0,.2,0,.3-.2,0-.1.2-.2.2-.2,0,0,0,0,0,0,0,0,0,0,.1,0h0c0,0,.1,0,.1-.1,0,0,0-.1.1-.1,0,0,.2,0,.2,0,0,0,0,0,0,0,0,0,0,0,0,0h0c0-.2.3-.4.8-.7s.9-.5,1.1-.5c0,0,0,0,.1,0h0s0,0,0,0h0c0-.2.3-.5.9-1,1.3-1.1,2.5-2.3,3.4-3.6.9-1.3,1.6-2.5,2.1-3.6.4-1.1.6-1.8.6-2.1,0,0,0,0,0,0,0,0-.2.2-.4.7-.7,1.4-1.6,2.9-2.6,4.3-1.1,1.5-1.9,2.5-2.4,2.9,0,0-.3.2-.5.5-.6.6-.9.9-1.2,1-.1,0-.2.2-.4.3-.3.3-.6.4-.8.4h0c0,0,0,0-.1.1,0,.1,0,.2-.2.2-.1,0-.2,0-.2.2,0,.1,0,.1-.1.2h0s0,0,0,0c-.1,0-.2,0-.4.2,0,.1-.2.2-.3.2,0,0,0,0-.2,0,0,0,0,0,0,0,0,0,0,0,0,0h0c0,.1,0,.2,0,.2s0,0-.2,0c0,0-.1,0-.2,0,0,0,0,0,0,0h0c0,0,0,.1,0,.1,0,.1-.2.2-.7.2-.1,0-.3.1-.4.2,0,0-.4.3-.9.5-.8.4-1.2.6-1.2.8,0,.1-.2.2-.3.2,0,0,0,0-.2,0-.1,0-.2,0-.3,0,0,0-.1,0-.1,0-.2.1-.6.2-1.3.3-.3,0-.4,0-.4.2h0c0,0-.2.2-.7.2-1.4.2-2.7.3-3.9.4s-2,.2-2.5.1c-.5,0-1,0-1.4-.2-.4,0-.8-.1-1.2,0-.3,0-1-.1-2.3-.3-1.3-.2-2.1-.3-2.3-.4-.1,0-.2-.1-.2-.1s0,0,0,0h0c-.2,0-.8-.1-1.7-.4-.9-.3-1.9-.7-3-1.3-1.1-.5-2-1.2-2.8-1.9l-1.2-1c-.2.8-.1,2.2,0,4.2.1,1.4.5,2.3,1.1,2.7.6.4,1.2.6,1.9.6.2,0,.3,0,.3,0,0,.1,0,.2-.2.3h0ZM1312.1,306.5c1.4,0,2.7-.1,4.1-.3,2.3-.2,4.3-.6,5.9-1.1s3.2-1.2,4.7-1.9c.7-.3,1.1-.5,1.2-.5,0,0,0,0,0,0h0c0-.2.4-.4,1-.7.5-.2,1.1-.6,1.9-1,.5-.3.7-.4.8-.4h0s.1-.1.3-.3c.2-.3.4-.4.6-.4s.5-.2,1.1-.6c.6-.4,1-.7,1-.8.1-.1.4-.4.9-.8.9-.8,1.7-1.6,2.4-2.4.7-.9,1.3-2,1.9-3.5-.8-1.6-1.7-2.9-2.7-4s-2.3-2-4.1-2.8c-.4-.2-1.1-.5-2.1-.8-.7-.2-1.2-.4-1.3-.5,0,0,0,0,0,0s0,0,0,0c0,0,0,0,0,0s0,0-.2,0c-.3-.1-.9-.2-1.8-.3-.1,0-.3,0-.6,0-.6-.1-1.2-.2-1.9-.2-.7,0-1.7,0-3.1.1-1.8.2-3.5.4-5.2.8s-2.9.7-3.6,1.1c-.5.3-.9.4-1,.4-.2,0-.3,0-.4-.2s-.2-.4-.3-.7c-.1-.3-.2-.5-.3-.5-.2,0-1.2,1.6-2.8,4.8s-3.1,6.3-4.5,9.5c-1.4,3.2-2.1,5.2-2,5.8,0,.3.8.7,2.4,1.1s3.1.8,4.6.9c.8,0,1.9.1,3.2,0h0ZM1314.8,278.9c.7-.5,1-.9,1-1.1,0,0,0,0,0,0h0s0,0,0,0,0,0,0,0h0c.2,0,.5-.2,1-.6s.7-.7.8-.8c0,0,0,0,.1-.1,0,0,0,0,0,0h0c0,0,.1,0,.2-.2,0,0,0-.1-.1-.2h0c0,0,.2-.2.4-.6,0,0,0-.1,0-.1,0,0,0,.1,0,.2v.4c0,.1,0,.2,0,.2,0,0,0,0,.1-.2,0,0,0,0,0,0,0,0,0,0,0,0,0-.1,0-.3.3-.6.2-.2.4-.4.5-.4,0,0,.1,0,.1.1,0,.1-.2.3-.5.6v.2c0-.1,1.1-.9,3-2.2s3.6-2.8,5.3-4.1c1.7-1.4,2.5-2.1,2.5-2.3,0,0,0-.1-.1-.1,0,0-.1,0-.1,0,0,0,0,0-.2.2-.2.2-.3.4-.5.4h0c0,0-.1,0-.1.1h0c0,.2,0,.2-.2.3h0c-.2,0-.4.2-.8.6-.2.2-.4.4-.5.4h0c0,0-.1,0-.2.2,0,.2,0,.2-.2.2,0,0,0,0,0,0s0,0,0,0c0,0-.2.1-.3.3-.1.2-.3.4-.4.4,0,0-.3.1-.5.4-.3.2-.5.4-.6.4,0,0-.1,0-.2,0h0s0,0,0,0,0,0,0,0h0c0,.2-.8.9-2.3,2.2-1.6,1.3-2.4,2-2.6,2,0,0,0,0,0,0,0-.2.2-.4.6-.8.4-.4.8-.6,1.1-.8,0-.1.8-.8,2.2-1.9,1.4-1.1,2.2-1.7,2.2-1.7s.2,0,.3,0h0s0,0,0,0h0c-.1-.1-.2-.2-.2-.2,2.4-2,4.4-3.7,5.9-5,1.5-1.3,3-2.5,4.6-3.8,1.5-1.3,2.8-2.3,3.8-3.2s1.5-1.3,1.6-1.3,0,0,0,0c0,0-.4.5-1.4,1.3-.5.4-.7.6-.7.6,0,.1-1.5,1.4-4.4,3.8-3.2,2.7-4.8,4.1-4.8,4.2,0,0,0,0,0,0,0,0,0,0,0,0,0,0,0,0,0,.1,0,0,0,.1-.1.1s0,0-.2-.1c0,0-.1-.1-.2-.1s-.2,0-.2.2c0,0,0,0,0,0h0s0,0,0,.1c0,0-.2,0-.4,0,0,0,0,0,.2.1,0,0,.2.1.2.2,0,0,.1.1.2.2,1.8-1.4,3.2-2.5,4.1-3.3.9-.8,1.4-1.2,1.4-1.2,0,0-.1,0-.3.2-.4.2-.6.3-.7.3s0,0,0,0c.2-.2.4-.4.6-.5h0c0-.1.3-.3.8-.6,0,0,0,0,.2.2,0,0,0,0,0,0s0,0,0-.2c0-.2.2-.4.7-.8.4-.4.8-.6,1-.6,0,0,0,0,.1,0h0s0,0,0,0h0c0-.3.8-1.1,2.4-2.4s2.5-1.9,2.5-2h0c0,0,.1,0,.3-.2.5-.5.9-.9,1.3-1.3,2.3-1.9,4.4-4.2,6.3-6.8s2.8-4.2,2.8-4.9c0-.1,0-.2-.1-.2-.1,0-.3.2-.6.6-.3.4-.6,1-1.1,1.7-.5.7-.8,1.3-1.1,1.6-.2.4-.4.6-.6.6,0,0,0,0,0,0,0,0,.3-.5.8-1.3,1.1-1.6,1.8-2.6,1.9-3.1,0,0,0-.2,0-.3,0-.3-.4-.7-1-1-.6-.4-1.4-.7-2.4-.9-1-.3-1.9-.4-3-.5-1,0-2.2,0-3.7.1-2,.2-3.8.5-5.6.9-1.7.4-2.7.9-2.9,1.3-.5,1-1.6,2.8-3.1,5.4-5.1,8.6-10.4,18.1-15.9,28.3-1.2,2.2-1.8,3.3-1.8,3.4,0,0,0,0,0,0s0,.1,0,.2c0,0,0,.1,0,.2,0,0,0,0,0,0,.1,0,.5-.3,1.2-.8h0ZM1321.4,313.2s0,0,0,0c0,0,0,.1,0,.1h0v.2c0,0-.2-.1-.2-.2h0ZM1321.5,313.5h0s0,0,0,0ZM1324.6,278.7c4.7-2.7,9.2-5.8,13.6-9.4s8-7.1,11-10.7c2.9-3.5,4.8-6.6,5.4-9.1.2-.8.3-1.2.3-1.3h0c0,0-.2.3-.5,1-1.9,4.5-5.4,9.3-10.5,14.4-5.1,5.1-11.1,9.8-17.9,14.1-1.5,1-2.2,1.5-2.2,1.5h0c0,0,.4-.1.9-.4h0Z"/>
      <path class="st1" d="M1376.6,300c-1.1-.3-2.2-.9-3.4-1.9-.4-.4-.8-.8-1.2-1.3-.4-.5-.6-.9-.6-1.1,0,0,0,0,0-.1,0,0,0-.1,0-.1,0-.2,0-.4-.2-.5-.1-.3-.3-.6-.4-1-.1-.4-.2-1.1-.3-2.1-.2-1.9-.2-3.7,0-5.3.1-1.6.3-3.2.6-4.8.1-.8.2-1.2.2-1.4,0,0,0,0,0,0-.1,0-.3.4-.4,1.2-.2.6-.3,1-.3,1,0,0,0,.2,0,.5,0,.5,0,.9-.1,1-.1,0-.2.2-.2.2,0,.2,0,1.5-.2,3.7,0,0,0,.5,0,1.2,0,.9,0,1.7,0,2.3,0,.6,0,.9,0,.9s-.1-.3-.2-1c-.2-2.5-.2-5.1.1-7.7,0-.4,0-.6,0-.7,0,0-.3.3-.7.9-.3.5-.5.8-.6.8h0c0-.2.2-.3.1-.4,0,0,0-.1,0-.1,0,0-.2.1-.3.3,0,.2-.1.4-.1.5,0,0,0,.1,0,.1,0,0,0,0,0,0,0,0,.2,0,.2,0,0,0-.1.2-.4.5,0,0,0,0,0-.1,0,0,0-.1,0-.1,0,0,0,0,0,0-.1,0-.3.1-.5.4s-.4.7-.7,1.2c-.3.5-.5.9-.6,1.1-.9,1.1-1.5,1.9-1.7,2.4,0,0,0,0,0,.1,0,0-.3.2-.7.6-.3.4-.5.6-.5.7,0,0,0,0,.1-.1,0,0,.1,0,.1,0,0,0,0,.2-.3.5s-.3.4-.4.4c0,0,0,0,0,0s0,0,0-.1h0c0,0-.2,0-.3.2s-.2.3-.2.4h0c0,.2,0,.2-.2.2,0,0,0,.1-.2.3-.1.3-.2.5-.3.5h0s0-.1,0-.1c0-.1,0-.2,0-.2,0,0,0,0,0,0-.1,0-.5.4-1.1,1-1.2,1.3-2.2,2.3-3,2.9-.2.1-.3.2-.3.3,0,0,0,0,0,0,0,0,0,0,0,0,0,0,0,.2-.2.3s-.3.2-.5.2c0,0-.1,0-.2,0,0,0,0,0,0,0s0,0,0,0c0,0,0,0,0,0h0c0,0,0,.1,0,.1,0,.1-.2.2-.5.4s-.7.2-1.1.2c-.6,0-1.1,0-1.5-.1-1.3-.6-2.3-1.1-3-1.7s-1.3-1.2-1.7-1.9c-.4-.7-.6-1.6-.7-2.6-.2-1.6.2-3.5.9-5.8.8-2.2,1.9-4.4,3.4-6.6,1.5-2.2,3.1-4,4.8-5.5.9-.8,1.4-1.3,1.3-1.4h0s0,0,.1,0c0,0,.1,0,.2,0,.2,0,.4-.2.7-.5,0-.1.1-.2.2-.2s0,0,0,0h0s0,0,0,0c.6-.5,2.2-1.3,4.9-2.5h1.5c1.1-.1,2.3,0,3.4.6,1.1.5,2,1.1,2.6,2,.3.4.4.5.6.5.1,0,.3-.3.5-.7.5-1.1,1.3-2.4,2.4-3.8,1.1-1.4,1.8-2,2.2-2.1.1,0,.2,0,.2.2,0,.1,0,.2-.3.2-.2,0-.7.5-1.5,1.5s-1.6,2-2.2,3.1c-.7,1.1-1,1.9-.9,2.3,0,.2,0,.2.1.2s.4-.5,1.1-1.5c1-1.5,1.9-2.7,2.8-3.7s1.6-1.5,2.2-1.6c.3,0,.6,0,.9.2s.6.3.9.6c.3.2.4.3.5.3,0,0,.2,0,.2.1v.2c0,.2,0,.3.2.3,0,0,0,0,0,0,.1,0,.2,0,.4.3,0,.2.2.2.2.2,0,0,0,0,0-.1s0,0,0,0h0c0-.1,0-.2.1-.2.1,0,.2,0,.2.2,0,0,0,.2-.1.2-.1.1-.2.2-.1.3,0,.1,0,.2.2.2h.1c0,0,.2,0,.2.2,0,.2,0,.3-.1.3,0,0,0,0,0,0,0,0,0,0,0,.1,0,.1,0,.1.3.1.2,0,.3-.1.3-.2,0,0,0-.1,0-.2,0-.1,0-.1,0-.2,0,0,0,0,0,0s0,.1.2.3.2.4.2.4,0,0,0,0h0s0,0,0,0c0,0-.2.1-.3.4-.1.2-.2.4-.3.4h0c-.3.6-.4.9-.4.9h0c0,.1,0,.1,0,.1,0,0,0,0-.2,0,0,0-.1,0-.2,0,0,0-.1,0-.1.1s0,0,0,.1c0,0,0,0,0,0,0,.1,0,.3-.3.4-.2.2-.3.3-.3.4,0,.1,0,.3-.3.4-.2,0-.3.2-.3.3,0,0,0,0,0,.1,0,0-.2,0-.2,0,0,0,0,0,0,0h0c.2.3.2.5.3.6,0,0,0,.1,0,.1,0,0-.2-.1-.2-.2s0,0,0-.1h0c0,0,0,0,0,0-.2.1-.2.2-.2.3,0,0,0,0,0,0h0c0,.1-.1.2-.4.2-.2,0-.3,0-.3.1h0c0,0,0,0,0,0s0,0-.1.1c0,0-.1,0-.1.1,0,.1,0,.2.2.2,0,0,.1,0,.1,0h0c-.3.5-.4.8-.4.9,0,0,0,0,0,0h0c0,0,0,.1,0,.1,0,0,0,0,0,0,0,0,0,0-.1,0,0,0-.2,0-.2.1,0,.1,0,.1-.2.2-.1,0-.2.1-.3.3,0,.2-.1.3-.1.4,0,0,0,0,0,0h.1s0,0-.1.2c-.2.3-.3.5-.3.6h0c0,.1,0,.1,0,.2-.2,0-.2.1-.2.3,0,.1,0,.2-.2.2h-.2c0,0-.1,0-.1,0s0,0,0,.1c0,.1,0,.2.2.2h.1s-.1.1-.1.1c-.4.5-.7.9-.6,1.1,0,.2,0,.4,0,.6s-.2.3-.3.3c0,0-.1,0-.1,0,0,0,0,0,0,0h0c0,0,0-.1,0-.1,0,0-.2,0-.2.1,0,0-.1.2-.1.2,0,0,0,0,0,0s0,0,.1,0h0c0,0,.2,0,.2,0s0,.1-.2.2c-.1.1-.2.2-.2.2,0,0,0,0,0,0,.1,0,.2,0,.2.2,0,0,0,.1,0,.1,0,0,0,0-.1,0h0s0,0,0,0v.2c0,.2,0,.3,0,.3,0,0,0,0-.1,0h0s0,0,.2.2c.2.1.3.3.4.4l-.8-.3c.2.5.3.7.5.7h0c0,0,0,0-.1.1,0,0-.1,0-.2,0,0,0-.1,0-.2,0-.2,0-.4.3-.4.8,0,0,0,.1.1.2h0c0,0,0,0,0,0,0,0,0,0-.2-.1s-.2-.1-.2-.1,0,0,0,0c0,.1,0,.2,0,.4,0,.1.1.2.2.2,0,0,0,0,0,0h0c0,.2-.2.2-.3.3,0,0-.1,0-.2.2,0,.1,0,.3,0,.6,0,.6-.2,1-.3,1.2-.1.1-.2.4-.2.8,0,.3,0,.5-.2.5,0,0-.1,0-.1.1h0c.1,0,.2,0,.2.1,0,0,0,0,0,.1,0,0,0,.1,0,.1,0,.1,0,.2.2.3,0,0,0,0,0,.1,0,0,0,0-.2,0,0,0-.2,0-.2,0,0,0,0,0,0,0,0,0,0,0,0,.1,0,0,0,.1,0,.1,0,0,0,0,0,0,0,0,0,0,0,0h0s0,0,0,.1c0,0,0,0,0,.1,0,.1,0,.2,0,.3,0,.2,0,.3-.1.3,0,0,0,0,0,.1,0,0,0,0,.1,0s.1,0,.2,0c0,0,0,0,0,0s0,0,0,0,0,0-.1.2c-.2.3-.4.6-.3.7,0,0,0,.1.1.2.1.2.2.5.2.8,0,.2,0,.3,0,.3,0,0-.1,0-.1-.2h0c0-.1,0-.2,0-.2,0-.1,0-.1,0-.1s-.1.1,0,.4c0,.3.1.7.3,1.1,0,.2.2.4.2.5,0,.2,0,.2-.2.2h-.3s0,0,.2.2c.2.2.3.3.3.4s0,.2-.1.3h0c0,0,.2,0,.2,0,0,0,.2.2.3.5,0,.1,0,.2,0,.3h.3c.1,0,.2,0,.4.3.1.1.2.2.3.2h0c0,0,0,0,.1.2,0,.2,0,.2-.1.2,0,0-.1,0-.2-.1,0,0-.1-.1-.3-.1-.1,0-.2,0-.2,0h0s0,.1.2.2c.5.3.8.5.9.5,0,0,0,0,0,0h0c0,0,0,0,0,0,.8.9,1.4,1.4,1.8,1.3,0,0,0,0,0,0,0,0-.1-.2-.4-.4-.4-.3-.6-.5-.6-.6,0,0,.2,0,.4.2.2.2.6.5,1.3,1.1.3,0,.7,0,1.2-.1.6,0,1.1-.1,1.6-.2.8,0,1.3,0,1.3,0,0,.1-.3.3-.8.4-.6.2-1.3.3-2.2.4-1.5.1-2.8,0-3.9-.2h0ZM1355.6,295.1c1-.6,1.9-1.2,2.7-1.9,1.4-1.2,3.2-3.1,5.4-5.9,2.2-2.7,4.2-5.3,5.9-7.9,1.7-2.5,2.5-4,2.5-4.6,0-.2-.4-.3-1.1-.2-.3,0-1.3.3-2.8.7s-2.2.7-2.2.7c0,0-.4.4-1.1.8-1.7,1.1-3.2,2.2-4.2,3.2-.8.8-1.9,1.9-3.1,3.4-1.2,1.5-1.8,2.3-1.8,2.5l-1.7,3s-.1.3-.3.8c-.5,1.1-.8,2.1-1.2,3.1-.3,1-.4,1.8-.4,2.5,0,.2,0,.4.2.5s.3.1.7.1c.7,0,1.6-.4,2.6-.9h0ZM1375.9,297.1c0,0-.1-.1-.3-.2h-.3s0,.1.1.2c.1.1.2.2.3.2,0,0,.1,0,.1-.2h0ZM1376.5,295.5c0-.3-.1-.6-.2-1.1,0-.7,0-1.1,0-1.2,0-.1,0-.3,0-.5,0-.6,0-1.2.2-1.8,0-.2,0-.3,0-.3,0,0,0,0-.2,0,0,0,0,0,0,0,0,0,0,0,0,0,.2-.1.2-.2.2-.3,0,0,0,0,0,0,0,0,0,0,0,0,0-.1,0-.4.2-.7.1-.2.2-.4.2-.5,0,0,0-.1,0-.1s0,0-.1,0h0c0,0,0,0,0,0,0,0,0,0,0-.1s0-.1.2-.1,0,0,0,0h0c0,0,.2,0,.2-.2,0,0,0-.1-.2-.1-.1,0-.2,0-.2,0h0c.2-.2.2-.3.2-.5,0-.2,0-.3.1-.5,0,0,0-.2,0-.2,0,0,0,0,0,0h0c0-.2,0-.3.3-.4.2,0,.2-.1.2-.2,0,0,0,0,0-.2-.1-.1-.2-.3-.2-.4,0-.2,0-.3.1-.3h0c0,0,.1,0,.2-.1,0-.1.1-.3.3-.4.1-.1.2-.2.2-.2,0,0,0,0,0-.1,0,0-.2,0-.2-.2,0,0,0,0,0,0,0,0,0,0,0,0,0-.1-.1-.2-.4-.4-.2-.2-.3-.3-.3-.4,0,0,0-.1.2-.1.2,0,.2,0,.2,0h0c-.1.1-.2.2-.2.2,0,0,0,.1.2.2,0,0,.2,0,.3,0,.2,0,.4-.2.6-.4s.2-.5.2-.8c0-.2-.1-.5-.3-.8,0,0,0-.1,0-.2,0,0,0,0,0,.1.2.2.4.3.5.3s.2,0,.3-.2c0-.1,0-.3.1-.5,0-.3.1-.4.2-.5.1,0,.2-.1.2-.2,0,0,0,0,0,0,0,0,0,0,0,0,0,0,0,0,.1-.2.2-.2.3-.4.3-.7,0-.3.3-.8.9-1.6.1-.1.2-.2.2-.2,0-.3.2-.7.5-1.2.2-.3.2-.4.2-.5s0,0,0,0,0,.1-.2.3c-.2.2-.3.3-.3.3,0,0,0,0,0,0,0,0,0-.2.1-.3,0-.1,0-.2,0-.3,0,0,0,0,0-.2h0c0,0,0,0,0,0,0,0,0,0,0,0h0c.4-.6.6-.8.7-.8,0,0,0,0,0,0s0,.1-.2.3c-.2.3-.2.4-.2.5s0,0,0,0c0,0,.2-.1.3-.3s.2-.4.2-.5c0,0,0,0,0,0,0,0,0,0,0-.1,0-.1,0-.2,0-.3,0,0,.1-.1.2-.1h0s0,.1,0,.2h0c0,.1.2,0,.3-.1s.2-.3.2-.4c0,0,0,0,0,0,0,0,0,0,0,0,0,0,0,0-.1,0-.1,0-.2,0-.2-.1,0-.1,0-.4.3-.6.2-.3.3-.4.5-.4,0,0,0,0,0,0s0,0,0,.1c0,0-.1.1-.1.2,0,0,0,.1.2.1,0,0,0,0,0-.1,0,0,0-.1,0-.1,0,0,0,0,0,0h0c0,0,.1,0,0-.2,0-.2,0-.2-.2-.2h-.2s0,0,0,0c0,0,.1-.2.4-.5.4-.4.7-.7.8-.9,0-.2,0-.3.2-.3,0,0,0,0,0,0,0,0,0,0,.1,0,.2,0,.3-.1.4-.3s.1-.4.2-.7c0-.2,0-.3,0-.3.2,0,.4.5.6,1.5,0,0-.1.2-.2.3-.9,1.4-1.5,2-1.7,2h0s0,0,0,0,0,0,0,0c0,0,0,0,0,.1,0,.2,0,.4-.3.8-.2.3-.4.5-.5.5,0,0-.1,0-.1.1h0c0,.3-.7,1.7-2.2,4.4-1.2,2.1-1.8,3.2-1.8,3.4,0,0-.1.3-.3.8-.8,2.1-1.2,3.4-1.3,3.8,0,0,0,0,0,.1-.3,1.7-.5,2.6-.6,2.7,0,0,0,0,0,0,0,.3-.1.5-.2.6,0,1.3,0,2.5-.1,3.8,0,.7,0,1-.1,1,0,0-.1-.1-.2-.4h0Z"/>
      <path class="st1" d="M1413.3,294.8c-1.5-1.5-2.3-3.9-2.7-7.2-.2-2.1,0-4.8.5-8.3,0-.5,0-.8,0-.8,0-.2,0-.3.1-.3,0-.1.3-.7.5-1.8.3-1.1.4-1.7.4-1.9,0,0,0,0,0,0h0c0-.1,0-.2.3-.4,0,0,.1-.1.1-.1,0,0,0,0,0,0,0,0,0,0,0,0,0,0,0-.2.2-.3,0,0,0-.1,0-.1,0,0,0,0-.2,0h0s0,0,0,0c0-.1,0-.5.3-1,.2-.5.3-.8.5-.8h0s0,0,0,0c0,0,0,0,0-.1,0-.2,0-.7.3-1.5s.6-1.6,1-2.5c-.5.5-.9,1.3-1.4,2.5-.2.5-.4.8-.5.8s0,0,0-.1h0c0-.2,0-.3-.1-.3-.2,0-.4.3-.8,1-.3.5-.4.7-.6.7-.2,0-.3.1-.5.3-.2.2-.2.4-.2.5,0,0,0,0,0,0h0c0,.1,0,.2-.2.2-.2,0-.3.2-.2.4,0,0,0,0,0,.1,0,.1,0,.1,0,.1s0,0-.1-.1c0,0-.1-.1-.2-.1h0c0,.4-.1.6-.3.7-.2.2-.3.3-.3.6,0,0,0,.1,0,.1,0,0,0,0,0,0h0c-.2,0-.3.1-.4.3,0,0,0,0,.1,0,.2,0,.2,0,.2.1,0,0,0,.1-.1.1,0,0,0,0-.2,0,0,0,0,0,0,0,0,0,0,0,0,.1h0c0,.1,0,.1,0,.1,0,.2-.8,1.4-2.4,3.5-.8,1.1-1.2,1.7-1.2,1.7,0,0,0,.1-.2.2-.4.5-.6.9-.6,1.1,0,0,0,0,0,0-.2,0-.4.1-.6.4-.2.2-.3.5-.2.7,0,0,0,0-.2.1-.2,0-.4.2-.5.4-.3.6-.7,1.1-1.1,1.4-.1,0-.2.1-.2.2,0,0,0,0,0,0,0,0,0,.1,0,.1s-.2.2-.4.5c-.7.8-1,1.3-1,1.3,0,.1-.1.2-.3.3-.3.1-.4.3-.4.4,0,0,0,0,0,0h0c0,.1,0,.2-.1.2-.2,0-.6.4-1.3,1-.2.2-.4.4-.5.5-.8.8-1.6,1.3-2.4,1.6-.8.3-1.7.5-2.8.6-.8-.6-1.4-1.1-2-1.6-.2-.2-.3-.3-.5-.2-.2,0-.6-.3-1.2-.8-.6-.6-.9-1-1-1.4h0c-.4-1.4-.7-2.5-.8-3.5-.2-2,.1-4.1.9-6.4.8-2.2,2-4.4,3.5-6.4s3.2-3.6,5-4.9,3.7-2,5.5-2.2c.8,0,1.5,0,2.1.1.6.2,1.2.4,1.5.7.4.3.6.5.6.6h0s-.2,0-.4-.2c-.5-.3-1.1-.6-1.7-.8-.6-.2-1.3-.3-2-.2-1.7.2-3.4.9-5.3,2.2s-3.7,3.1-5.3,5.2c-1.6,2.1-2.8,4.4-3.6,6.8-.3.9-.4,1.4-.4,1.5,0,0,.3-.5.7-1.6,1.3-3.3,3.1-6.1,5.4-8.4.7-.6,1.1-1.1,1.2-1.4,0,0,0,0,0,0s0,0,0,0c0,0,.1,0,.2,0,0,0,.2,0,.2-.3,0-.2.1-.2.2-.3,0,0,.4-.2,1-.6.9-.6,1.9-1.2,3-1.6,1.1-.4,2.2-.7,3.2-.8.9,0,1.9,0,3,.4.2,0,.4.1.4.1.4,0,1.5,1.5,3.3,4.5l.2.4s.3-.4.8-1c.5-.7,1.3-1.8,2.4-3.3,1.1-1.5,2.7-3.7,4.8-6.7.7-1,1.5-2.2,2.5-3.7.4-.6.7-1.1.9-1.3.2-.2.3-.4.4-.4.1,0,.9-1.1,2.4-3.3,1.5-2.2,2.3-3.4,2.2-3.6,0-.1,0-.3.2-.5.2-.2.4-.4.7-.7,0,0,0,0,0,0-.3.4-.4.6-.4.7,0,0,.3-.2.7-.7s.6-.8.6-.9c0,0,0,0,0,0h0c0,0,0-.1,0-.2.2-.1.5-.3.7-.6,1.3-1.7,2.3-2.5,3.2-2.6.3,0,.8.2,1.3.6.5.4,1,.9,1.4,1.5.4.5.7.9.7,1,0,0,0,0,0,0,0,0,0,0,0,.1,0,0,0,.2.1.4,0,.1,0,.3,0,.3,0,0,0,0,0,0-.2.2-.4.7-.6,1.3,0,0,.1,0,.2,0,.2,0,.2-.1.3-.1s0,0,0,0c0,0-.2.2-.5.4-.2.2-.3.3-.3.4h0s0,0,.1,0c0,0,.1,0,.1,0h0s0,.1-.2.2c-.4.3-.7.6-.6.8,0,.3,0,.4,0,.5,0,0,0,0,0,0,0,0,0,0,0-.1,0,0,0-.1,0-.1,0,0-.1,0-.2.2s-.1.2-.1.3,0,.1.1.2c0,0,0,0,0,.1,0,0,0,.1,0,.2,0,0,0,0-.1,0h0s0-.1,0-.1c0,0,0-.1,0-.1,0,0,0,0,0,0,0,0-.2.1-.4.3-.2.2-.3.3-.3.4h.1c0,0,0,0-.2.1-.2.3-.3.4-.3.6,0,0,0,.1,0,.2,0,0,0,0,0,.1,0,0,0,0,0,0h0c0,0-.1,0-.2,0-.1,0-.3.1-.4.3-.1.2-.2.3-.2.4h0c0,.2-.1.3-.4.5-.2.2-.3.3-.3.3,0,0,0,0,0,0,0,0,.2,0,.2,0,0,.1,0,.2-.2.2h0c0,0-.1,0-.1.3,0,.1,0,.2.2.3,0,0,0,0,0,0,0,0,0,.1,0,.2,0,0-.2,0-.3-.3,0-.1-.1-.2-.2-.2,0,.3-.3.9-.9,1.9-.3.4-.4.6-.4.7s0,0,.1.1c0,0,.1,0,.1,0h0s0,0,0,0c0,0,0,0,0,0,0,0,.2-.3.5-.6.3-.3.4-.4.4-.5h0s0,0,0,0c0,0,0-.1,0-.2,0,0,0,0,.1,0h0,0c0,.1,0,.2,0,.2,0,0,0,0,0,0,.1,0,.2,0,.2-.2,0,0,0-.2-.2-.2,0,0-.1-.1-.1-.2,0-.1,0-.2.3-.2.2,0,.3-.1.4-.2s.1-.2.1-.4c0-.1,0-.2,0-.2,0,0,0,0,.1,0,.2,0,.3-.2.5-.6h0s0,0-.2.1c-.2.2-.3.3-.4.3h0c0-.1.3-.6,1-1.7,1.2-1.8,1.8-2.8,1.8-3.1h0c0,0,0,0,0-.1h0s0,0,0,0c.3,0,1-1.1,2.1-3.2,0,0,0,.1,0,.2,0,.3.1.5.2.6,0,.2,0,.4-.2.7,0,.2-.2.3-.1.3,0,.2,0,.3-.1.3-.3.4-.6.9-1,1.4-.6.9-1,1.5-1.2,1.6,0,0,0,0,0,0h0s0,0,0,.1c0,0,0,.2-.3.4-.3.3-.4.4-.4.5,0,0-.3.6-1,1.5-1,1.3-1.4,2-1.4,2.2,0,0-.1.1-.4.3-.4.3-.7.5-.7.6,0,0,0,0,0,0s0,0,.1,0c0,0,.2,0,.2,0,0,0,0,0,0,0,0,0,0,.2-.2.3-.2.2-.3.3-.4.4,0,0,0,0,0,0h0c-.1.3-.2.4-.2.4s0,0,0,0c0,.2-.3.7-.9,1.8-.7,1-1.1,1.6-1.3,1.7-.2.1-.3.2-.3.2h.3c0,0,0,0,0,0,0,.2-.2.6-.8,1.5s-.9,1.3-1,1.3c-.1,0-.2,0-.2.1,0,.1,0,.1.2.1,0,0,.1,0,.1,0,0,.1-.2.5-.7,1.3-.5.8-.8,1.2-.9,1.2,0,0-.3.4-.8,1.3-.6,1.1-1,1.7-1.1,1.7,0,0,0,0,0,0h0,0s0,0,0,.1c0,.2,0,.4-.1.7-.1.3-.3.7-.6,1.3-.4.8-.7,1.5-.9,2-.2.5-.6,1.2-1.2,2.1-.3.4-.4.6-.4.7,0,0,0,0,0,0s0,0,0,0h0c0,0,.1,0,.1.1,0,.1,0,.2-.1.2h0c-.2,0-.3,0-.4.2,0,0,0,0,0,0h0c0,0,.1,0,.2,0v.2c0,.1,0,.2,0,.2h0s0,0,0,.2c0,.2,0,.4,0,.5,0,0,0,0,0,.1,0,0,0,.1.1.2,0,0,0,0,0,0s0,0-.1,0,0-.1,0-.2c0,0,0-.1,0-.2,0-.1,0-.2,0-.2-.2,0-.6,1-1.2,3.1-.1.5-.2.7-.2.8-.5,1.4-.8,2.6-1,3.7,0,.4-.1.5-.2.5h0s0,0,0,0c0,0,0,0,0,.1,0,.1,0,.2,0,.3,0,.2,0,.4-.2.4,0,0,0,0-.2,0s-.1,0-.2,0c0,0,0,0,0,.1,0,.1,0,.2.2.4.1.2.2.3.2.5,0,.2,0,.4,0,.5s-.2.2-.3.3c-.1.1-.2.2-.2.3,0,0,0,.2,0,.4,0,.1,0,.2.2.4,0,0,0,.1,0,.1s0,0,0,0c-.1,0-.2.1-.2.2,0,0,0,0,0,.1,0,.1,0,.2,0,.4,0,.1,0,.2,0,.2s0,.1.1.2c0,0,0,.1.1.2,0,.1,0,.2,0,.3,0,0,0,0,0,0,0,0,0,0,0,0h0c0,0,.2.2.3.8,0,.6.2.9.3.9,0,0,0,0,0,0h0c0,0,0,.1,0,.2,0,.1,0,.2.3.2,0,0,0,0,0-.1,0,0,0,0,0,0,0,0,0,0,0-.1,0,0,.2.1.3.4.1.4.5.7,1,.9.6.2,1.2.3,1.8.2.4,0,.9-.2,1.3-.4.2-.1.3-.1.4-.2.1,0,.4,0,.8.2,0,0,0,0,0,0,0,0,0,0,0,0-.4.3-.8.5-1.1.7-.3.1-.9.3-1.6.3-2.1.2-3.9-.4-5.4-1.9h0ZM1391.2,289.3c.1,0,.2-.2.2-.6,0-.4,0-.5.2-.5,0,0,0,0,0,0h0s0,0,0-.1c0,0,0-.1,0-.2,0-.1,0-.2,0-.2,0,0,0-.2.1-.3.2-.3.2-.6.2-.8,0,0,0,0,.1-.2.2-.2.3-.4.3-.6,0-.1,0-.3.2-.4s.3-.2.5-.2c0,0,0,0,0-.1,0,0,0-.2,0-.3,0,0,0-.1,0-.1,0-.2,0-.2.2-.3,0,0,.1,0,.1-.1h0c0-.1,0-.1,0-.2,0-.1,0-.2,0-.2,0,0,.2,0,.3.2,0,0,.1,0,.1,0,0,0,0,0,0-.1,0,0,0-.1,0-.1,0-.1,0-.3.3-.6,0-.1,0-.2,0-.2h0s0-.2.3-.5c.8-1,1.1-1.6,1.1-1.8,0,0,0,0,0,0h0s0,0,0,0,0,0,.1,0c0,0,.2,0,.2,0,0,0,0,0,0,0,0-.1.4-.6,1.1-1.4.8-.8,1.2-1.2,1.4-1.2.1,0,.2,0,.2-.2,0-.1.5-.6,1.5-1.5,1-.9,1.6-1.3,1.8-1.3,0,0,0,0,.2,0h0s0,0,0,0,0-.1,0-.2c0,0,0,0,0-.1h0s0,0,.2.1.1.2.2.3c0,.1,0,.2,0,.3,0,0,0,.1-.1.1h0c-.2,0-1.3,1.1-3.4,3.2s-3.6,4-4.5,5.4c-.3.5-.6.7-.7.8h0s0-.1,0-.2h0c0,0,0-.1,0-.1,0,0,0,0-.1,0,0,0,0,.1,0,.1,0,0,0,.1,0,.2,0,0,.1.1.1.2,0,0,0,.2-.3.4-.2.2-.3.3-.3.4,0,0,0,0,0,0,0,0,0,0-.1.1,0,0-.1.1-.1.2,0,0-.1.4-.4,1.1-.4,1-.6,1.6-.5,1.7,0,.1.1.2.3.1.3,0,.5,0,.6-.1,0,0,.1-.1.4-.2,1.6-.9,3.2-2,4.8-3.4.6-.5,1.7-1.8,3.5-3.9s3.4-4.1,4.9-6c1.6-1.9,2.3-3,2.3-3.1,0-.2-.2-.3-.6-.4-.4,0-.8-.1-1.1,0-.6,0-1.5.4-2.8,1.1s-2.1,1.2-2.3,1.5c0,.1-.3.4-.8.7-.5.4-.8.5-.8.5s-.9.8-2.4,2.4c-1.5,1.6-2.6,2.8-3.2,3.6-.9,1.3-1.8,2.7-2.5,4.2-.7,1.5-1,2.5-1,3,0,.2,0,.3.2.2h0Z"/>
      <path class="st1" d="M1450.6,292.9c-1-.5-1.8-1.2-2.7-2s-1.3-1.6-1.5-2.4c-.2-.7-.3-1.4-.4-2.2-.2-2.2,0-4.7.6-7.5s1.6-5.7,2.9-8.6c.4-.9.8-1.8,1.2-2.9.4-1,.6-1.6.6-1.8h0c-.1,0-.3.3-.6.9-.2.5-.3.7-.4.7-.1,0-.3.4-.7,1.2s-.8,1.8-1.4,3.2c-.7,1.5-1,2.3-1.1,2.3,0-.2.2-.8.6-1.8.4-1,.7-1.6.8-1.7,0,0,0-.1,0-.2,0-.4.2-.9.6-1.6.3-.7.6-1.4.9-2,.2-.3.3-.5.4-.8-.5.2-.8.4-1,.5s-.4.1-.6.1h0s0,0-.1.1c-.2.3-.5.5-.9.6-.4.2-.7.4-.8.5,0,0,0,0,0,0h0c0,0,0,0-.1,0s0,0,0,0c0,.1-.2.3-.5.3-.3.1-.4.2-.4.3,0,0,0,0,0,0h0s0,0,0,0h0s0,0-.1,0c-.1,0-1.1.9-2.9,2.8-1.1,1.2-1.7,1.8-1.8,1.8,0,0,0,0,0,0h0s-7.7,10.3-7.7,10.3c-.2.3-.8,1.2-1.8,2.7-1.7,2.6-3.2,4.7-4.3,6.3s-1.8,2.4-2.1,2.4c-.2,0-.2,0-.2,0,0,0-.2-.1-.6-.2-.8-.3-1.3-.5-1.6-.8.5-3.7.9-6.1,1.4-7.3,0-.2.4-1.5,1.2-4,.4-1.1.5-1.7.5-1.7,0-.3.6-2.1,1.7-5.4s1.9-5.1,2.2-5.4c0,0,.2-.4.4-1,.2-.6.4-1,.3-1.1,0,0,0-.1,0-.1h0c0,0,0,0,0,0,0,0,0,0,0,0,0,0,.2-.2.4-.5.2-.3.4-.9.8-1.7,0-.2.2-.3.2-.4,1-1.9,1.5-3,1.4-3.2,0,0,0,0,0,0h0c0-.1,0-.2.2-.3h0s0,.1,0,.2h0c0,0,0,.1,0,.1h0c0-.1.1-.2.1-.4v-.2c0,0,0,0,0,0h0s0,0,0,0c.2,0,.4-.4.7-1,.2-.4.3-.7.4-.8,0,0,0-.1,0-.2,0,0,0,0,0-.1,0,0,0-.1,0-.1,0-.1,0-.2,0-.2,0,0,0,0,0,0h0s0,.1,0,.2h0c0,0,.1,0,.3-.1s.2-.2.2-.3c0,0,0,0-.1,0,0,0,0,0-.1,0,0,0,0,0,0,0,0,0,0-.2.2-.3s.2-.2.3-.2h0s0,0,0,0c0,0,0,0,0-.1,0-.2,0-.3.2-.4,0,0,0-.1,0-.2,0-.2.4-.9,1.3-2.2.6-.8.8-1.2.8-1.3,0,0,0,0,0-.1h0c0,0,0-.1,0-.1h0c0,0,.2,0,.3-.2.1-.1.2-.2.2-.2,0,0,0,0-.1,0h0s.2-.4.7-1.1.8-1.1.9-1.1h0c0,0,0,0,0,0h0c0,0,0,0,0-.1,0-.2.2-.6.7-1.3s.8-1.1,1-1.1c0,0,.1,0,.1-.1s0,0,0,0c0,0,0,0,0,0,0,0,0,0,.1-.1,0,0,.1,0,.1-.1s0,0,0-.1h0c0,0,0-.1,0-.1s0,0,.1,0c0,0,.1,0,.2,0,0,0,.1,0,.1-.1,0-.2.3-.6.9-1.3.6-.7,1.3-1.4,2.1-2.1.8-.6,1.5-1,2.1-1.1.8,0,1.6.1,2.4.6s1.6,1.2,2.3,2.2c.3.4.6.6,1,.7,0,0,.2,0,.2.1,0,0,0,.1,0,.2,0,.2,0,.4-.3.5-.2.1-.4.2-.6.2-.2,0-.7.5-1.3,1.3s-1.5,2.1-2.6,3.7c-1.2,1.7-1.9,2.7-2.1,2.9-.1.1-.2.2-.2.2s0,0,0,0l-.5.9c-2.9,4.7-4.8,8-5.7,9.7-.3.7-.5,1-.6,1,0,0-.2.3-.5,1-1.6,3-3.5,6.6-5.7,10.9,2.6-3.2,4.8-5.8,6.6-7.8,1.8-2,3.5-3.7,5.1-5.1s3.2-2.4,4.7-3.1c0,0,.2,0,.3-.1.7-.3,1-.4,1-.5,0,0,0-.1-.2-.2-.2-.1-.2-.2-.3-.2,0,0,0,0,0,0,.2,0,.8.3,1.7,1s1.6,1.4,2.4,2.3c.7.9,1.1,1.7,1.2,2.4,0,.2,0,.6,0,1.2s-.2,1-.3,1.1c0,0,0,0,0,0,0,0,0,0,.2,0h.3s0,0-.1.1c-.2.2-.4.4-.4.6,0,0,0,.1,0,.2,0,0,0,0,0,0,0,0,0,.2-.1.2-.1,0-.2.2-.2.3,0,0,0,0,0,0h0c0,.2,0,.3-.3.5-.1.1-.2.2-.2.3h0c0,.1,0,.3-.2.7-.1.4-.2.6-.2.6h0c0,0,0,0,0,0,0,0-.2.1-.5.2,0,0-.2,0-.2,0,0,0,0,0,0,0,.3,0,.5.1.5.2s0,.1-.2.1h-.3c0,0,0,.2.2.3,0,0,0,.1,0,.1,0,0,0,0-.1,0,0,0,0,0,0,0,0,0,0,0,0,.2,0,.2,0,.4-.2.5-.1.1-.2.2-.1.4,0,0,0,0,0,0,0,0,0,0,0,0,0,.1,0,.2-.2.3-.1,0-.2.2-.2.2s0,0,0,0h0s0,0,0,0c-.2.1-.3.3-.3.7-.1.4-.2.6-.3.6,0,0,0,0-.2-.1h0c0,0,0,.1,0,.2,0,.1,0,.4-.1.8,0,.3,0,.5,0,.6,0,0,0,0,0,.1,0,0,0,0,0,0-.1,0-.2,0-.2.2h0c0,.2,0,.4,0,.6,0,.2-.2.3-.2.3h0c0-.1,0-.2,0-.2,0,0,0,0,0,0-.1,0-.2.1-.3.4,0,0,0,0,0,.1,0,0,0,0,0,0s0,.2-.2.4c-.4,1-.6,1.6-.6,1.8,0,0,0,.1,0,.2,0,0,0,0,0,0,0,0,0,0,0,0s0,0-.2,0c-.1,0-.2,0-.2,0,0,0,0,0,.1.2.1.1.2.2.2.2,0,0,0,0,0,0h-.2c0,0-.2,0-.2,0,0,0,0,0,0,0,0,0,.2.1.2.2,0,.2,0,.5-.3.7-.1,0-.2.2-.2.2s0,0,0,0c0,0,0,0,0,0,0,0,.2,0,.2.2s0,.2-.1.4c0,.1-.2.3-.1.5,0,0,0,.1,0,.2,0,.2,0,.3,0,.4,0,.2,0,.4,0,.4-.2,0-.3.1-.3.3,0,0,0,0,0,0h.2c0-.1,0-.1,0-.1,0,0,0,0,0,.1-.2.2-.3.3-.3.4s0,.1,0,.1c.1,0,.2.5.3,1.1,0,.2,0,.3.2.4,0,0,0,0,0,0,0,0,0,.1-.1.3,0,.1-.2.2-.2.3s0,0,0,0c0,0,.2.2.4.7.3.7.5,1,.7,1,0,0,0,0,0,0h0c0,.4.2.6.6.8.4.2.9.4,1.5.6.5.1.7.2.7.3,0,.1,0,.2-.3.2-.2,0-.4.1-.6.1-.6,0-1.4-.2-2.4-.6h0Z"/>
      <path class="st1" d="M1464.8,295.9c-.4,0-.7-.2-.8-.3,0,0-.1,0-.1,0h0s0,0,0,0c-.1,0-.5-.2-1.1-.5-.4-.3-.7-.4-.7-.4,0,0-.3-.3-.8-.9-.2-.2-.3-.4-.3-.4-.5-.3-1-1.2-1.5-2.6-.5-1.5-.8-2.9-1-4.5-.1-1.2,0-2.6,0-4.3.2-1.7.3-2.9.5-3.6.3-1.2.6-2.8,1-4.6,0,0,0,0,0,0,0-.5.8-2.9,2.5-7s3.3-7.6,4.7-10.3c.7-1.3,1-2.1,1-2.3,0,0,0,0,0,0s0,0-.2.1c-.1.1-.2.2-.2.2,0,0,0,0,0,0,0,0-.2.2-.4.5-.2.4-.3.6-.3.7,0,0,0,0,0,0h0c0,0-.2,0-.3,0h0s0,0,0,0c0,.1,0,.2.1.3h0s0,0,0,0h0c-.6,1-1,1.7-1.3,2.2h0c.2-.2-.2.6-1.3,2.6h0s0,0,0,0c0,0-.2.5-.6,1.3-.8,1.8-1.6,3.5-2.2,5-.2.6-.5,1.1-.7,1.4,0,.1,0,.2,0,.3,0,.1,0,.2-.2.2h0c0-.3.4-1.5,1.3-3.6s1.5-3.5,1.9-4.1c.2-.3.3-.5.3-.6h0s0,0,0,0c0-.2.6-1.6,1.9-4,.5-1,.8-1.5.8-1.5,0-.1,0-.3.2-.5,0-.1.2-.2.2-.3,0,0,0,0-.2,0-.3,0-1.7.4-4.2,1.1-2.4.7-4.3,1.2-5.6,1.6,0,0-.2,0-.4.2-.2.1-.4.2-.5.2h-.2c0,0-.1,0-.2,0,0,0-.1,0-.1,0,0,0-.5.3-1.4.6-1,.3-1.6.5-2,.6,0,0-.1,0-.2,0,0,0,0,0,0,0h0c0,0-.3.2-.9.5-.6.2-1.8.7-3.6,1.3,0,0,0,0-.2,0-.3-.1-.4-.2-.5-.3,0,0-.1-.1-.1-.3,0-.2,0-.8.2-1.8,0-.5.1-.8.1-.9,0,0,0,0,0-.1h0c0-.3.6-.8,1.8-1.5,1.5-.9,3.4-1.8,5.8-2.6,2.4-.8,5.6-1.6,9.5-2.4.8-.2,1.8-.3,2.9-.5.1,0,.3,0,.5,0,.9-.2,1.6-.3,1.9-.5s.7-.4.9-.8c.3-.4.7-1.1,1.3-2.3.2-.3.3-.5.3-.7.6-1.2,1.3-2.3,1.9-3.4s1-1.6,1.1-1.6c0,0-.2.5-.6,1.2-.3.6-.5.9-.5,1h0s0,.1-.1.2c-.2.1-.2.2-.2.4,0,0,0,0,0,0,0,0,0,0-.1.1s-.1,0-.1.1h0c0,.1,0,.2,0,.2s0,0,0,0c0,0-.2,0-.2.2,0,.1-.2.3-.3.6-.4.7-.7,1.4-1.1,2-.9,1.5-1.3,2.3-1.3,2.6,0,0,0,0,0,0,.1,0,.3-.3.7-.9.3-.6.8-1.4,1.4-2.6.8-1.4,1.3-2.5,1.8-3.3.5-.8.8-1.2,1-1.4l.5-.3c.4.2.8.5,1.2,1s.6.9.6,1.2c0,0,0,0,0,0h0c0,.1,0,.1,0,.2.2.1.3.3.5.6.1.3.3.6.4.7,0,0,0,.2.1.3,0,.6,0,1.5-.3,2.8-.1.4-.2.7-.2.8h0c.2,0,.3-.2.5-.7.1-.4.3-1,.4-1.7,0-.6.2-.9.2-.9,0,0,.2,0,.2.2,0,.1.1.3.1.5,0,.3,0,.8-.1,1.4,0,.6-.1.9,0,1.2,0,0,0,.1,0,.1s0,0,0,0c0-.1.1-.2.2-.2,0,0,.1,0,.3,0,.2,0,.3,0,.4,0,0,0,.1,0,.2,0,0,0,.1-.1.2-.1h0c.3,0,.9,0,1.8,0,.8,0,1.5,0,2,0,.2,0,.4,0,.6,0,.2,0,.4,0,.6-.2,0,0,0,0,0,0,0,0,0,0,0,0,.4.1,1.5.1,3.2,0,.8,0,1.3,0,1.5.2,0,0,0,0,0,0s0,0,0,0c0,0,.2,0,.3,0,.9,0,2.7.1,5.3.7,2.7.5,4.4,1,5.3,1.5.4.2.8.6,1,1,.3.4.4.9.5,1.4,0,.7,0,1.3-.4,1.7-.3.5-.6.7-.9.8,0,0-.1,0-.1-.1,0-.1,0-.3.2-.6.2-.5.3-.8.3-1.1,0-.8-1.1-1.4-3.1-1.7s-4.4-.5-7.2-.4-5.6.2-8.3.5c-1.4.1-3.1.4-5,.7-.5,0-.9.1-1.2.2-2.3,4.6-4.3,8.8-6,12.6-1.7,3.8-3.2,7.3-4.4,10.7-1.3,3.4-2.2,6.5-2.8,9.4-.6,2.9-.8,5.3-.6,7.4,0,.9.3,1.8.7,2.6,0,.2.2.3.2.4,0,0,.3.1.9.2.9,0,1.3.2,1.3.3,0,0-.2.1-.7.2-.6,0-1.1,0-1.5,0h0Z"/>
      <path class="st1" d="M1492.1,286c-2.6,2.4-5.1,3.7-7.5,3.9-.6,0-1,0-1.4,0-.4,0-.9-.2-1.6-.4-.5-.1-.8-.2-1.2-.3-1.8-.5-3.3-1.3-4.5-2.6-.9-1-1.6-2.2-2.1-3.4s-.7-2.6-1-4.1c0-.2,0-.3,0-.4,0,.2-.1.4-.2.6h0c0,.1,0,0,0-.1,0-.7,0-1.7.3-3,.3-1.3.5-2.3.7-2.9,0-.1,0-.2.2-.3.1,0,.2-.2.1-.4,0-.1,0-.2,0-.2,0,0,0,0,.2-.1.2-.1.3-.2.4-.4,0-.2.2-.3.3-.3h0c0,.1,0,.2,0,.3-.6.9-1,2.1-1.3,3.5s-.4,2.5-.3,3.3c0,0,0,0,0,0v-.5c.8-3.5,1.6-6.1,2.7-7.9,1-1.7,2.2-3.4,3.5-5.1.3-.4.4-.6.4-.6-.3.2-1,1-2.3,2.6-1.3,1.6-2.1,2.8-2.3,3.6,0,.3-.2.4-.3.4,0,0-.1,0-.1-.2,0,0,0,0,0-.1.2,0,.3-.2.4-.5.2-.7,1-1.8,2.1-3.4s2.3-2.8,3.3-3.7c1.4-1.3,3.1-2.5,5.1-3.6s3.6-1.7,4.9-1.8c1,0,1.9,0,2.7.6s1.7,1.3,2.5,2.5c.2.3.6.6,1,.8.2,0,.4.2.5.3s.2.3.2.5c0,.9-.5,2-1.7,3.5-1.2,1.5-2.9,3-4.9,4.6s-4.2,3-6.4,4.1c0,0,0,0,0,0-.5.2-.8.4-1,.7s-.6.9-1.1,1.9c0,0,0,0,0,.1-.7,1.2-1.2,2.5-1.6,3.6-.4,1.2-.5,2.4-.4,3.7,0,1.1.3,1.9.6,2.4.3.5.8.8,1.6.7,1.1-.1,1.9-.3,2.4-.5,0,0,0,0,.1,0,0,0,0,0,0,.1,0,0,0,.1,0,.1h0c.2-.3.4-.4.6-.4.3,0,1.3-.5,2.8-1.5h0c1.3-.9,2.2-1.5,2.5-1.8,0,0,0,0,.1,0s0,0,0,0c0,0-.2.3-.7.7-.8.6-1.1,1-1.1,1.2,0,0,0,0,0,0,0,0,.2-.1.5-.3.2-.2.4-.4.5-.4,0,0,0,0,0,0,0,0,0,0,0,0,0,0,.4-.4,1-1,.7-.7,1-1.1,1-1.2s0,0,0,0c0,0-.1,0-.1-.1s0,0,0,0c0,0,0,0,.1,0,0,0,0,0,.2,0,0,0,0,0,.1,0,.2,0,.4-.3.9-.8.4-.5.7-.9.6-1h0s0,0,0,0c0,0-.3.2-.6.6-.5.7-.8,1-1,1,0,0,0,0,0,0,0,0,.2-.4.8-.9,1-1.2,1.6-1.9,1.6-2,0-.1,0-.1.1-.2,0,0,0,0,.1.2v.3s0,0,0,0h0s.4-1.2.4-1.2c0,0,0,0,0,0h0c0,0,0,.1,0,.1,0,0,0,.1.2.1.1,0,.2,0,.2-.1h0c0-.4,0-.5,0-.5h0s0,0,0,0c0,0,.2,0,.2-.2,0-.1.1-.2.2-.2,0,0,0,0,0,0h0s0,0,0-.1c0-.2,0-.3.2-.4,0,0,.1-.2.2-.4.3-.5.5-.9.7-1,.2-.2.3-.3.4-.3,0,0,.2,0,.2.2,0,.2,0,.5-.2.9-1.7,3.6-3.8,6.6-6.4,9h0ZM1486,272.7c.8-.7,1.6-1.4,2.4-2.3,1.2-1.2,2.3-2.5,3.3-3.9,1.1-1.4,1.6-2.3,1.7-2.8,0-.2,0-.3,0-.4,0,0,0,0,0,0,0,0,0,0,0-.1h0c.1-.2.2-.3.2-.4s0,0,0,0c-.2,0-.7.3-1.4.9s-1.4,1.4-2.2,2.3l-2.9,3.5c0,0,0,.1-.1.2h0c-.3.5-.8,1.2-1.5,2.3-.7,1-1,1.7-1,1.8,0,0,0,0,0,0,.1,0,.6-.4,1.4-1h0Z"/>
      <path class="st1" d="M1544,283.8c-1-.5-1.8-1.2-2.7-2-.8-.8-1.3-1.6-1.5-2.4-.2-.7-.3-1.4-.4-2.2-.2-2.2,0-4.7.6-7.5.6-2.8,1.6-5.7,2.9-8.6.4-.9.8-1.8,1.2-2.9.4-1,.6-1.6.6-1.8h0c-.1,0-.3.3-.6.9-.2.5-.3.7-.4.7-.1,0-.3.4-.7,1.2s-.8,1.8-1.4,3.2c-.7,1.5-1,2.3-1.1,2.3,0-.2.2-.8.6-1.8.4-1,.7-1.6.8-1.7,0,0,0-.1,0-.2,0-.4.2-.9.6-1.6.3-.7.6-1.4.9-2,.2-.3.3-.5.4-.8-.5.2-.8.4-1,.5s-.4.1-.6.1h0s0,0-.1.1c-.2.3-.5.5-.9.6-.4.2-.7.4-.8.5,0,0,0,0,0,0h0c0,0,0,0-.1,0s0,0,0,0c0,.1-.2.3-.5.3-.3.1-.4.2-.4.3,0,0,0,0,0,0h0s0,0,0,0h0s0,0-.1,0c-.1,0-1.1.9-2.9,2.8-1.1,1.2-1.7,1.8-1.8,1.8,0,0,0,0,0,0h0s-7.7,10.3-7.7,10.3c-.2.3-.8,1.2-1.8,2.7-1.7,2.6-3.2,4.7-4.3,6.3s-1.8,2.4-2.1,2.4c-.2,0-.2,0-.2,0,0,0-.2-.1-.6-.2-.8-.3-1.3-.5-1.6-.8.5-3.7.9-6.1,1.4-7.3,0-.2.4-1.5,1.2-4,.4-1.1.6-1.7.5-1.7,0-.3.6-2.1,1.7-5.4s1.9-5.1,2.2-5.4c0,0,.2-.4.4-1,.2-.6.4-1,.3-1.1,0,0,0-.1,0-.1h0c0,0,0,0,0,0,0,0,0,0,0,0,0,0,.2-.2.4-.5.2-.3.4-.9.8-1.7,0-.2.2-.3.2-.4,1-1.9,1.5-2.9,1.4-3.2,0,0,0,0,0,0h0c0-.1,0-.2.2-.3h0s0,.1,0,.2h0c0,0,0,.1,0,.1h0c0-.1.1-.2.1-.4v-.2c0,0,0,0,0,0h0s0,0,0,0c.2,0,.4-.4.7-1,.2-.4.3-.7.4-.8,0,0,0-.1,0-.2,0,0,0,0,0-.1,0,0,0-.1,0-.1,0-.1,0-.2,0-.2,0,0,0,0,0,0h0s0,.1,0,.2h0c0,0,.1,0,.3-.1.1-.1.2-.2.2-.3,0,0,0,0-.1,0,0,0,0,0-.1,0,0,0,0,0,0,0,0,0,0-.2.2-.3s.2-.2.3-.2h0s0,0,0,0c0,0,0,0,0-.1,0-.2,0-.3.2-.4,0,0,.1-.1,0-.2,0-.2.4-.9,1.3-2.2.6-.8.8-1.2.8-1.3,0,0,0,0,0-.1h0c0,0,0-.1,0-.1h0c0,0,.2,0,.3-.2s.2-.2.2-.2c0,0,0,0-.1,0h0s.2-.4.7-1.1c.5-.7.8-1.1.9-1.1h0c0,0,0,0,0,0h0c0,0,0,0,0-.1,0-.2.2-.6.7-1.3s.8-1.1,1-1.1c0,0,.1,0,.1-.1s0,0,0,0c0,0,0,0,0,0,0,0,0,0,.1-.1,0,0,.1,0,.1-.1s0,0,0-.1h0c0,0,0-.1,0-.1s0,0,.1,0c0,0,.1,0,.2,0,0,0,.1,0,.1-.1,0-.2.3-.6.9-1.3.6-.7,1.3-1.4,2.1-2.1.8-.6,1.5-1,2.1-1.1.8,0,1.6.1,2.5.6s1.6,1.2,2.3,2.2c.3.4.6.6,1,.7,0,0,.2,0,.2.1,0,0,0,.1,0,.2,0,.2,0,.4-.3.5-.2.1-.4.2-.6.2-.2,0-.7.5-1.3,1.3s-1.5,2.1-2.6,3.7c-1.2,1.7-1.9,2.7-2.1,2.9-.1.1-.2.2-.2.2s0,0,0,0l-.5.9c-2.9,4.7-4.8,7.9-5.7,9.7-.3.7-.5,1-.6,1,0,0-.2.3-.5,1-1.6,3-3.5,6.6-5.7,10.9,2.6-3.2,4.8-5.8,6.6-7.8,1.8-2,3.5-3.7,5.1-5.1s3.2-2.4,4.7-3.1c0,0,.2,0,.3-.1.7-.3,1-.4,1-.5,0,0,0-.1-.2-.2-.2-.1-.2-.2-.3-.2,0,0,0,0,0,0,.2,0,.8.3,1.7,1,.8.7,1.6,1.4,2.4,2.3.7.9,1.1,1.7,1.2,2.4,0,.2,0,.6,0,1.2s-.2,1-.3,1.1c0,0,0,0,0,0,0,0,0,0,.2,0h.3s0,0-.1.1c-.2.2-.4.4-.4.6,0,0,0,.1,0,.2,0,0,0,0,0,0,0,0,0,.2-.1.2-.1,0-.2.2-.2.3,0,0,0,0,0,0h0c0,.2,0,.3-.3.5-.1.1-.2.2-.2.3h0c0,.1,0,.3-.2.7-.1.4-.2.6-.2.6h0c0,0,0,0,0,0,0,0-.2.1-.5.2,0,0-.2,0-.2,0,0,0,0,0,0,0,.3,0,.5.1.5.2s0,.1-.2.1h-.3c0,0,0,.2.2.3,0,0,0,.1,0,.1,0,0,0,0-.1,0,0,0,0,0,0,0,0,0,0,0,0,.2,0,.2,0,.4-.2.5-.1.1-.2.2-.1.4,0,0,0,0,0,0,0,0,0,0,0,0,0,.1,0,.2-.2.3-.1,0-.2.2-.2.2s0,0,0,0h0s0,0,0,0c-.2.1-.3.3-.3.7-.1.4-.2.6-.3.6,0,0,0,0-.2-.1h0c0,0,0,.1,0,.2,0,.1,0,.4-.1.8,0,.3,0,.5,0,.6,0,0,0,0,0,.1,0,0,0,0,0,0-.1,0-.2,0-.2.2h0c0,.2,0,.4,0,.6,0,.2-.2.3-.2.3h0c0-.1,0-.2,0-.2,0,0,0,0,0,0-.1,0-.2.1-.3.4,0,0,0,0,0,.1,0,0,0,0,0,0s0,.2-.2.4c-.4,1-.6,1.6-.6,1.8,0,0,0,.1,0,.2,0,0,0,0,0,0,0,0,0,0,0,0s0,0-.2,0c-.1,0-.2,0-.2,0,0,0,0,0,.1.2.1.1.2.2.2.2,0,0,0,0,0,0h-.2c0,0-.2,0-.2,0s0,0,0,0c0,0,.2.1.2.2,0,.2,0,.5-.3.7-.1,0-.2.2-.2.2s0,0,0,0c0,0,0,0,0,0,0,0,.2,0,.2.2s0,.2-.1.4c0,.1-.2.3-.1.5,0,0,0,.1,0,.2,0,.2,0,.3,0,.4,0,.2,0,.4,0,.4-.2,0-.3.1-.3.3,0,0,0,0,0,0h.2c0-.1,0-.1,0-.1,0,0,0,0,0,.1-.2.2-.3.3-.3.4s0,.1,0,.1c.1,0,.2.5.3,1.1,0,.2,0,.3.2.4,0,0,0,0,0,0,0,0,0,.1-.1.3,0,.1-.2.2-.2.3s0,0,0,0c0,0,.2.2.4.7.3.7.5,1,.7,1,0,0,0,0,0,0h0c0,.4.2.6.6.8.4.2.9.4,1.5.6.5.1.7.2.7.3,0,.1,0,.2-.3.2-.2,0-.4.1-.6.1-.6,0-1.4-.2-2.4-.6h0Z"/>
      <path class="st1" d="M1579.4,280.3c-1.1-.3-2.2-.9-3.4-1.9-.4-.4-.8-.8-1.2-1.3-.4-.5-.6-.9-.6-1.1,0,0,0,0,0-.1,0,0,0-.1,0-.1,0-.2,0-.4-.2-.5-.1-.3-.3-.6-.4-1-.1-.4-.2-1.1-.3-2.1-.2-1.9-.2-3.7,0-5.3.1-1.6.3-3.2.6-4.8.1-.8.2-1.2.2-1.4,0,0,0,0,0,0-.1,0-.3.4-.4,1.2-.2.6-.3,1-.3,1,0,0,0,.2,0,.5,0,.5,0,.9-.1,1-.1,0-.2.2-.2.2,0,.2,0,1.5-.2,3.7,0,0,0,.5,0,1.2,0,.9,0,1.7,0,2.3s0,.9,0,.9-.1-.3-.2-1c-.2-2.5-.2-5.1.1-7.7,0-.4,0-.6,0-.7,0,0-.3.3-.7.9-.3.5-.5.8-.6.8h0c0-.2.2-.3.1-.4,0,0,0-.1,0-.1,0,0-.2.1-.3.3,0,.2-.1.4-.1.5,0,0,0,.1,0,.1,0,0,0,0,0,0,0,0,.2,0,.2,0,0,0-.1.2-.4.5,0,0,0,0,0-.1,0,0,0-.1,0-.1,0,0,0,0,0,0-.1,0-.3.1-.5.4-.2.3-.4.7-.7,1.2-.3.5-.5.9-.6,1.1-.9,1.1-1.5,1.9-1.8,2.4,0,0,0,0,0,.1,0,0-.3.2-.7.6s-.5.6-.5.7c0,0,0,0,.1-.1,0,0,.1,0,.1,0,0,0,0,.2-.3.5-.2.3-.3.4-.4.4,0,0,0,0,0,0s0,0,0-.1h0c0,0-.2,0-.3.2s-.2.3-.2.4h0c0,.2,0,.2-.2.2,0,0,0,.1-.2.3-.1.3-.2.5-.3.5h0s0-.1,0-.1c0-.1,0-.2,0-.2,0,0,0,0,0,0-.1,0-.5.4-1.1,1-1.2,1.3-2.2,2.3-3,2.9-.2.1-.3.2-.3.3,0,0,0,0,0,0,0,0,0,0,0,0,0,0,0,.2-.2.3s-.3.2-.5.2c0,0-.1,0-.2,0,0,0,0,0,0,0s0,0,0,0c0,0,0,0,0,0h0c0,0,0,.1,0,.1,0,.1-.2.2-.5.4s-.7.2-1.1.2c-.6,0-1.1,0-1.5-.1-1.3-.6-2.3-1.1-3-1.7-.7-.6-1.3-1.2-1.7-1.9-.4-.7-.6-1.6-.7-2.6-.2-1.6.2-3.5.9-5.8.8-2.2,1.9-4.4,3.4-6.6,1.5-2.2,3.1-4,4.8-5.5.9-.8,1.4-1.2,1.3-1.4h0s0,0,.1,0c0,0,.1,0,.2,0,.2,0,.4-.2.7-.5,0-.1.1-.2.2-.2s0,0,0,0h0s0,0,0,0c.6-.4,2.2-1.3,4.9-2.6h1.5c1.1-.1,2.3,0,3.4.6s2,1.1,2.6,2c.3.4.4.5.6.5.1,0,.3-.3.5-.7.5-1.1,1.3-2.4,2.4-3.8s1.8-2,2.2-2.1c.1,0,.2,0,.2.2,0,.1,0,.2-.3.2-.2,0-.7.5-1.5,1.5s-1.6,2-2.2,3.1-1,1.9-.9,2.3c0,.2,0,.2.1.2,0,0,.4-.5,1.1-1.5,1-1.5,1.9-2.7,2.8-3.7.8-1,1.6-1.5,2.2-1.6.3,0,.6,0,.9.2s.6.3.9.6c.3.2.4.3.5.3,0,0,.2,0,.2.1v.2c0,.2,0,.3.2.3,0,0,0,0,0,0,.1,0,.2,0,.4.3,0,.2.2.2.2.2,0,0,0,0,0-.1s0,0,0,0h0c0-.1,0-.2.1-.2.1,0,.2,0,.2.2,0,0,0,.2-.1.2-.1.1-.2.2-.1.3,0,.1,0,.2.2.2h.1c0,0,.2,0,.2.2,0,.2,0,.3-.1.3,0,0,0,0,0,0,0,0,0,0,0,.1,0,.1,0,.1.3.1.2,0,.3-.1.3-.2,0,0,0-.1,0-.2,0-.1,0-.1,0-.2,0,0,0,0,0,0s0,.1.2.3.2.4.2.4,0,0,0,0h0s0,0,0,0c0,0-.2.1-.3.4-.1.2-.2.4-.3.4h0c-.3.6-.4.9-.4.9h0c0,.1,0,.1,0,.1,0,0,0,0-.2,0,0,0-.1,0-.2,0,0,0-.1,0-.1.1s0,0,0,.1c0,0,0,0,0,0,0,.1,0,.3-.3.4s-.3.3-.3.4c0,.1,0,.3-.3.4-.2,0-.3.2-.3.3,0,0,0,0,0,.1,0,0-.2,0-.2,0,0,0,0,0,0,0h0c.2.3.2.5.3.6,0,0,0,.1,0,.1,0,0-.2-.1-.2-.2s0,0,0-.1h0c0,0,0,0,0,0-.2.1-.2.2-.2.3,0,0,0,0,0,0h0c0,.1-.1.2-.4.2-.2,0-.3,0-.3.1h0c0,0,0,0,0,0s0,0-.1.1c0,0-.1,0-.1.1,0,.1,0,.2.2.2,0,0,0,0,.1,0h0c-.3.5-.4.8-.4.9,0,0,0,0,0,0h0c0,0,0,.1,0,.1,0,0,0,0,0,0,0,0,0,0-.1,0,0,0-.2,0-.2.1,0,.1,0,.2-.2.2s-.2.1-.3.3c0,.2-.1.3-.1.4,0,0,0,0,0,0h.1s0,0-.1.2c-.2.3-.3.5-.3.6h0c0,.1,0,.1,0,.2-.2,0-.2.1-.2.3,0,.1,0,.2-.2.2h-.2c0,0-.1,0-.1,0s0,0,0,.1c0,.1.1.2.2.2h.1s-.1.1-.1.1c-.4.6-.7.9-.6,1.1,0,.2,0,.4,0,.6s-.2.3-.3.3c0,0-.1,0-.1,0,0,0,0,0,0,0h0c0,0,0-.1,0-.1,0,0-.2,0-.2.1,0,0-.1.2-.1.2,0,0,0,0,0,0s0,0,.1,0h0c0,0,.2,0,.2,0s0,.1-.2.2c-.1.1-.2.2-.2.2,0,0,0,0,0,0,.1,0,.2,0,.2.2,0,0,0,.1,0,.1,0,0,0,0-.1,0h0s0,0,0,0v.2c0,.2,0,.3,0,.3,0,0,0,0-.1,0h0s0,0,.2.2c.2.1.3.3.4.4l-.8-.3c.2.5.3.7.5.7h0c0,0,0,0-.1.1,0,0-.1,0-.2,0,0,0-.1,0-.2,0-.2,0-.4.3-.4.8,0,0,0,.1.1.2h0c0,0,0,0,0,0,0,0,0,0-.2-.1s-.2-.1-.2-.1,0,0,0,0c0,.1,0,.2,0,.4,0,.1.1.2.2.2,0,0,0,0,0,0h0c0,.2-.2.2-.3.3,0,0-.1,0-.2.2,0,.1,0,.3,0,.6,0,.6-.2,1-.3,1.2-.1.1-.2.4-.2.8,0,.3,0,.5-.2.5,0,0-.1,0-.1.1h0c.1,0,.2,0,.2.1,0,0,0,0,0,.1,0,0,0,.1,0,.1,0,.1,0,.2.2.3,0,0,0,0,0,.1,0,0,0,0-.2,0,0,0-.2,0-.2,0,0,0,0,0,0,0,0,0,0,0,0,.1,0,0,0,0,0,.1,0,0,0,0,0,0,0,0,0,0,0,0h0s0,0,0,.1c0,0,0,0,0,.1,0,.1,0,.2,0,.3,0,.2,0,.3-.1.3,0,0,0,0,0,.1,0,0,0,0,.1,0s.1,0,.2,0c0,0,0,0,0,0s0,0,0,0,0,0-.1.2c-.2.3-.4.6-.3.7,0,0,0,.1.1.2.1.2.2.5.2.8,0,.2,0,.3,0,.3s-.1,0-.1-.2h0c0-.1,0-.2,0-.2,0-.1,0-.1,0-.1s-.1.1,0,.4c0,.3.2.7.3,1.1,0,.2.2.4.2.5,0,.2,0,.2-.2.2h-.3s0,0,.2.2c.2.2.3.3.3.4s0,.2-.1.3h0c0,0,.2,0,.2,0,0,0,.2.2.3.5,0,.1,0,.2,0,.3h.3c.1,0,.2,0,.4.3.1.1.2.2.3.2h0c0,0,0,0,.1.2,0,.2,0,.2-.1.2,0,0-.1,0-.2-.1,0,0-.1-.1-.3-.1-.1,0-.2,0-.2,0h0s0,.1.2.2c.5.3.8.5.9.5,0,0,0,0,0,0h0c0,0,0,0,0,0,.8.9,1.4,1.4,1.8,1.3,0,0,0,0,0,0,0,0-.1-.2-.4-.4-.4-.3-.6-.5-.6-.6,0,0,.2,0,.4.2.2.2.6.5,1.3,1.1.3,0,.7,0,1.2-.1.6,0,1.1-.1,1.6-.2.8,0,1.3,0,1.3,0,0,.1-.3.3-.8.4-.6.2-1.3.3-2.2.4-1.5.1-2.8,0-3.9-.2v-.2ZM1558.3,275.4c1-.6,1.9-1.2,2.7-1.9,1.4-1.2,3.2-3.1,5.4-5.9,2.2-2.7,4.2-5.3,5.9-7.9,1.7-2.5,2.5-4,2.5-4.6,0-.2-.4-.3-1.1-.2-.3,0-1.3.3-2.8.7-1.5.5-2.2.7-2.2.7,0,0-.4.4-1.1.8-1.7,1.1-3.2,2.2-4.2,3.2-.8.8-1.9,1.9-3.1,3.4-1.2,1.5-1.8,2.3-1.8,2.5l-1.7,3s-.1.3-.3.8c-.5,1.1-.8,2.1-1.2,3.1-.3,1-.4,1.8-.4,2.5,0,.2,0,.4.2.5s.3.1.7.1c.7,0,1.6-.4,2.6-.9h0ZM1578.7,277.4c0,0-.1-.1-.3-.2h-.3s0,.1.1.2c.1.1.2.2.3.2,0,0,.1,0,.1-.2h0ZM1579.3,275.8c0-.3-.1-.6-.2-1.1,0-.7,0-1.1,0-1.2,0-.1,0-.3,0-.5,0-.6,0-1.2.2-1.8,0-.2,0-.3,0-.3,0,0,0,0-.2,0,0,0,0,0,0,0,0,0,0,0,0,0,.2-.1.2-.2.2-.3,0,0,0,0,0,0,0,0,0,0,0,0,0-.1,0-.4.2-.7.1-.2.2-.4.2-.5,0,0,0-.1,0-.1s0,0-.1,0h0c0,0,0,0,0,0,0,0,0,0,0-.1s0-.1.2-.1,0,0,0,0h0c0,0,.2,0,.2-.2,0,0,0-.1-.2-.1-.1,0-.2,0-.2,0h0c.2-.2.2-.3.2-.5s0-.3.1-.5c0,0,0-.2,0-.2,0,0,0,0,0,0h0c0-.2,0-.3.3-.4.2,0,.2-.1.2-.2,0,0,0,0,0-.2-.1-.1-.2-.3-.2-.4,0-.2,0-.3.1-.3h0c0,0,.1,0,.2-.1,0-.1.1-.3.3-.4.1-.1.2-.2.2-.2,0,0,0,0,0-.1,0,0-.2,0-.2-.2,0,0,0,0,0,0,0,0,0,0,0,0,0-.1-.1-.2-.4-.4-.2-.2-.3-.3-.3-.4,0,0,0-.1.2-.1.2,0,.2,0,.2,0h0c-.1.1-.2.2-.2.2s0,.1.2.2c0,0,.2,0,.3,0,.2,0,.4-.2.6-.4s.2-.5.2-.8c0-.2-.1-.5-.3-.8,0,0,0-.1,0-.2,0,0,0,0,0,.1.2.2.4.3.5.3.1,0,.2,0,.3-.2,0-.1,0-.3.1-.5,0-.3.1-.4.2-.5.1,0,.2-.1.2-.2,0,0,0,0,0,0s0,0,0,0c0,0,0,0,.1-.2.2-.2.3-.4.3-.7,0-.3.3-.8.9-1.6.1-.1.2-.2.2-.2,0-.3.2-.7.5-1.2.2-.3.2-.4.2-.5s0,0,0,0,0,.1-.2.3c-.2.2-.3.3-.3.3,0,0,0,0,0,0,0,0,0-.2.1-.3,0-.1,0-.2,0-.3,0,0,0,0,0-.2h0c0,0,0,0,0,0,0,0,0,0,0,0h0c.4-.6.6-.8.7-.9,0,0,0,0,0,0s0,.1-.2.3c-.2.3-.2.4-.2.5s0,0,0,0c0,0,.2-.1.3-.3s.2-.4.2-.5c0,0,0,0,0,0,0,0,0,0,0-.1,0-.1,0-.2,0-.3,0,0,.1-.1.2-.1h0s0,.1,0,.2h0c0,.1.2,0,.3-.1s.2-.3.2-.4c0,0,0,0,0,0,0,0,0,0,0,0,0,0,0,0-.1,0-.1,0-.2,0-.2-.1,0-.1,0-.4.3-.6.2-.3.3-.4.5-.4,0,0,0,0,0,0s0,0,0,.1c0,0-.1.1-.1.2,0,0,0,.1.2.1,0,0,0,0,0-.1,0,0,0-.1,0-.1,0,0,0,0,0,0h0c0,0,.1,0,0-.2,0-.2,0-.2-.2-.2h-.2c0,0,0,0,0,0,0,0,.1-.2.4-.5.4-.4.7-.7.8-.9,0-.2,0-.3.2-.3,0,0,0,0,0,0,0,0,0,0,.1,0,.2,0,.3-.1.4-.3,0-.2.1-.4.2-.7,0-.2,0-.3,0-.3.2,0,.4.5.6,1.5,0,0-.1.2-.2.3-.9,1.4-1.5,2-1.7,2.1h0s0,0,0,0,0,0,0,0c0,0,0,0,0,.1,0,.2,0,.4-.3.8-.2.3-.4.5-.5.5,0,0-.1,0-.1.1h0c0,.3-.7,1.7-2.2,4.4-1.2,2.1-1.8,3.2-1.8,3.4,0,0-.1.3-.3.8-.8,2.1-1.2,3.4-1.3,3.8,0,0,0,0,0,.1-.3,1.7-.5,2.6-.6,2.7,0,0,0,0,0,0,0,.3-.1.5-.2.6,0,1.3,0,2.5-.1,3.8,0,.7,0,1-.1,1,0,0-.1-.1-.2-.4h0Z"/>
      <path class="st1" d="M1595.5,279.5c-.3,0-.6,0-.9,0,0,0-.2,0-.2,0s0,0,0,0c0,0-.2,0-.5-.2-.7-.4-1.3-.7-2-.9-1.5-.6-2.7-1.5-3.4-2.6-.7-1.2-1.2-2.9-1.4-5.1,0-1.1,0-2.5.1-4.1s.3-2.5.5-2.5c0,0,.1,0,.1.1,0,.4-.1,1-.3,1.9-.2,1.2-.3,2-.3,2.5,0,0,0,0,0,0,0,0,.2-.4.3-1.2.3-1.9.7-3.6,1.3-5.2s1.7-4.3,3.5-8.2c1.2-2.6,2-4.3,2.4-5.1.4-.8.9-1.3,1.3-1.3.4,0,1.3.8,2.8,2.6.2.2.2.3.3.3.1.2.4.8.7,1.9,0,.1,0,.3,0,.5-.2.9-.4,1.6-.7,2.3-.3.7-.8,2-1.7,3.9-1,2.2-1.5,3.3-1.5,3.4h0c0,0,.4-.6,1.1-1.9.6-1.3,1.2-2.8,1.9-4.5.7-1.7,1.2-3.2,1.6-4.5,0,0,0,0,0,.1.2.3.2.5.2.7,0,1.1-1.1,4.2-3.7,9.4-.2.5-.3.7-.3.7,0,0-.2.5-.6,1.3-1.1,2.3-2,4.5-2.5,6.6s-.8,3.9-.7,5.2c0,.4.1.8.3,1.2,0,.1,0,.3,0,.3h0c1.3-.2,1.9-.3,2-.4,0,0,.2,0,.4-.2,1.7-.8,2.9-1.6,3.8-2.4,4.2-3.9,7.2-8.3,9-13.1.2-.5.3-.9.4-1.1s.2-.3.3-.3c0,0,.3.2.6.6,0,0,.1.1.1.2-.5,1.7-.9,2.7-1.2,3.2,0,0,0,.1,0,.2,0,.5-.2,1.2-.8,2.4-.1.3-.2.4-.2.4h0c0,.2-.2.8-.8,1.8-.3.5-.4.8-.4.8,0,.2-.5,1-1.5,2.5s-2.1,2.8-3.2,4.1-1.8,2-2.2,2c0,0-.1,0-.3.2-1.3,1-2.6,1.6-3.9,1.7h0ZM1602.6,245.1c0,0-.2,0-.3-.2-.1-.1-.2-.2-.3-.2h-.1c-.1,0-.3-.1-.7-.4-.2-.1-.2-.2-.3-.2h0c-.2,0-.8-.2-1.8-.6,0,0,0,0-.1,0,0-.1,0-.3,0-.4,0,0,0-.2,0-.4,0-.4,0-1.1.4-2.3s.6-1.9.8-2.5c.1-.2.2-.4.2-.6,0,0,0-.1,0-.1,0,0,0,0-.1,0,0,0,0,0,0,0s0,0,0,0h0c0-.2.1-.2.2-.2h0s0,0,0,0c0,0,.2-.1.3-.3,0-.2.2-.4.3-.5.1-.1.3-.2.6-.2.4,0,.7,0,1,.3s.5.5.8.9c.2.2.3.3.3.3,0,0,.2,0,.2.2,0,.1,0,.2.2.2,0,0,.3.4.8,1.2,0,0,0,0,0,0,0,.4-.2.9-.3,1.4-.1.6-.2.9-.2,1,0,0,.2-.5.4-1.4.3-1.1.4-1.6.6-1.6.1,0,.2.2.2.6,0,.6,0,1.3-.3,2.1-.3.9-.6,1.7-1,2.3-.4.7-.7,1.1-1,1.1,0,0,0,0-.1,0,0,0,0,0-.1,0-.1,0-.2,0-.3.2,0,0-.1.1-.2.1h0Z"/>
      <path class="st1" d="M1620.4,276.6c0-.1,0-.2,0-.2h0s0,0,0,0h0s0,0,0,0c0-.1-.2-.2-.2-.1,0,0,0,0-.1,0-.1,0-.2,0-.2.2h0c0,.1,0,.2-.2.2-.3,0-.8,0-1.4,0s-1.2-.2-1.6-.3c-.5-.2-.8-.6-.9-1.2,0-.4,0-1.1.3-2.1,0-.4.1-.6.1-.7,0,0,0,0,0,0s0,.2-.2.5c-.2.5-.4.8-.4.8,0,0-.1-.1-.2-.3,0-.4,0-.9.1-1.4.1-.5.2-.7.3-.7,0,0,0,0,0,0,0,0,0,.3-.2.8,0,0,0,.2,0,.4,0,.3,0,.5,0,.6,0,0,0,0,0,0,0,0,.2-.4.6-1.1,1.3-2.7,2.5-4.6,3.5-5.9.2-.2.4-.3.7-.4.3,0,.9.2,1.8.7.8.5,1.6,1.1,2.3,1.7.7.6,1.1,1.1,1.1,1.4,0,.2,0,.5-.3,1-.1.2-.2.4-.2.4h0c0,0,0,.2-.2.4-.3.4-.4.7-.4.8,0,0,0,0,0,.1,0,0,0,0,0,0,0,0,0,.1,0,.1,0,0,0,0-.1,0,0,0,0,0,0,0,0,0-.2.1-.2.3,0,.2-.2.3-.3.3,0,0-.2,0-.2-.2h0c0-.1,0-.2,0-.2h0c0,0,0,.1,0,.2,0,0,0,0,0,.1,0,0,.1.2.1.2s0,.2,0,.4c0,.1,0,.2,0,.3s0,0,0,0,0,0,.1,0h0s0,.1-.2.3c-.2.2-.2.3-.3.3h-.1c-.1,0-.2,0-.2,0s0,0,0,.1c0,0,.1.1.1.1,0,0,0,.1-.3.2,0,0,0,0,0,0s0,0,0,0c0,0,0,0,0,0,0,0,0,0,0,0,0,0-.2.1-.2.3,0,.2-.1.3-.2.3s0,0,0,0c0,0,0,0,0,0,0,0,0,0,0,.2,0,.3-.2.4-.4.4-.1,0-.2,0-.2-.2h0c.3-.4.5-.6.5-.8l-.2.2c-.4.5-.7.7-.8.7,0,0-.1,0-.1.2,0,0,0,0,0,.1,0,0,0,0,0,.1,0,.1,0,.2,0,.3s-.1.1-.2.1-.2,0-.2-.2h0ZM1625.1,264.5c-.4,0-.7,0-.8,0-.2,0-.4-.3-.7-.6-.3-.3-.6-.6-.8-.9-.2-.2-.4-.4-.5-.7s-.2-.6-.2-1c0-.4-.1-.6-.2-.7,0,0,0-.1,0-.1s0,0,0,0c.1-.1.1-.5,0-1.1-.1-1.7.1-3.9.7-6.8,0-.3.1-.5.1-.6.1-.8.8-3.4,2.2-7.7,1.3-4.3,2.3-7.1,2.8-8.4.9-2.2,1.5-3.5,1.8-3.9,0,0,0,0,0,0,0-.2.5-1.3,1.5-3.2,1-1.9,2.2-4.1,3.5-6.5,1.3-2.4,2.9-5.3,4.7-8.7,1.1-2.1,1.9-3.6,2.4-4.5.5-.9.7-1.4.7-1.4,0,0-.3.4-.7,1.2-.8,1.3-1.2,1.9-1.3,1.9,0,0-.1,0,0,.2-3.4,5.8-5.3,8.9-5.6,9.4,0,0,0,.2-.2.5-.1.4-.2.6-.3.6,0,0-.3.4-.7,1.1-1.1,1.7-1.6,2.6-1.8,2.6,0,0,0,0,0,0,0-.3,1-2.3,3.2-5.9s3.5-5.8,4-6.6c1.8-2.8,3-4.7,3.6-5.8.7-1.2,1.1-1.9,1.4-2.1,0,0,0,0,0,0,0-.3,0-.8.3-1.4,0-.2.1-.4.1-.4s0,0,0,0c-.1,0-.2.1-.3.4,0,0,0,0,0,0s0,0,0,0c0-.1.2-.4.7-1,.5-.6.7-.9.8-.9,0,.1-.2.4-.5,1,0,0,.1-.1.2-.2.3-.3.6-.4.8-.5.3,0,.7.1,1,.5.3.4.6.8.8,1.3.2.5.3.8.3,1,0,0,0,.2-.1.2,0,0,0,0,0,0,0,0,0,0,.2,0,0,0,.2,0,.2,0,0,0,0,0,0,0s0,0,0,.1c0,.1-.1.2-.1.3,0,0,0,.1,0,.2,0,.2.1.3.1.5,0,.3,0,.8,0,1.4,0,0,0,.2-.1.3-.1.1-.2.3-.2.4,0,0,0,.1,0,.1h0s0,0,0,0c0,0,0,0,0,0,0,0,0,.2-.2.5-.1.2-.2.4-.2.4s0,0,0,0h0c0,0,0,0-.1.1,0,0-.1,0-.1.1s0,0,0,0c0,0,0,.1,0,.1,0,.1,0,.2,0,.4,0,.2-.1.4-.1.5,0,0,0,0,0,.1,0,0-.1.1-.1.2,0,0,0,.1,0,.2,0,0,0,0,0,0,0,0,0,0,0,0s0,0-.2,0h0s0,0,0,0,0,0,0,.1c0,0,0,.1,0,.2,0,.1,0,.2-.2.2h0,0c0,0,0,.1,0,.1,0,.1,0,.2-.1.4,0,0,0,.1,0,.1,0,0,0,0,.2,0,0,0,.2,0,.2,0,0,0,0,0,0,0,0,0,0,0-.1.1-.1,0-.2,0-.3.2,0,0,0,.3,0,.6,0,.3,0,.4-.2.5h0s0,0,0,0c0,0,0-.1,0-.1,0,0,0-.1-.1-.2h0s0,0-.1.3c0,.5-.2.8-.4.8h0s0,0,0,0c0,0,0,0,0,0,0,0,0,.1,0,.2,0,.4,0,.8-.4,1,0,0,0,.1,0,.2,0,0,0,.1,0,.2h0c0,0-.1,0-.3,0h-.2c0,0,0,0,0,0v.3c0,.2,0,.4,0,.6s-.2.3-.2.3c0,0-.2,0-.2.2,0,0,0,.1,0,.1h0s0,0,0,.2c0,0,0,.1,0,.2,0,0,0,.2,0,.2,0,.2,0,.3-.2.3,0,0-.1.1,0,.2,0,0,0,.1.2.1,0,0,0,0,.2,0,0,0,0,0,.1,0h0c0,0-.1.3-.3.5l-.5-.8c0,.2.1.3.1.5,0,.2,0,.4,0,.6,0,0,0,.1,0,.1,0,0,0,0,0,0s0,0,.1,0c0,0,.2,0,.2,0,0,0,.1,0,.1,0,0,0,0,.1,0,.2-.2,0-.3.3-.4.7-.3,1-1,2.6-2,4.5-.5.9-.7,1.5-.7,1.6h0c0,.2-.3.9-1.1,2.1-.2.3-.3.5-.3.5,0,.2,0,.3,0,.5,0,.1-.1.2-.2.2,0,0,0,0,0,0h0s0,0,0,0c0,.2,0,.5-.2.8-.2.4-.3.5-.4.6,0,0,0,0,0,0h0s0,0,0,0h0c0,.2-.2.7-.6,1.5-.4.8-.6,1.2-.7,1.2,0,0,0,0,0,0h-.1c0,0,0,0,0,0h0c0,.3-.2,1.1-.8,2.1-.2.5-.3.7-.3.8,0,0,.4-.6,1.1-1.9.9-1.7,1.4-2.5,1.6-2.6h0c0,0,0,0,0,0h0c0-.2.2-.8.7-1.7.5-1,1.2-2.4,2.2-4.4,1.1-2.2,2-3.9,2.6-5.1.6-1.2.9-1.9.9-2h0s0,0,0,0c2.1-4.7,3.1-7.2,3.1-7.6h0c.1-.4.4-1.8.9-4.3.1-.6.2-1,.2-1,0,0,0,.2.1.6,0,1-.1,2.5-.7,4.4-.5,1.9-1.3,4.2-2.4,6.8-1.3,3.1-2.7,6.1-4.2,9.2s-3.5,6.8-5.9,11.3c-2.8,5.4-4.9,9.3-6.1,11.9-1.3,2.6-2.5,5.1-3.8,7.6-.7,1.3-1.1,2.2-1.3,2.7-.2.5-.5,1.4-.8,2.7l.6.8h0ZM1624.6,259.4c0,0,0,0-.2-.1,0,0,0,0,0,0,0,0,0-.2.3-.4.2-.2.3-.3.3-.4h0s0-.1,0-.1c0,0,0-.2,0-.3,0-.2.1-.4.1-.7,0,0,0-.1.1-.1,0,0,0,0,.1,0h0c0,0,.1,0,0-.2h0c0-.2,0-.2,0-.3,0-.2,0-.3,0-.5,0-.1.1-.2.2-.2,0,0,0,0,0,0,0,0,.1.1.2.1,0,0,.2,0,.2-.1,0,0,0,0,0,0,0,0-.1-.1-.1-.2,0-.2,0-.5.2-.9.2-.4.3-.6.5-.6,0,0,.1,0,.1,0h0c0,0-.1,0-.1-.1,0,0,0-.2.2-.4.1-.1.2-.2.2-.3s0,0-.2,0c0,0,0,0,.1-.1.4-.3.6-.6.7-.9.2-.4.4-.8.7-1.2.2-.3.2-.5.2-.6,0-.1,0-.2,0-.2.2-.1.3-.4.3-.7.1-.4.2-.6.3-.6,0,0,0,0,0,0v-.2c-.1-.1,0-.4.3-.6,0,0,.1-.1.1-.1h-.2c0,0,0,0,0,0,0-.2,0-.3.3-.3,0,0,0,0,0,0h0c0-.3,0-.6.3-1.2.2-.5.4-.8.4-.8,0,0,0,0,.2,0s0,0,.1,0c0,0,0,0,0,0h0s0-.1,0-.1c0-.3,0-.6.4-.9,0,0,0-.1,0-.2h0c0-.4,0-.6.3-.9.2-.3.4-.5.6-.5,0,0,0,0,0,0h0s0-.1,0-.1c0-.2,0-.5.1-.7s.3-.5.5-.9c.2-.4.4-.7.4-.8,0-.2.2-.5.5-1,.2-.3.3-.5.3-.6,0,0,0-.1,0-.2,0,0,0,0,0,0h0s0,0,0,0c0,0,.2-.2.3-.5s.2-.6.2-.8c0,0,0-.1,0-.2,0,0,0-.1,0-.2,0-.1,0-.2,0-.2,0,0,.2,0,.2,0h0c0,0,0,.1,0,.1,0,0,0,.1.1.2,0,0,.1-.1.2-.4.2-.4.4-.7.6-.7h.2s0,0,0,0,0,0-.1-.2c0,0,0-.1-.1-.2,0-.1.1-.3.3-.7.2-.2.3-.4.3-.5,0,0,0,0-.2,0-.2,0-.3,0-.3-.1,0-.1,0-.2.2-.2,0,0,.1,0,.3.1,0,0,.1,0,.2,0,0,0,0,0,0-.1,0,0,0-.1,0-.1,0-.1,0-.2.1-.3,0-.2.1-.3.1-.4,0-.2,0-.3-.2-.3,0,0,0,0,0,.1,0,.4-.2.6-.4.6h-.4s0,.2,0,.2c0,.4.1.6.1.7,0,.2,0,.2-.1.2-.2,0-.3.1-.5.3s-.2.3-.2.5c0,.1,0,.2.1.2,0,0,0,0,0-.2,0,0,0-.1,0-.1,0,0,0,.1,0,.2,0,.1,0,.2,0,.3,0,0-.2.1-.3.2-.3.1-.4.3-.5.5-.2.3-.2.6-.2.9,0,0-.2.2-.3.3-.2.1-.2.2-.2.2s0,0,.1.2c.1.1.2.2.2.2h0s0,0,0,0c0,0-.2.2-.3.5,0,.2-.2.4-.2.4,0,0,0,0-.1-.1,0,0,0,0,0,0s0,0,0,0c0,0,0,0,0,.2,0,.1,0,.2,0,.3,0,.2,0,.3-.1.4,0,0-.2,0-.3-.2,0,0,0,0,.2,0,0,0,0,0,0,0h0s0-.1,0-.1c0,0-.1-.1-.2-.1-.1,0-.2,0-.2.2s0,0,0,0c0,0,0,0,0,0,0,.1,0,.3-.2.5-.1.2-.2.3-.2.4,0,0,0,.1.2.3,0,0,0,0,0,.1h0s0,0,0,0c0,0-.1,0-.2,0,0,0,0,0,0,.1,0,.2-.1.4-.3.4-.2.1-.3.3-.3.4,0,.1,0,.2,0,.2s0,0,0-.1c0-.1.2-.2.2-.2,0,0,0,0,0,0,0,.1,0,.2-.2.3-.2.1-.3.2-.4.2h-.1c0,0-.1.1-.2.3,0,0,0,0,0,0h0s0,0,0,0c0,0,0,0,0,0,0,0,0,.1-.1.2,0,.1-.1.2-.1.3,0,0,0,0,0,.1,0,0,0,.1,0,.1,0,0-.2,0-.3-.2-.2,0-.2-.1-.2-.1h0c.2.2.3.4.3.5,0,.1,0,.1,0,.1s-.1,0-.2,0c0,0-.1,0-.1,0s0,0,0,0c0,.3,0,.5,0,.6,0,.1-.1.2-.2.3,0,0-.1.1-.1.2v.2c0,.1,0,.2-.3.3-.1,0-.2,0-.2.1h0c0,0,0,.1,0,.1,0,0,0,.1-.1.1,0,0-.1,0-.1,0h0c.1.3.2.4.2.4,0,0,0,0-.1,0,0,0,0,0-.1,0-.2,0-.3.1-.4.4,0,.3-.2.6-.3,1.1-.1.5-.2.8-.3.8,0,0-.2.2-.4.7-.2.6-.4.8-.5.9,0,0,0,0,0,0h0s0,0,0,0c0,0,0,0,0,.1,0,.2,0,.6-.3,1.2-.2.6-.4.9-.5.9,0,0,0,0,0-.2,0-.1,0-.2,0-.2h0s0,0,0,0c0,.1.1.3.3.5,0,0,0,0,.1.1-.4-.2-.7-.3-.8-.3h0c.2.3.3.4.3.5,0,0,0,0,0,0h0s0,0,0,0c-.1,0-.2.1-.2.3,0,0,0,0,0,0,0,0,0,0,.1,0h0s0,0,0,0c0,0,0,.2-.2.5s-.3.4-.4.4h0s0,0,0,0c0,0,0,.3-.2.8,0,0,0,0,0,0h0c0,0,.1-.1.1-.1h0c0,0-.1.2-.3.5-.4.4-.6.7-.5.8,0,0,0,0,0,0,0,0,.2-.1.3-.3,0-.1.1-.2.1-.2h0c0,.3,0,.6-.2.9-.2.3-.5.5-.8.5,0,0-.1,0-.1,0,0,0,0,0,.2,0,0,0,.2,0,.2,0,0,0,0,0,.1,0,0,0,0,0,0,.1,0,.5-.2.9-.7,1.2,0,0-.1,0-.1.1s0,0,.2,0c.2,0,.3,0,.3,0,0,0,0,0,0,0,0,0,0,0,0,0,0,0,0,0,.1,0,.1,0,.2-.1.3-.3h0Z"/>
    </g>
  </g>
  <g id="Layer_2">
    <g>
      <g>
        <g>
          <path d="M405.3,255.2v9.3c-1.9,4.2-4,8.4-6.2,12.4-4.4,8-9.4,15.7-15,23H97.6c-5.6-7.3-10.6-15-15-23-2.2-4-4.3-8.2-6.2-12.4v-9.3l2.6-3.4,74.5-97h174.7l74.5,97,2.6,3.4Z"/>
          <path d="M240.9,37.8h0c48.2,0,87.4,39.1,87.4,87.4v82h-174.7v-82c0-48.2,39.1-87.4,87.4-87.4Z"/>
          <g>
            <path class="st0" d="M274,183.5h-66.2c-10.5-10.5-16.4-16.4-27-27v-45.8c0-21,17.1-38.1,38.1-38.1h44c21,0,38.1,17.1,38.1,38.1v45.8c-10.5,10.5-16.4,16.4-27,27Z"/>
            <path d="M262.9,72.4h-44c-21.1,0-38.3,17.2-38.3,38.3v45.8l25.6,25.6,1,1,.5.5h66.4l.5-.5,1-1,25.6-25.6v-45.8c0-21.1-17.2-38.3-38.3-38.3ZM300.8,156.4l-26.9,26.9h-66.1l-1.5-1.5h0s-25.4-25.4-25.4-25.4v-45.7c0-20.9,17-37.9,37.9-37.9h44c20.9,0,37.9,17,37.9,37.9v45.7Z"/>
          </g>
          <path d="M196.7,109.4c5.4-4.3,11.8-7.4,18.7-8.1,5.6-.7,10.8.3,15.1,4.1,1.4,1.1,2.5,2.5,3.4,4l-.2.2c-2.6-1.4-5-2.8-7.7-3.7-3.3-1.1-6.8-2.1-10.3-2-3.2,0-6.5.7-9.6,1.7-3.1,1-6.2,2.4-9.1,4.1l-.2-.3h0Z"/>
          <path d="M284.9,109.7c-5.7-3.3-12.1-5.6-18.7-5.8-3.6,0-7,.9-10.3,2-2.7.9-5.1,2.3-7.7,3.7,0,0-.2-.2-.2-.2.9-1.5,2-2.9,3.4-4,2.7-2.4,6.2-3.9,9.7-4.2,5.3-.4,10.6.7,15.3,2.9,3.1,1.4,6.1,3.2,8.7,5.3,0,0-.2.3-.2.3h0Z"/>
          <path d="M215.2,123.2c-3.1,0-6-1.7-7.4-4.6l1.5-.7c1.1,2.3,3.4,3.7,6,3.7s4.8-1.4,6-3.7l1.5.7c-1.4,2.8-4.3,4.6-7.4,4.6Z"/>
          <path d="M266.5,123.2c-3.2,0-6-1.7-7.4-4.6l1.5-.7c1.1,2.3,3.4,3.7,6,3.7s4.8-1.4,6-3.7l1.5.7c-1.4,2.8-4.3,4.6-7.4,4.6Z"/>
          <rect x="202.9" y="88.3" width="30.8" height="5.6"/>
          <rect x="248" y="88.3" width="30.8" height="5.6"/>
          <g>
            <polygon class="st0" points="207.7 183.5 222.4 156.5 259.4 156.5 274 183.5 207.7 183.5"/>
            <polygon points="272.2 184.5 258.2 158.6 223.6 158.6 209.5 184.5 205.9 182.5 221.1 154.5 260.6 154.5 275.8 182.5 272.2 184.5"/>
          </g>
          <path d="M222,155.9h37.8s0,0,0,0h0c0,6.2-5,11.1-11.1,11.1h-15.6c-6.2,0-11.1-5-11.1-11.1h0s0,0,0,0Z"/>
          <polygon points="241 145.2 235 140.3 235 111.6 236.5 111.6 236.5 139.6 241 143.2 245.5 139.3 246.5 140.5 241 145.2"/>
          <rect x="245.2" y="111.6" width="1.5" height="28.3"/>
          <ellipse cx="234" cy="139.9" rx="2.5" ry="4.4"/>
          <ellipse cx="247.7" cy="139.9" rx="2.5" ry="4.4"/>
          <path class="st0" d="M314.1,132.7c0,11.7-5,21.1-11.1,21.1v-42.3c6.1,0,11.1,9.5,11.1,21.1Z"/>
          <path class="st0" d="M178.7,111.6v42.3c-6.1,0-11.1-9.5-11.1-21.1s5-21.1,11.1-21.1Z"/>
          <circle class="st0" cx="176" cy="157.6" r="2.8"/>
          <circle class="st0" cx="305.8" cy="157.6" r="2.8"/>
          <path class="st0" d="M399.1,276.9c-4.4,8-9.4,15.7-15,23-4,5.2-8.3,10.2-12.9,15H110.5c-4.6-4.8-8.9-9.8-12.9-15-5.6-7.3-10.6-15-15-23,1.3-2.5,2.8-5,4.2-7.5,16.7-27.6,41.7-49.5,71.4-62.3,7.8-3.3,15.8-6,24.1-8,.3,0,.5-.1.8-.2,6.7-1.6,13.5-2.7,20.5-3.4,0,0,.2,0,.3,0v.2c0,0,4.2,11.4,4.2,11.4l32.7,90.2,32.7-90.2,4.1-11.2h0s.1-.4.1-.4c0,0,.2,0,.2,0,7,.7,13.8,1.8,20.5,3.4h0c.3,0,.5.1.8.2,8.4,2,16.4,4.7,24.2,8,29.7,12.7,54.7,34.7,71.4,62.3,1.5,2.4,2.9,4.9,4.2,7.5Z"/>
          <polygon points="178.7 266.4 182.8 191.8 186.9 266.4 178.7 266.4 178.7 266.4"/>
          <polygon points="199.8 282.8 203.9 191.8 208 282.8 199.8 282.8 199.8 282.8"/>
          <polygon points="294.8 266.4 298.9 191.8 303 266.4 294.8 266.4 294.8 266.4"/>
          <polygon points="273.7 282.8 277.8 191.8 281.9 282.8 273.7 282.8 273.7 282.8"/>
          <g>
            <path d="M208.7,299.9c1,5.1,2.3,10.1,3.8,15h-4.3c-1.5-4.9-2.7-9.9-3.7-15-1.1-5.6-1.9-11.4-2.5-17.1,0-.9-.1-1.8-.2-2.7l4.1-.3c0,1,.2,2,.3,3,.5,5.8,1.4,11.5,2.5,17.1Z"/>
            <path d="M279.9,280.1c0,.9-.2,1.8-.2,2.7-.6,5.8-1.5,11.5-2.6,17.1-1,5.1-2.3,10.1-3.8,15h-4.3c1.5-4.9,2.8-9.9,3.9-15,1.2-5.6,2.1-11.4,2.7-17.1,0-1,.2-2,.3-3l4.1.3Z"/>
          </g>
          <g>
            <path d="M118,292.1v6.7c-.3-3-.1-5.4,0-6.7Z"/>
            <path d="M118.1,299.9c.5,4.2,1.8,9.6,4.9,15h-5v-16.1c0,.3,0,.7.1,1.1Z"/>
          </g>
          <g>
            <path d="M366.3,298.8v16.1h-5c0-.2.2-.3.3-.5,2.9-5.3,4.2-10.4,4.6-14.5,0-.4,0-.7.1-1.1Z"/>
            <path d="M366.3,298.8v-6.7c.1,1.3.3,3.7,0,6.7Z"/>
          </g>
          <circle cx="185.8" cy="304.6" r="5.1"/>
          <circle cx="295.9" cy="304.6" r="5.1"/>
        </g>
        <path d="M407,120.3c-9.1-21.5-22.1-40.8-38.6-57.3-16.6-16.5-35.8-29.5-57.3-38.6-22.2-9.4-45.8-14.2-70.2-14.2s-48,4.8-70.2,14.2c-21.5,9.1-40.8,22.1-57.3,38.6-16.6,16.6-29.5,35.8-38.6,57.3-9.4,22.2-14.2,45.8-14.2,70.2s4.8,47.9,14.2,70.2c.5,1.3,1.1,2.6,1.7,3.9,1.9,4.2,4,8.4,6.2,12.4,4.4,8,9.4,15.7,15,23,4,5.2,8.3,10.2,12.9,15h10.2c-.7-.7-1.4-1.4-2.1-2.1-.2-.2-.3-.3-.5-.5-4-4-7.7-8.1-11.2-12.4-7.7-9.4-14.4-19.6-20-30.5-2-3.8-3.8-7.7-5.4-11.6-.8-2-1.6-4-2.4-6-7.4-19.6-11.2-40.2-11.2-61.4s4.6-46,13.6-67.4c8.7-20.6,21.2-39.1,37.1-55,15.9-15.9,34.4-28.4,55-37.1,21.3-9,44-13.6,67.3-13.6s46,4.6,67.3,13.6c20.6,8.7,39.1,21.2,55,37.1,15.9,15.9,28.4,34.4,37.1,55,9,21.3,13.6,44,13.6,67.4s-3.8,41.8-11.2,61.4c-.8,2-1.5,4-2.4,6-1.7,4-3.5,7.8-5.4,11.6-5.6,10.8-12.2,21-20,30.5-2.7,3.3-5.6,6.6-8.6,9.7-1,1.1-2,2.1-3.1,3.2-.5.5-1.1,1.1-1.6,1.6-.2.2-.3.3-.5.5h10.2c4.6-4.8,8.9-9.8,12.9-15,5.6-7.3,10.6-15,15-23,2.2-4,4.3-8.2,6.2-12.4.6-1.3,1.1-2.6,1.7-3.9,9.4-22.2,14.2-45.8,14.2-70.2s-4.8-47.9-14.2-70.2Z"/>
      </g>
      <g>
        <g>
          <polygon points="584.8 138.7 565.6 138.7 565.5 85.8 539.6 129.4 530.4 129.4 504.5 86.9 504.5 138.7 485.4 138.7 485.4 50.5 502.3 50.5 535.3 105.3 567.8 50.5 584.5 50.5 584.8 138.7"/>
          <polygon points="674 122.3 674 138.7 605.7 138.7 605.7 50.5 672.3 50.5 672.3 66.9 626 66.9 626 86.1 666.9 86.1 666.9 101.9 626 101.9 626 122.3 674 122.3"/>
          <polygon points="771.1 50.5 771.1 138.7 754.3 138.7 710.4 85.2 710.4 138.7 690.2 138.7 690.2 50.5 707.1 50.5 750.9 104 750.9 50.5 771.1 50.5"/>
          <polygon points="858.9 50.5 858.9 67.2 830.7 67.2 830.7 138.7 810.3 138.7 810.3 67.2 782.1 67.2 782.1 50.5 858.9 50.5"/>
          <path d="M955.9,76.4c-2.4-5.5-5.8-10.3-10.1-14.4-4.3-4.1-9.4-7.3-15.2-9.6-5.8-2.3-12.2-3.4-19.2-3.4s-13.3,1.1-19.1,3.4c-5.9,2.3-11,5.5-15.4,9.6-4.4,4.1-7.8,9-10.1,14.5-2.4,5.5-3.6,11.6-3.6,18.1s1.2,12.6,3.6,18.1c2.4,5.5,5.8,10.4,10.1,14.5,4.3,4.1,9.5,7.3,15.4,9.6,5.9,2.3,12.4,3.4,19.3,3.4s13.2-1.1,19.1-3.4c5.8-2.3,10.9-5.4,15.2-9.5,4.3-4.1,7.7-8.9,10.1-14.5,2.4-5.6,3.7-11.7,3.7-18.2s-1.2-12.7-3.7-18.2ZM936.8,106.1c-1.4,3.4-3.3,6.4-5.8,8.9-2.5,2.5-5.4,4.5-8.8,5.8-3.3,1.3-6.9,2-10.9,2s-7.6-.7-11-2c-3.4-1.3-6.3-3.3-8.8-5.8-2.5-2.5-4.4-5.5-5.8-9-1.4-3.5-2.1-7.3-2.1-11.4s.7-8,2.1-11.5c1.4-3.4,3.3-6.4,5.8-9,2.5-2.5,5.4-4.4,8.8-5.8,3.3-1.3,7-2,10.9-2s7.6.7,11,2c3.4,1.3,6.3,3.3,8.8,5.8,2.5,2.5,4.4,5.5,5.8,9,1.4,3.4,2.1,7.3,2.1,11.5s-.7,8-2.1,11.5Z"/>
          <path d="M1033.3,110.4c0,0,.1,0,.2,0,5.7-2.5,10.1-6.2,13.2-10.9,3.1-4.7,4.7-10.4,4.7-16.9s-1.6-12.3-4.7-17.1c-3.1-4.8-7.5-8.5-13.2-11-5.7-2.6-12.5-3.8-20.4-3.8h-38.2v88.2h20.4v-24.6h17.8c.3,0,.6,0,1,0l16.9,24.6h22l-19.7-28.3ZM995.3,67.2h16.6c6.3,0,11,1.3,14.1,4,3.1,2.7,4.7,6.5,4.7,11.3s-1.6,8.5-4.7,11.3c-3.1,2.7-7.8,4.1-14.1,4.1h-16.6v-30.7Z"/>
          <polygon points="1135.8 122.3 1135.8 138.7 1067.5 138.7 1067.5 50.5 1134.1 50.5 1134.1 66.9 1087.8 66.9 1087.8 86.1 1128.7 86.1 1128.7 101.9 1087.8 101.9 1087.8 122.3 1135.8 122.3"/>
          <path d="M1218.4,112.9c0,4.9-1.4,9.5-4.1,13.6-2.8,4.1-6.9,7.4-12.4,10-5.5,2.5-12.4,3.8-20.8,3.8s-13.8-.9-20.3-2.8c-6.5-1.9-11.7-4.4-15.6-7.4l6.9-15.4c3.8,2.7,8.2,4.9,13.4,6.6,5.2,1.7,10.4,2.6,15.7,2.6s7.3-.4,9.8-1.2c2.5-.8,4.3-1.9,5.5-3.3,1.2-1.4,1.8-3.1,1.8-4.9s-.9-4.2-2.8-5.6c-1.8-1.4-4.3-2.5-7.3-3.4-3-.9-6.4-1.7-10-2.5-3.7-.8-7.3-1.8-11-3-3.6-1.2-7-2.7-10-4.5-3-1.9-5.5-4.3-7.4-7.3-1.9-3-2.8-6.9-2.8-11.6s1.4-9.6,4.1-13.8c2.7-4.2,6.8-7.5,12.3-10,5.5-2.5,12.4-3.7,20.7-3.7s11,.7,16.4,2c5.4,1.3,10.1,3.3,14.2,5.9l-6.3,15.5c-4.1-2.4-8.2-4.1-12.3-5.2-4.1-1.1-8.2-1.7-12.1-1.7s-7.2.5-9.7,1.4c-2.5.9-4.3,2.1-5.4,3.6-1.1,1.5-1.6,3.2-1.6,5.1s.9,4.1,2.8,5.5c1.9,1.4,4.3,2.5,7.3,3.3,3,.8,6.4,1.7,10,2.5,3.6.8,7.3,1.8,11,2.9,3.6,1.1,7,2.6,10,4.4,3,1.8,5.5,4.3,7.4,7.3,1.9,3,2.8,6.8,2.8,11.5Z"/>
          <polygon points="1313.3 50.5 1313.3 138.7 1292.9 138.7 1292.9 102.6 1252.8 102.6 1252.8 138.7 1232.4 138.7 1232.4 50.5 1252.8 50.5 1252.8 85.3 1292.9 85.3 1292.9 50.5 1313.3 50.5"/>
          <polygon points="1467 50.5 1438.1 138.7 1416.2 138.7 1396.8 79 1376.8 138.7 1354.8 138.7 1326 50.5 1347.2 50.5 1367.1 112.5 1387.9 50.5 1406.7 50.5 1426.9 113 1447.4 50.5 1467 50.5"/>
          <path d="M1523.3,50.5h-20.2l-39.3,88.2h20.9l7.9-18.9h40.9l7.8,18.9h21.4l-39.4-88.2ZM1499,104.3l14-33.7,14,33.7h-28Z"/>
          <path d="M1630.3,110.4c0,0,.1,0,.2,0,5.7-2.5,10.1-6.2,13.2-10.9,3.1-4.7,4.7-10.4,4.7-16.9s-1.5-12.3-4.7-17.1c-3.1-4.8-7.5-8.5-13.2-11-5.7-2.6-12.5-3.8-20.4-3.8h-38.2v88.2h20.4v-24.6h17.8c.3,0,.6,0,1,0l16.9,24.6h22.1l-19.7-28.3ZM1623,93.8c-3.1,2.7-7.8,4.1-14.1,4.1h-16.6v-30.7h16.6c6.3,0,11,1.3,14.1,4s4.7,6.5,4.7,11.3-1.6,8.5-4.7,11.3Z"/>
        </g>
        <g>
          <path class="st1" d="M935.4,229.1c.7-.2,1.8-.3,2.9-.3,2.7,0,5.3.7,7.2,2.3,3.6,3,9.8,7.6,15.1,7.6s3.9-.5,4.9-1.5.9-3.1,0-3.9c-6.7-5.2-19.6-10.2-19.6-19.7s14.5-23.7,22.8-27.2c3.1-1.3,5-1.6,7.2-1.6s4.1.7,5.7,2c2.6,2.4,4.3,5.5,4.9,8,.9,3.8-1.4,7.5-2.8,9.6-2.2,3-4.9,7.8-6.2,10-.8,1.5-1.9,2.2-3.6.4-1.3-1.3-2.2-2.9-2.2-5s1.2-5.6,4.3-9.7c2.3-3.4,4.8-7.5,3.5-8.5-3.4-2.5-23.8,11.1-24.2,21.8-.3,6.1,12.4,11.4,16.1,14,1.8,1.3,2.8,3,2.8,4.7s-1.2,4.5-3.6,7.4c-2.4,2.8-7,4.7-12.5,4.7s-15.8-3.8-23.1-12.3c-1.3-1.6-.6-2.6.7-3.1Z"/>
          <path class="st1" d="M1002.3,205.5c3.3,0,5.4,1.7,6.2,4.1l1.8-2.9c1.1-1.9,2.7-2,3.8-.7,1.6,1.9,2.4,5.9,0,10.8-2.4,5.1-10.2,15.2-10.2,21.5s.4,2.2,1.3,2.2c3.3,0,8-6.3,11.1-12.4,1-1.9,1.9-1.9,2.8,0,.4.8.9,3.3-.4,6-2.4,5.1-8.4,10-14,10s-7.3-2.4-8.1-5.9c-2.7,2.6-6.9,5.5-10.6,5.5-5.5,0-8.5-4-8.5-9.5s1.7-9.2,5-13.8c7.4-10.7,15-15,19.8-15ZM999.1,226.3c3.6-6.3,5.3-10.9,5.3-13.3s-.2-1.8-1.1-1.8c-1.9,0-8.3,5.9-13,13.5-2.8,4.4-4.4,9.3-4.4,12.3s.4,2.8,1.3,2.8c3.1,0,7.3-5.7,11.9-13.5Z"/>
          <path class="st1" d="M1040.1,205.5c3.3,0,5.4,1.7,6.2,4.1l1.8-2.9c1.1-1.9,2.7-2,3.8-.7,1.6,1.9,2.4,5.9,0,10.8-2.4,5.1-10.2,15.2-10.2,21.5s.4,2.2,1.3,2.2c3.3,0,8-6.3,11.1-12.4,1-1.9,1.9-1.9,2.8,0,.4.8.9,3.3-.4,6-2.4,5.1-8.4,10-14,10s-7.3-2.4-8.1-5.9c-2.7,2.6-6.9,5.5-10.6,5.5-5.5,0-8.5-4-8.5-9.5s1.7-9.2,5-13.8c7.4-10.7,15-15,19.8-15ZM1036.9,226.3c3.6-6.3,5.3-10.9,5.3-13.3s-.2-1.8-1.1-1.8c-1.9,0-8.3,5.9-13,13.5-2.8,4.4-4.4,9.3-4.4,12.3s.4,2.8,1.3,2.8c3.1,0,7.3-5.7,11.9-13.5Z"/>
          <path class="st1" d="M1054.9,225.8c1.9-4.5,5.4-11.9,9.1-18.6-2.9-.4-4.6-1.4-5.3-2.5-1.3-2-.4-2.9,1.8-2.8,2.1,0,4.6,0,6.7-.2,2.9-5,4.8-8.1,7-11.1,1.4-2,2.5-2,3.5-.2.7,1.1,1,2.7,1,3.8,0,1.7-.4,3.8-1.5,6.4,2.9.4,4.5,1.9,5.1,3,.9,1.7.3,2.8-2,2.5-1.7-.2-4.1,0-6.1.3-3.5,6-8.8,15.2-12.1,22.3-1.1,2.5-1.7,4.9-1.7,7s.9,4.7,2.5,4.7c3.6,0,8.5-5.9,11.7-12.8,1-2.2,3.2-2.4,3.8,0,.5,2,0,3.3-.9,5.5-1.3,2.8-7.5,10.8-15.3,10.8s-9.2-4-9.2-10.4.6-4.6,1.9-7.7Z"/>
          <path class="st1" d="M1096.7,244c-6.1,0-8.9-3.1-8.9-7.9s4.6-13.9,8.1-19.4c1.8-3.1,3.2-5.3,2.5-5.3s-9.7,5.8-14.6,13.8c-3.2,5.2-6.5,11.6-8.7,17.2-.7,1.7-2.1,2-3.2.6-1.5-1.8-2.8-4-.5-10.1,3.7-9.8,22.1-40.9,29.6-50.5,1.5-1.9,2.9-1.5,3.7.4.5,1,.7,2.2.7,3.5,0,2.5-1.1,5.9-3.3,9.8-1.9,3.1-7.6,11.7-8.5,13,2.8-2,6-3.2,7.8-3.2,2.7,0,5.4,2.9,5.4,6.5s-.3,2.6-1,3.9c-5.1,9.1-7.4,13-8.5,15.2-.8,2-1.2,4-1.2,5.5s.5,3.2,1.8,3.2c3.2,0,8.2-6.6,11-12.3.6-1.4,2.1-1.6,2.9,0,.5,1.1,1.1,3.3-.3,6-2.7,5.4-8.7,10-14.7,10Z"/>
          <path class="st1" d="M1156.6,234.5c0-1.7,0-3.8.3-6.2l-6.5.6c-3.7.4-7.3.7-9.9.7-2.5,4.4-4.6,9-6.7,12.8-1.1,2-2.7,1.6-3.3.3-.6-1.1-1.1-2-1.1-3.4s.4-3.6,1.5-6.3c.6-1.4,1.2-3,2.2-4.9-1.7-1.2-2.5-2.5-2.8-3.1-.7-1.8-.4-2.3,2-2,1.3.2,2,.3,3.3.4,7-12.2,19.8-30.1,29.5-38.4,2-1.7,3.4-1.6,4.8.3.9,1.2,1.5,2.2,2.1,3.8.5,1.1.7,2.1.7,3.2s-.2,2.4-.7,3.8c-2.1,6.7-4.7,16.3-6.5,26.1,2.5,1.1,3.4,2.9,4.1,4.8.5,1.5-.2,1.9-1.9,1.6l-3.3-.6c-.6,4.6-1,9.4-1.2,13.9,0,1.7-1.2,2-2.9,1.3-2-1-3.8-3.4-3.9-8.8ZM1163.1,197.8c-5.9,7.2-12.6,16.1-18.5,25.2,1.9-.2,3.7-.4,5.5-.6,3.2-.4,5.2-.7,7.7-.8,1.1-7.7,3-16.7,5.3-23.7Z"/>
          <path class="st1" d="M1194.3,205.5c3.3,0,5.4,1.7,6.2,4.1l1.8-2.9c1.1-1.9,2.7-2,3.8-.7,1.6,1.9,2.4,5.9,0,10.8-2.4,5.1-10.2,15.2-10.2,21.5s.4,2.2,1.3,2.2c3.3,0,8-6.3,11.1-12.4,1-1.9,1.9-1.9,2.8,0,.4.8.9,3.3-.4,6-2.4,5.1-8.4,10-14,10s-7.3-2.4-8.1-5.9c-2.7,2.6-6.9,5.5-10.6,5.5-5.5,0-8.5-4-8.5-9.5s1.7-9.2,5-13.8c7.4-10.7,15-15,19.8-15ZM1191,226.3c3.6-6.3,5.3-10.9,5.3-13.3s-.2-1.8-1.1-1.8c-1.9,0-8.3,5.9-13,13.5-2.8,4.4-4.4,9.3-4.4,12.3s.4,2.8,1.3,2.8c3.1,0,7.3-5.7,11.9-13.5Z"/>
          <path class="st1" d="M1246.7,234.1c-3.5,5.5-9.9,9.2-17.6,12-4.9,12-11.7,26.1-19.2,29.6-2.2.8-4.6.5-6.5-2.1-1.3-2-2.7-4.4-2.7-7.2,0-8.4,9-17.9,20.3-21.8l1.2-3.1c-2,1.4-4.5,2.3-7,2.3-5.3,0-8.4-3.8-8.4-9.4,0-13.3,15.7-28.6,24.8-28.6s5.1,1.7,5.9,3.9c.4-.7.9-1.6,1.5-2.6,1.1-2.1,2.8-2,4-.6.8,1,1.5,2.8,1.5,4.7s-1,5-3.3,9.7c-3,5.9-6.7,12.6-9.8,19.7,5.8-3.5,10.4-7.4,14-12.4,1.2-1.6,2.9-1.6,2.9.5s-.4,3.4-1.8,5.6ZM1209.6,260c-2.7,4.5-3.9,8.9-3,9.8.8.7,3.2-2.1,6-7.2,1.9-3.2,3.9-7.3,5.7-12-3.9,2.8-6.8,6.1-8.7,9.4ZM1228.3,226.4c3.6-6.3,5.3-10.9,5.3-13.3s-.3-1.7-.9-1.7c-3.2,0-17.5,14.6-17.5,25.4s.4,3,1.2,3c3,0,7.3-5.6,11.9-13.4Z"/>
          <path class="st1" d="M1261,229.9c-2.2,0-4.5-.6-6.6-2-.6,1.9-.8,3.8-.8,5.5,0,4.1,1.7,7,4.5,7,7.1,0,13.3-6.9,17.1-12.6,1-1.5,2.2-1.7,3,.2.3.8.4,3.5-1.3,6-3.9,5.7-11.3,10-18.6,10.1-8.6,0-13.4-5.6-13.4-13s.9-7,2.9-10.7c4.8-9.8,12.4-14.8,17.7-14.8s2.3.2,3.3.7c2.6,1.5,4.5,3,5.8,4.8.6.8.9,2.2.9,3.4,0,5.6-6.2,15.3-14.4,15.3ZM1255.7,224.3c.7.5,1.4.6,2,.6,2.2,0,5.2-2.8,7.1-5.3,2.7-3.6,4.6-8,3.6-8.8-1.4-1.1-8.3,4.6-12.7,13.5Z"/>
          <path class="st1" d="M1296.7,229c3.5-9.8,10.5-23.2,17-33.2-3.2-.5-5-2.5-5.8-4-.6-1.3,0-2.1,1.8-2.2,5.7-.4,13.8-4.8,21-5.5,6.5-.6,12.2,2.9,12.2,13.6s-1.7,7.1-4,10c-2.3,3.2-7.4,7.6-13.5,10.6,2.8,1.7,5,4.6,5,8.3s-1,5.7-3.6,8.4c-3.8,4.2-11.3,7.5-16.5,8.7-1.3.3-2.8.4-3.9.4-1.7,0-3-.3-4.4-.9-3.9-1.9-6.7-5.6-6.7-8.5s.6-3.4,1.4-5.6ZM1323.9,224.3c0-1.7-1.7-3.2-5.9-3.5-3.5.7-7.1.9-9,.4-2.3,4.6-4.6,9.3-5.9,13.4-.8,2.6,0,3.5,1.9,3.2,5.4-.6,13.1-4.4,16.9-9.1,1.2-1.5,2-3.1,2-4.4ZM1312.4,214.7c15.2-4.1,24.9-14,24.8-20.2,0-2-1.6-3.2-3.2-3.2-2.5,0-6.3,1.4-12.4,3.4,0,2-.6,4.7-2.8,8.9-1,2-2.3,4.2-6.5,11.1Z"/>
          <path class="st1" d="M1357.9,205.5c3.3,0,5.4,1.7,6.2,4.1l1.8-2.9c1.1-1.9,2.7-2,3.8-.7,1.6,1.9,2.4,5.9,0,10.8-2.4,5.1-10.2,15.2-10.2,21.5s.4,2.2,1.3,2.2c3.3,0,8-6.3,11.1-12.4,1-1.9,1.9-1.9,2.8,0,.4.8.9,3.3-.4,6-2.4,5.1-8.4,10-14,10s-7.3-2.4-8.1-5.9c-2.7,2.6-6.9,5.5-10.6,5.5-5.5,0-8.5-4-8.5-9.5s1.7-9.2,5-13.8c7.4-10.7,15-15,19.8-15ZM1354.7,226.3c3.6-6.3,5.3-10.9,5.3-13.3s-.2-1.8-1.1-1.8c-1.9,0-8.3,5.9-13,13.5-2.8,4.4-4.4,9.3-4.4,12.3s.4,2.8,1.3,2.8c3.1,0,7.3-5.7,11.9-13.5Z"/>
          <path class="st1" d="M1398,232.5c-1.1,2.4-1.7,4.5-1.7,5.9s.4,2,1.2,2c3.2,0,7.8-6.1,11-12.3.9-1.8,2.1-1.7,3,0,.5.8.8,3.4-.4,6-2.5,5-8.3,9.8-13.7,9.8s-7.6-1.6-8.4-5.7c-2.9,3-6.5,5.4-10.6,5.4s-8.4-4-8.4-9.5,1.7-9,4.9-13.7c7.2-10.5,15-14.9,19.8-14.9s5.2,1.3,5.9,3.7c4.6-8.7,10.7-19.2,13.7-23.6,1.7-2.3,3-2.1,3.9,0,.5,1.1.8,2.3.8,3.6,0,2.5-1.2,6.1-3.6,10.5-5.4,10.2-13.3,23.2-17.6,32.4ZM1396.3,211.4c-2.6,0-8.7,5.6-13.7,13.4-2.8,4.4-4.3,9-4.3,12.1s.4,2.9,1.4,2.9c3,0,7.4-5.2,11.6-13.3,5-9.6,6.7-15,4.9-15Z"/>
          <path class="st1" d="M1431.8,244c-6.1,0-8.9-3.1-8.9-7.9s4.6-13.9,8.1-19.4c1.8-3.1,3.2-5.3,2.5-5.3s-9.7,5.8-14.6,13.8c-3.2,5.2-6.5,11.6-8.7,17.2-.7,1.7-2.1,2-3.2.6-1.5-1.8-2.8-4-.5-10.1,3.7-9.8,22.1-40.9,29.6-50.5,1.5-1.9,2.9-1.5,3.7.4.5,1,.7,2.2.7,3.5,0,2.5-1.1,5.9-3.3,9.8-1.9,3.1-7.6,11.7-8.5,13,2.8-2,6-3.2,7.8-3.2,2.7,0,5.4,2.9,5.4,6.5s-.3,2.6-1,3.9c-5.1,9.1-7.4,13-8.5,15.2-.8,2-1.2,4-1.2,5.5s.5,3.2,1.8,3.2c3.3,0,8.2-6.6,11-12.3.7-1.4,2.1-1.6,2.9,0,.5,1.1,1.1,3.3-.3,6-2.7,5.4-8.7,10-14.7,10Z"/>
          <path class="st1" d="M1444.9,225.8c1.9-4.5,5.4-11.9,9.1-18.6-2.9-.4-4.5-1.4-5.3-2.5-1.3-2-.4-2.9,1.8-2.8s4.6,0,6.7-.2c2.9-5,4.8-8.1,7-11.1,1.4-2,2.5-2,3.5-.2.7,1.1,1,2.7,1,3.8,0,1.7-.4,3.8-1.5,6.4,2.9.4,4.5,1.9,5.1,3,.9,1.7.3,2.8-2,2.5-1.7-.2-4.1,0-6.1.3-3.5,6-8.8,15.2-12.1,22.3-1.1,2.5-1.7,4.9-1.7,7s.9,4.7,2.5,4.7c3.6,0,8.5-5.9,11.7-12.8,1-2.2,3.2-2.4,3.8,0,.5,2,0,3.3-.9,5.5-1.3,2.8-7.5,10.8-15.3,10.8s-9.2-4-9.2-10.4.6-4.6,1.9-7.7Z"/>
          <path class="st1" d="M1477.6,229.9c-2.2,0-4.5-.6-6.6-2-.6,1.9-.8,3.8-.8,5.5,0,4.1,1.7,7,4.5,7,7.1,0,13.3-6.9,17.1-12.6,1-1.5,2.2-1.7,3,.2.3.8.4,3.5-1.3,6-3.9,5.7-11.3,10-18.6,10.1-8.6,0-13.4-5.6-13.4-13s.9-7,2.9-10.7c4.8-9.8,12.4-14.8,17.7-14.8s2.3.2,3.3.7c2.6,1.5,4.5,3,5.8,4.8.6.8.9,2.2.9,3.4,0,5.6-6.2,15.3-14.4,15.3ZM1472.3,224.3c.7.5,1.4.6,2,.6,2.2,0,5.2-2.8,7.1-5.3,2.7-3.6,4.6-8,3.6-8.8-1.4-1.1-8.3,4.6-12.7,13.5Z"/>
          <path class="st1" d="M1554.2,217.5c2,1,3,2.6,3.3,4.1.3,1.2-.4,2-2.1,1.7-1.4-.2-2.7-.3-4.3-.3-3,5.9-6,12.2-9.1,18.9-.6,1.5-2.2,2-3.2.3-.8-1.3-1.6-2.7-1.6-4.7s.4-3.2,1.2-5.8c.6-1.8,1.9-4.8,3.3-7.9-5.8.7-11.7,1.9-15.9,1.9-2.7,5.6-5.4,11.5-8.1,17.5-.7,1.6-2.3,2-3.4.5-.8-1.1-1.6-2.7-1.6-4.8s.9-5.5,4.8-14.7c-1.9-1-2.6-2.1-3-2.8-.9-1.8-.4-2.4,2.1-2.2,1.4,0,2,.3,3,.3,5.8-12,14.2-27.4,18.1-33,1.5-2,2.9-1.7,3.9,0,.6,1,.8,2.2.8,3.8,0,2.6-.8,6.2-3.1,10.3l-9.9,18.1c5.9-.8,10.6-2,15.7-2.5,5.9-11.8,13.9-26,17.6-30.9,1.7-2.1,3.1-1.9,4,.2.5,1,.8,2.1.8,3.5,0,2.6-.9,6.1-3.6,10.8-5.9,10.4-7.9,14-9.9,17.7Z"/>
          <path class="st1" d="M1581.5,205.5c3.3,0,5.4,1.7,6.2,4.1l1.8-2.9c1.1-1.9,2.7-2,3.8-.7,1.6,1.9,2.4,5.9,0,10.8-2.4,5.1-10.2,15.2-10.2,21.5s.4,2.2,1.3,2.2c3.3,0,8-6.3,11.1-12.4,1-1.9,1.9-1.9,2.8,0,.4.8.9,3.3-.4,6-2.4,5.1-8.4,10-14,10s-7.3-2.4-8.1-5.9c-2.7,2.6-6.9,5.5-10.6,5.5-5.5,0-8.5-4-8.5-9.5s1.7-9.2,5-13.8c7.4-10.7,15-15,19.8-15ZM1578.2,226.3c3.6-6.3,5.3-10.9,5.3-13.3s-.2-1.8-1.1-1.8c-1.9,0-8.3,5.9-13,13.5-2.8,4.4-4.4,9.3-4.4,12.3s.4,2.8,1.3,2.8c3.1,0,7.3-5.7,11.9-13.5Z"/>
          <path class="st1" d="M1601.6,243.9c-5.7,0-8.2-3.2-8.2-7.9s.4-3.7,1.1-6.1c2.3-6.5,8.3-17.3,11.7-22.1,1.4-1.9,2.5-2,3.7-.7,1.8,1.9,2.5,5.9,0,10.5-1.8,4-6,11-7.6,14.7-.8,2.1-1.3,4.1-1.3,5.6s.4,2.3,1.4,2.3c3.7,0,8.5-6.2,11.4-12.5.7-1.7,2-1.5,2.8.2.8,1.6.7,3.9-.5,6.3-2.8,5.8-9.2,9.8-14.7,9.8ZM1613.5,196.5c2.6,0,5.1,3.3,5.1,6s-1.4,4.6-3.7,4.6-5.5-2.8-5.5-5.7,2-5,4.1-5Z"/>
          <path class="st1" d="M1622.4,233.7c1.7,0,3.5,1.2,4.5,3.2,1,2.4.3,5-.7,6.5-1.5,1.8-5,1.2-6.7-1.4-.7-1.1-1.1-2.4-1.1-3.3,0-2.4,1.8-5,4-5ZM1645.7,185.6c1.3-2,2.8-2.1,3.8,0,.5,1,.9,2.2.9,3.6,0,2.6-.9,6.2-3.4,10.8-5,9-12.7,23.4-17.4,33.5-.8,1.7-1.6,2-3.2.5-1-1-1.8-2.5-1.8-4.7s.4-3.3,1.3-5.8c3.6-9.8,12.7-27.9,19.7-38Z"/>
        </g>
      </g>
    </g>
  </g>
</svg>